<svg xmlns="http://www.w3.org/2000/svg" xmlns:xlink="http://www.w3.org/1999/xlink" width="500" zoomAndPan="magnify" viewBox="0 0 375 374.999991" height="500" preserveAspectRatio="xMidYMid meet" version="1.0"><defs><g/><clipPath id="4f2436f516"><path d="M 147 102 L 262.5 102 L 262.5 187.3125 L 147 187.3125 Z M 147 102 " clip-rule="nonzero"/></clipPath><clipPath id="5f456e524c"><path d="M 112.5 170 L 148 170 L 148 174 L 112.5 174 Z M 112.5 170 " clip-rule="nonzero"/></clipPath></defs><g clip-path="url(#4f2436f516)"><path fill="#ffffff" d="M 261.128906 120.382812 C 260.59375 122.054688 260.214844 124 258.578125 124.953125 C 257.929688 125.363281 257.46875 125.925781 257.203125 126.644531 C 256.03125 129.667969 250.980469 138.699219 247 136.339844 C 244.269531 134.644531 240.851562 134.445312 238.28125 132.425781 C 237.289062 131.691406 236.378906 130.847656 235.453125 130.035156 C 234.457031 129.269531 233.589844 127.648438 232.132812 128.25 C 227.625 130.101562 223.015625 131.714844 218.59375 133.804688 C 218.332031 133.96875 215.574219 135.351562 216.566406 135.511719 C 223.222656 136.535156 230.144531 138.585938 234.359375 144.222656 C 235.925781 146.195312 236.945312 149.445312 234.914062 151.453125 C 233.246094 153.191406 231.527344 155.121094 228.992188 155.433594 C 225.027344 156.0625 221.179688 157.1875 217.320312 158.273438 C 213.730469 159.578125 203.65625 161.292969 202.304688 164.796875 C 201.011719 167.820312 198.007812 170.46875 198.695312 174.085938 C 199.117188 176.640625 195.546875 178.167969 195.160156 175.023438 C 195.195312 174.816406 194.621094 172.808594 194.246094 172.160156 C 192.546875 169.328125 193.75 166.46875 193.9375 163.484375 C 193.792969 160.738281 191.945312 156.203125 195.992188 155.582031 C 202.085938 154.925781 197.398438 158.378906 206.175781 153.410156 C 208.253906 152.386719 209.667969 150.609375 211.363281 149.101562 C 211.679688 148.796875 211.570312 148.710938 211.183594 148.726562 C 208.453125 148.753906 205.71875 148.980469 202.996094 148.726562 C 201.265625 148.609375 199.316406 150.890625 197.773438 151.734375 C 195.425781 153.371094 193.179688 155.140625 191.042969 157.046875 C 188.660156 159.359375 185.363281 160.246094 182.832031 162.324219 C 181.792969 163.257812 180.589844 163.867188 179.222656 164.144531 C 173.058594 167.269531 167.0625 170.96875 161.027344 174.414062 C 160.199219 175.019531 155.890625 177.554688 156.203125 178.46875 C 156.386719 179.875 154.710938 181.25 154.332031 182.617188 C 153.746094 184.878906 156.300781 184.539062 157.578125 185.230469 C 158.394531 185.761719 158.1875 187.511719 156.933594 187.449219 C 155.332031 187.449219 153.730469 187.449219 152.128906 187.449219 C 149.386719 187.214844 147.59375 184.664062 148.988281 182.222656 C 149.886719 178.824219 144.488281 172.449219 150.300781 171.183594 C 151.671875 170.667969 153.007812 171.949219 154.273438 171.1875 C 161.449219 167.601562 163.222656 157.871094 172.078125 156.851562 C 172.734375 156.726562 173.472656 156.589844 173.90625 156.015625 C 175.257812 154.75 177.253906 154.292969 178.300781 152.730469 C 181.054688 149.242188 183.515625 145.023438 187.386719 142.820312 C 192.980469 139.511719 191.445312 134.925781 195.835938 131.929688 C 198.644531 130.019531 200.828125 127.296875 204.035156 125.976562 C 204.808594 125.59375 205.46875 125.058594 206.007812 124.382812 C 209.222656 120.382812 212.917969 116.898438 217.097656 113.921875 C 217.335938 113.746094 217.402344 113.59375 217.121094 113.386719 C 215.210938 112.226562 212.320312 108.914062 210.023438 109.429688 C 205.375 111.074219 200.269531 110.480469 195.664062 112.410156 C 194.898438 112.664062 194.253906 113.101562 193.734375 113.71875 C 191.355469 117.1875 190.136719 115.148438 188.558594 117.449219 C 188.027344 118.496094 187.011719 118.339844 186.972656 117.113281 C 186.808594 116.203125 187.09375 115.542969 187.6875 114.84375 C 185.714844 115.167969 183.820312 116.320312 181.824219 116.691406 C 180.78125 116.777344 180.300781 115.234375 181.425781 114.953125 C 182.664062 114.496094 183.910156 114.054688 185.160156 113.636719 C 185.941406 112.839844 181.347656 114.46875 181.089844 114.453125 C 180.863281 114.539062 180.632812 114.546875 180.398438 114.472656 C 180.167969 114.402344 179.980469 114.265625 179.839844 114.066406 C 179.703125 113.867188 179.636719 113.644531 179.652344 113.402344 C 179.664062 113.15625 179.75 112.945312 179.910156 112.761719 C 180.03125 112.609375 180.113281 112.4375 180.148438 112.25 C 180.261719 110.699219 183.277344 110.671875 184.359375 109.992188 C 183.625 109.65625 180.988281 109.597656 182.1875 108.257812 C 183.878906 107.089844 186.613281 108.527344 188.863281 107.75 C 190.996094 107.164062 193.261719 108.167969 195.277344 107.09375 C 199.582031 104.910156 204.285156 103.882812 208.917969 102.675781 C 211.796875 101.824219 214.539062 103.441406 217.28125 104.113281 C 221.59375 105.105469 225.125 108.023438 229.429688 108.949219 C 230.328125 109.105469 231.152344 109.4375 231.90625 109.949219 C 232.65625 110.460938 233.269531 111.109375 233.738281 111.886719 C 234.167969 112.914062 236.527344 114.351562 236.664062 112.457031 C 236.335938 103.070312 249.109375 106.042969 251.71875 112.167969 C 252.445312 113.15625 253.378906 115.371094 251.757812 115.96875 C 250.589844 116.402344 250.632812 118.410156 249.519531 119.183594 C 248.503906 120.023438 249.902344 122.46875 248.175781 122.464844 C 247.164062 122.054688 246.96875 123.042969 246.351562 123.582031 C 244.707031 125.332031 244.082031 126.070312 242.160156 123.976562 C 241.570312 123.398438 240.839844 123.472656 240.113281 123.507812 C 239.726562 123.757812 241.761719 125.300781 242.054688 125.335938 C 243.839844 126.070312 245.492188 127.050781 246.710938 128.609375 C 246.785156 128.742188 246.894531 128.828125 247.039062 128.867188 C 247.1875 128.90625 247.324219 128.882812 247.453125 128.804688 C 249.992188 127.667969 252.027344 125.941406 253.5625 123.625 C 254.117188 122.648438 253.199219 121.414062 253.199219 120.355469 C 253.117188 119.773438 253.195312 119.167969 253.15625 118.578125 C 253.28125 117.847656 252.304688 115.640625 253.601562 115.871094 C 256.246094 116.722656 254.480469 118.738281 256.605469 113.660156 C 256.949219 112.933594 257.316406 111.921875 258.296875 111.984375 C 259.214844 111.882812 260.03125 111.390625 260.363281 112.597656 C 261.660156 113.722656 261.046875 114.113281 260.941406 115.476562 C 261.410156 115.164062 261.828125 115.089844 262.082031 115.683594 C 262.460938 117.101562 261.410156 118.929688 261.128906 120.382812 Z M 261.128906 120.382812 " fill-opacity="1" fill-rule="nonzero"/></g><path fill="#ffffff" d="M 204.0625 123.933594 L 171.632812 125.148438 L 200.214844 126.21875 C 201.179688 125.496094 202.214844 124.898438 203.324219 124.421875 C 203.589844 124.289062 203.835938 124.125 204.0625 123.933594 Z M 204.0625 123.933594 " fill-opacity="1" fill-rule="nonzero"/><path fill="#ffffff" d="M 180.300781 109.597656 C 180.292969 109.574219 180.285156 109.550781 180.277344 109.527344 C 180.175781 109.207031 180.148438 108.886719 180.195312 108.554688 L 154.792969 109.484375 L 179.21875 110.375 C 179.535156 110.054688 179.894531 109.796875 180.300781 109.597656 Z M 180.300781 109.597656 " fill-opacity="1" fill-rule="nonzero"/><path fill="#ffffff" d="M 204.578125 102.027344 L 162.863281 103.589844 L 196.058594 104.832031 C 198.824219 103.667969 201.664062 102.734375 204.578125 102.027344 Z M 204.578125 102.027344 " fill-opacity="1" fill-rule="nonzero"/><path fill="#ffffff" d="M 163.949219 134.101562 L 191.050781 135.335938 C 191.445312 134.441406 191.925781 133.59375 192.496094 132.800781 Z M 163.949219 134.101562 " fill-opacity="1" fill-rule="nonzero"/><path fill="#ffffff" d="M 173.058594 154.488281 C 173.660156 154.015625 174.292969 153.597656 174.964844 153.234375 C 175.273438 153.058594 175.566406 152.890625 175.832031 152.71875 L 145.164062 153.644531 Z M 173.058594 154.488281 " fill-opacity="1" fill-rule="nonzero"/><path fill="#ffffff" d="M 211.488281 116.183594 L 192.5625 117.1875 C 192.398438 117.273438 192.234375 117.347656 192.066406 117.417969 L 209.203125 118.324219 C 209.953125 117.582031 210.714844 116.871094 211.488281 116.183594 Z M 211.488281 116.183594 " fill-opacity="1" fill-rule="nonzero"/><path fill="#ffffff" d="M 147.367188 181.628906 C 147.398438 181.234375 147.371094 180.84375 147.28125 180.457031 L 128.226562 181.246094 L 147.183594 182.035156 C 147.238281 181.898438 147.300781 181.765625 147.367188 181.628906 Z M 147.367188 181.628906 " fill-opacity="1" fill-rule="nonzero"/><path fill="#ffffff" d="M 192.777344 173.046875 L 172.492188 173.886719 L 193.363281 174.753906 C 193.210938 174.167969 193.015625 173.601562 192.777344 173.046875 Z M 192.777344 173.046875 " fill-opacity="1" fill-rule="nonzero"/><path fill="#ffffff" d="M 183.683594 143.441406 L 135.113281 144.941406 L 180.984375 146.359375 C 181.808594 145.320312 182.710938 144.34375 183.683594 143.441406 Z M 183.683594 143.441406 " fill-opacity="1" fill-rule="nonzero"/><path fill="#ffffff" d="M 160.089844 163.398438 C 160.476562 162.90625 160.863281 162.417969 161.261719 161.929688 L 120.546875 163.34375 L 159.066406 164.679688 C 159.40625 164.261719 159.746094 163.832031 160.089844 163.398438 Z M 160.089844 163.398438 " fill-opacity="1" fill-rule="nonzero"/><g clip-path="url(#5f456e524c)"><path fill="#ffffff" d="M 146.460938 171.757812 C 146.625 171.480469 146.820312 171.222656 147.046875 170.988281 L 112.535156 172.296875 L 145.890625 173.558594 C 145.949219 172.917969 146.136719 172.316406 146.460938 171.757812 Z M 146.460938 171.757812 " fill-opacity="1" fill-rule="nonzero"/></g><g fill="#ffffff" fill-opacity="1"><g transform="translate(45.644532, 224.432124)"><g><path d="M 4.890625 -24.328125 L 20.203125 -24.328125 L 19.59375 -20.4375 L 8.40625 -20.4375 L 7.4375 -14.1875 L 17.703125 -14.1875 L 17.09375 -10.296875 L 6.890625 -10.296875 L 5.265625 0 L 1.046875 0 Z M 4.890625 -24.328125 "/></g></g></g><g fill="#ffffff" fill-opacity="1"><g transform="translate(65.908619, 224.432124)"><g><path d="M 2 -6.953125 L 3.8125 -18.578125 L 8.046875 -18.578125 L 6.1875 -6.953125 C 5.800781 -4.546875 6.722656 -3.34375 8.953125 -3.34375 C 11.203125 -3.34375 12.519531 -4.546875 12.90625 -6.953125 L 14.765625 -18.578125 L 18.953125 -18.578125 L 17.09375 -6.953125 C 16.726562 -4.640625 15.789062 -2.84375 14.28125 -1.5625 C 12.78125 -0.289062 10.8125 0.34375 8.375 0.34375 C 6.007812 0.34375 4.265625 -0.300781 3.140625 -1.59375 C 2.015625 -2.894531 1.632812 -4.679688 2 -6.953125 Z M 2 -6.953125 "/></g></g></g><g fill="#ffffff" fill-opacity="1"><g transform="translate(86.172705, 224.432124)"><g><path d="M 2.796875 -18.578125 L 7.90625 -18.578125 L 8.8125 -24.328125 L 13.046875 -24.328125 L 12.125 -18.578125 L 19.1875 -18.578125 L 18.578125 -14.765625 L 11.515625 -14.765625 L 10.09375 -5.75 C 9.988281 -5.15625 10.085938 -4.679688 10.390625 -4.328125 C 10.691406 -3.984375 11.160156 -3.8125 11.796875 -3.8125 L 16.515625 -3.8125 L 15.90625 0 L 10.875 0 C 9.050781 0 7.6875 -0.515625 6.78125 -1.546875 C 5.882812 -2.585938 5.582031 -3.988281 5.875 -5.75 L 7.296875 -14.765625 L 2.203125 -14.765625 Z M 2.796875 -18.578125 "/></g></g></g><g fill="#ffffff" fill-opacity="1"><g transform="translate(106.436792, 224.432124)"><g><path d="M 2 -6.953125 L 3.8125 -18.578125 L 8.046875 -18.578125 L 6.1875 -6.953125 C 5.800781 -4.546875 6.722656 -3.34375 8.953125 -3.34375 C 11.203125 -3.34375 12.519531 -4.546875 12.90625 -6.953125 L 14.765625 -18.578125 L 18.953125 -18.578125 L 17.09375 -6.953125 C 16.726562 -4.640625 15.789062 -2.84375 14.28125 -1.5625 C 12.78125 -0.289062 10.8125 0.34375 8.375 0.34375 C 6.007812 0.34375 4.265625 -0.300781 3.140625 -1.59375 C 2.015625 -2.894531 1.632812 -4.679688 2 -6.953125 Z M 2 -6.953125 "/></g></g></g><g fill="#ffffff" fill-opacity="1"><g transform="translate(126.700879, 224.432124)"><g><path d="M 1.515625 0 L 4.453125 -18.578125 L 8.40625 -18.578125 L 7.90625 -15.375 L 8.203125 -15.375 C 8.609375 -16.5 9.304688 -17.367188 10.296875 -17.984375 C 11.296875 -18.609375 12.503906 -18.921875 13.921875 -18.921875 C 15.898438 -18.921875 17.347656 -18.296875 18.265625 -17.046875 C 19.191406 -15.796875 19.488281 -14.085938 19.15625 -11.921875 L 18.953125 -10.5 L 14.5625 -10.5 L 14.6875 -11.546875 C 14.894531 -12.742188 14.726562 -13.679688 14.1875 -14.359375 C 13.644531 -15.035156 12.800781 -15.375 11.65625 -15.375 C 10.570312 -15.375 9.65625 -15.03125 8.90625 -14.34375 C 8.164062 -13.65625 7.707031 -12.722656 7.53125 -11.546875 L 5.703125 0 Z M 1.515625 0 "/></g></g></g><g fill="#ffffff" fill-opacity="1"><g transform="translate(146.964965, 224.432124)"><g><path d="M 8.375 0.34375 C 7.15625 0.34375 6.082031 0.171875 5.15625 -0.171875 C 4.238281 -0.523438 3.472656 -1.015625 2.859375 -1.640625 C 2.253906 -2.273438 1.832031 -3.039062 1.59375 -3.9375 C 1.363281 -4.84375 1.335938 -5.847656 1.515625 -6.953125 L 2.265625 -11.65625 C 2.441406 -12.757812 2.789062 -13.757812 3.3125 -14.65625 C 3.832031 -15.5625 4.488281 -16.328125 5.28125 -16.953125 C 6.082031 -17.585938 7.003906 -18.070312 8.046875 -18.40625 C 9.097656 -18.75 10.234375 -18.921875 11.453125 -18.921875 C 12.648438 -18.921875 13.710938 -18.742188 14.640625 -18.390625 C 15.578125 -18.046875 16.34375 -17.550781 16.9375 -16.90625 C 17.539062 -16.257812 17.957031 -15.492188 18.1875 -14.609375 C 18.425781 -13.722656 18.457031 -12.726562 18.28125 -11.625 L 17.734375 -8.25 L 5.875 -8.25 L 5.671875 -7.03125 C 5.472656 -5.769531 5.660156 -4.789062 6.234375 -4.09375 C 6.804688 -3.394531 7.703125 -3.046875 8.921875 -3.046875 C 9.835938 -3.046875 10.644531 -3.191406 11.34375 -3.484375 C 12.039062 -3.773438 12.5625 -4.191406 12.90625 -4.734375 L 17.0625 -4.734375 C 16.75 -3.960938 16.300781 -3.265625 15.71875 -2.640625 C 15.144531 -2.023438 14.472656 -1.5 13.703125 -1.0625 C 12.941406 -0.625 12.109375 -0.28125 11.203125 -0.03125 C 10.304688 0.21875 9.363281 0.34375 8.375 0.34375 Z M 14.09375 -11.046875 L 14.1875 -11.625 C 14.382812 -12.863281 14.191406 -13.828125 13.609375 -14.515625 C 13.023438 -15.203125 12.125 -15.546875 10.90625 -15.546875 C 9.695312 -15.546875 8.691406 -15.203125 7.890625 -14.515625 C 7.085938 -13.828125 6.597656 -12.875 6.421875 -11.65625 L 6.3125 -11.046875 Z M 14.09375 -11.046875 "/></g></g></g><g fill="#ffffff" fill-opacity="1"><g transform="translate(167.229052, 224.432124)"><g/></g></g><g fill="#ffffff" fill-opacity="1"><g transform="translate(187.493139, 224.432124)"><g><path d="M 10.75 -24.328125 L 16.453125 -24.328125 L 18.953125 0 L 14.65625 0 L 14.1875 -6.109375 L 7.203125 -6.109375 L 4.765625 0 L 0.375 0 Z M 8.515625 -9.453125 L 13.921875 -9.453125 L 13.25 -18.078125 C 13.195312 -18.484375 13.171875 -18.875 13.171875 -19.25 C 13.171875 -19.632812 13.171875 -19.984375 13.171875 -20.296875 C 13.171875 -20.660156 13.171875 -21 13.171875 -21.3125 L 13 -21.3125 C 12.914062 -21 12.828125 -20.660156 12.734375 -20.296875 C 12.617188 -19.984375 12.503906 -19.632812 12.390625 -19.25 C 12.285156 -18.875 12.140625 -18.492188 11.953125 -18.109375 Z M 8.515625 -9.453125 "/></g></g></g><g fill="#ffffff" fill-opacity="1"><g transform="translate(207.757226, 224.432124)"><g><path d="M 2.796875 -18.578125 L 7.90625 -18.578125 L 8.8125 -24.328125 L 13.046875 -24.328125 L 12.125 -18.578125 L 19.1875 -18.578125 L 18.578125 -14.765625 L 11.515625 -14.765625 L 10.09375 -5.75 C 9.988281 -5.15625 10.085938 -4.679688 10.390625 -4.328125 C 10.691406 -3.984375 11.160156 -3.8125 11.796875 -3.8125 L 16.515625 -3.8125 L 15.90625 0 L 10.875 0 C 9.050781 0 7.6875 -0.515625 6.78125 -1.546875 C 5.882812 -2.585938 5.582031 -3.988281 5.875 -5.75 L 7.296875 -14.765625 L 2.203125 -14.765625 Z M 2.796875 -18.578125 "/></g></g></g><g fill="#ffffff" fill-opacity="1"><g transform="translate(228.021312, 224.432124)"><g><path d="M 0.78125 0 L 4.703125 -24.65625 L 8.890625 -24.65625 L 7.90625 -18.578125 C 7.789062 -17.878906 7.644531 -17.179688 7.46875 -16.484375 C 7.375 -16.097656 7.269531 -15.726562 7.15625 -15.375 L 7.5 -15.375 C 7.882812 -16.5 8.550781 -17.367188 9.5 -17.984375 C 10.457031 -18.609375 11.613281 -18.921875 12.96875 -18.921875 C 13.875 -18.921875 14.675781 -18.753906 15.375 -18.421875 C 16.070312 -18.097656 16.640625 -17.628906 17.078125 -17.015625 C 17.515625 -16.410156 17.816406 -15.691406 17.984375 -14.859375 C 18.148438 -14.023438 18.15625 -13.101562 18 -12.09375 L 16.078125 0 L 11.859375 0 L 13.6875 -11.65625 C 13.863281 -12.800781 13.703125 -13.6875 13.203125 -14.3125 C 12.710938 -14.945312 11.9375 -15.265625 10.875 -15.265625 C 9.789062 -15.265625 8.890625 -14.929688 8.171875 -14.265625 C 7.453125 -13.609375 7.003906 -12.703125 6.828125 -11.546875 L 6.796875 -11.546875 L 4.96875 0 Z M 0.78125 0 "/></g></g></g><g fill="#ffffff" fill-opacity="1"><g transform="translate(248.285399, 224.432124)"><g><path d="M 13.40625 -24.65625 L 10.4375 -6.015625 C 10.320312 -5.316406 10.429688 -4.773438 10.765625 -4.390625 C 11.109375 -4.003906 11.609375 -3.8125 12.265625 -3.8125 L 17.796875 -3.8125 L 17.1875 0 L 11.34375 0 C 9.457031 0 8.054688 -0.523438 7.140625 -1.578125 C 6.234375 -2.640625 5.925781 -4.117188 6.21875 -6.015625 L 8.578125 -20.84375 L 2.671875 -20.84375 L 3.28125 -24.65625 Z M 13.40625 -24.65625 "/></g></g></g><g fill="#ffffff" fill-opacity="1"><g transform="translate(268.549474, 224.432124)"><g><path d="M 8.375 0.34375 C 7.15625 0.34375 6.082031 0.171875 5.15625 -0.171875 C 4.238281 -0.523438 3.472656 -1.015625 2.859375 -1.640625 C 2.253906 -2.273438 1.832031 -3.039062 1.59375 -3.9375 C 1.363281 -4.84375 1.335938 -5.847656 1.515625 -6.953125 L 2.265625 -11.65625 C 2.441406 -12.757812 2.789062 -13.757812 3.3125 -14.65625 C 3.832031 -15.5625 4.488281 -16.328125 5.28125 -16.953125 C 6.082031 -17.585938 7.003906 -18.070312 8.046875 -18.40625 C 9.097656 -18.75 10.234375 -18.921875 11.453125 -18.921875 C 12.648438 -18.921875 13.710938 -18.742188 14.640625 -18.390625 C 15.578125 -18.046875 16.34375 -17.550781 16.9375 -16.90625 C 17.539062 -16.257812 17.957031 -15.492188 18.1875 -14.609375 C 18.425781 -13.722656 18.457031 -12.726562 18.28125 -11.625 L 17.734375 -8.25 L 5.875 -8.25 L 5.671875 -7.03125 C 5.472656 -5.769531 5.660156 -4.789062 6.234375 -4.09375 C 6.804688 -3.394531 7.703125 -3.046875 8.921875 -3.046875 C 9.835938 -3.046875 10.644531 -3.191406 11.34375 -3.484375 C 12.039062 -3.773438 12.5625 -4.191406 12.90625 -4.734375 L 17.0625 -4.734375 C 16.75 -3.960938 16.300781 -3.265625 15.71875 -2.640625 C 15.144531 -2.023438 14.472656 -1.5 13.703125 -1.0625 C 12.941406 -0.625 12.109375 -0.28125 11.203125 -0.03125 C 10.304688 0.21875 9.363281 0.34375 8.375 0.34375 Z M 14.09375 -11.046875 L 14.1875 -11.625 C 14.382812 -12.863281 14.191406 -13.828125 13.609375 -14.515625 C 13.023438 -15.203125 12.125 -15.546875 10.90625 -15.546875 C 9.695312 -15.546875 8.691406 -15.203125 7.890625 -14.515625 C 7.085938 -13.828125 6.597656 -12.875 6.421875 -11.65625 L 6.3125 -11.046875 Z M 14.09375 -11.046875 "/></g></g></g><g fill="#ffffff" fill-opacity="1"><g transform="translate(288.813571, 224.432124)"><g><path d="M 2.796875 -18.578125 L 7.90625 -18.578125 L 8.8125 -24.328125 L 13.046875 -24.328125 L 12.125 -18.578125 L 19.1875 -18.578125 L 18.578125 -14.765625 L 11.515625 -14.765625 L 10.09375 -5.75 C 9.988281 -5.15625 10.085938 -4.679688 10.390625 -4.328125 C 10.691406 -3.984375 11.160156 -3.8125 11.796875 -3.8125 L 16.515625 -3.8125 L 15.90625 0 L 10.875 0 C 9.050781 0 7.6875 -0.515625 6.78125 -1.546875 C 5.882812 -2.585938 5.582031 -3.988281 5.875 -5.75 L 7.296875 -14.765625 L 2.203125 -14.765625 Z M 2.796875 -18.578125 "/></g></g></g><g fill="#ffffff" fill-opacity="1"><g transform="translate(309.077669, 224.432124)"><g><path d="M 8.375 0.34375 C 7.15625 0.34375 6.082031 0.171875 5.15625 -0.171875 C 4.238281 -0.523438 3.472656 -1.015625 2.859375 -1.640625 C 2.253906 -2.273438 1.832031 -3.039062 1.59375 -3.9375 C 1.363281 -4.84375 1.335938 -5.847656 1.515625 -6.953125 L 2.265625 -11.65625 C 2.441406 -12.757812 2.789062 -13.757812 3.3125 -14.65625 C 3.832031 -15.5625 4.488281 -16.328125 5.28125 -16.953125 C 6.082031 -17.585938 7.003906 -18.070312 8.046875 -18.40625 C 9.097656 -18.75 10.234375 -18.921875 11.453125 -18.921875 C 12.648438 -18.921875 13.710938 -18.742188 14.640625 -18.390625 C 15.578125 -18.046875 16.34375 -17.550781 16.9375 -16.90625 C 17.539062 -16.257812 17.957031 -15.492188 18.1875 -14.609375 C 18.425781 -13.722656 18.457031 -12.726562 18.28125 -11.625 L 17.734375 -8.25 L 5.875 -8.25 L 5.671875 -7.03125 C 5.472656 -5.769531 5.660156 -4.789062 6.234375 -4.09375 C 6.804688 -3.394531 7.703125 -3.046875 8.921875 -3.046875 C 9.835938 -3.046875 10.644531 -3.191406 11.34375 -3.484375 C 12.039062 -3.773438 12.5625 -4.191406 12.90625 -4.734375 L 17.0625 -4.734375 C 16.75 -3.960938 16.300781 -3.265625 15.71875 -2.640625 C 15.144531 -2.023438 14.472656 -1.5 13.703125 -1.0625 C 12.941406 -0.625 12.109375 -0.28125 11.203125 -0.03125 C 10.304688 0.21875 9.363281 0.34375 8.375 0.34375 Z M 14.09375 -11.046875 L 14.1875 -11.625 C 14.382812 -12.863281 14.191406 -13.828125 13.609375 -14.515625 C 13.023438 -15.203125 12.125 -15.546875 10.90625 -15.546875 C 9.695312 -15.546875 8.691406 -15.203125 7.890625 -14.515625 C 7.085938 -13.828125 6.597656 -12.875 6.421875 -11.65625 L 6.3125 -11.046875 Z M 14.09375 -11.046875 "/></g></g></g></svg>