<svg xmlns="http://www.w3.org/2000/svg" xmlns:xlink="http://www.w3.org/1999/xlink" width="500" zoomAndPan="magnify" viewBox="0 0 375 374.999991" height="500" preserveAspectRatio="xMidYMid meet" version="1.0"><defs><g/><clipPath id="69181a0542"><path d="M 37.5 37.5 L 337.5 37.5 L 337.5 337.5 L 37.5 337.5 Z M 37.5 37.5 " clip-rule="nonzero"/></clipPath><clipPath id="a0e9b1c5d6"><path d="M 77.261719 37.5 L 297.738281 37.5 C 308.28125 37.5 318.398438 41.6875 325.855469 49.144531 C 333.3125 56.601562 337.5 66.71875 337.5 77.261719 L 337.5 297.738281 C 337.5 308.28125 333.3125 318.398438 325.855469 325.855469 C 318.398438 333.3125 308.28125 337.5 297.738281 337.5 L 77.261719 337.5 C 66.71875 337.5 56.601562 333.3125 49.144531 325.855469 C 41.6875 318.398438 37.5 308.28125 37.5 297.738281 L 37.5 77.261719 C 37.5 66.71875 41.6875 56.601562 49.144531 49.144531 C 56.601562 41.6875 66.71875 37.5 77.261719 37.5 Z M 77.261719 37.5 " clip-rule="nonzero"/></clipPath><radialGradient gradientTransform="matrix(1, 0, 0, 1, 37.500004, 37.499999)" gradientUnits="userSpaceOnUse" r="424.264443" cx="0" id="7e46b13b03" cy="0" fx="0" fy="0"><stop stop-opacity="1" stop-color="rgb(0.402832%, 2.839661%, 8.708191%)" offset="0"/><stop stop-opacity="1" stop-color="rgb(0.40741%, 3.051758%, 8.87146%)" offset="0.0078125"/><stop stop-opacity="1" stop-color="rgb(0.410461%, 3.192139%, 8.979797%)" offset="0.0117188"/><stop stop-opacity="1" stop-color="rgb(0.413513%, 3.334045%, 9.089661%)" offset="0.015625"/><stop stop-opacity="1" stop-color="rgb(0.416565%, 3.474426%, 9.197998%)" offset="0.0195312"/><stop stop-opacity="1" stop-color="rgb(0.419617%, 3.614807%, 9.307861%)" offset="0.0234375"/><stop stop-opacity="1" stop-color="rgb(0.422668%, 3.756714%, 9.416199%)" offset="0.0273438"/><stop stop-opacity="1" stop-color="rgb(0.42572%, 3.897095%, 9.524536%)" offset="0.03125"/><stop stop-opacity="1" stop-color="rgb(0.428772%, 4.039001%, 9.634399%)" offset="0.0351562"/><stop stop-opacity="1" stop-color="rgb(0.431824%, 4.179382%, 9.742737%)" offset="0.0390625"/><stop stop-opacity="1" stop-color="rgb(0.434875%, 4.321289%, 9.8526%)" offset="0.0429688"/><stop stop-opacity="1" stop-color="rgb(0.437927%, 4.46167%, 9.960938%)" offset="0.046875"/><stop stop-opacity="1" stop-color="rgb(0.440979%, 4.602051%, 10.070801%)" offset="0.0507812"/><stop stop-opacity="1" stop-color="rgb(0.444031%, 4.743958%, 10.179138%)" offset="0.0546875"/><stop stop-opacity="1" stop-color="rgb(0.447083%, 4.884338%, 10.287476%)" offset="0.0585938"/><stop stop-opacity="1" stop-color="rgb(0.450134%, 5.026245%, 10.397339%)" offset="0.0625"/><stop stop-opacity="1" stop-color="rgb(0.453186%, 5.166626%, 10.505676%)" offset="0.0664062"/><stop stop-opacity="1" stop-color="rgb(0.457764%, 5.307007%, 10.61554%)" offset="0.0703125"/><stop stop-opacity="1" stop-color="rgb(0.460815%, 5.448914%, 10.723877%)" offset="0.0742188"/><stop stop-opacity="1" stop-color="rgb(0.463867%, 5.589294%, 10.83374%)" offset="0.078125"/><stop stop-opacity="1" stop-color="rgb(0.466919%, 5.731201%, 10.942078%)" offset="0.0820312"/><stop stop-opacity="1" stop-color="rgb(0.469971%, 5.871582%, 11.050415%)" offset="0.0859375"/><stop stop-opacity="1" stop-color="rgb(0.473022%, 6.013489%, 11.160278%)" offset="0.0898438"/><stop stop-opacity="1" stop-color="rgb(0.476074%, 6.15387%, 11.268616%)" offset="0.09375"/><stop stop-opacity="1" stop-color="rgb(0.479126%, 6.29425%, 11.378479%)" offset="0.0976562"/><stop stop-opacity="1" stop-color="rgb(0.482178%, 6.436157%, 11.486816%)" offset="0.101562"/><stop stop-opacity="1" stop-color="rgb(0.485229%, 6.576538%, 11.595154%)" offset="0.105469"/><stop stop-opacity="1" stop-color="rgb(0.488281%, 6.718445%, 11.705017%)" offset="0.109375"/><stop stop-opacity="1" stop-color="rgb(0.491333%, 6.858826%, 11.813354%)" offset="0.113281"/><stop stop-opacity="1" stop-color="rgb(0.494385%, 6.999207%, 11.923218%)" offset="0.117188"/><stop stop-opacity="1" stop-color="rgb(0.497437%, 7.141113%, 12.031555%)" offset="0.121094"/><stop stop-opacity="1" stop-color="rgb(0.500488%, 7.281494%, 12.141418%)" offset="0.125"/><stop stop-opacity="1" stop-color="rgb(0.50354%, 7.423401%, 12.249756%)" offset="0.128906"/><stop stop-opacity="1" stop-color="rgb(0.506592%, 7.563782%, 12.358093%)" offset="0.132812"/><stop stop-opacity="1" stop-color="rgb(0.509644%, 7.705688%, 12.467957%)" offset="0.136719"/><stop stop-opacity="1" stop-color="rgb(0.512695%, 7.846069%, 12.576294%)" offset="0.140625"/><stop stop-opacity="1" stop-color="rgb(0.515747%, 7.98645%, 12.686157%)" offset="0.144531"/><stop stop-opacity="1" stop-color="rgb(0.518799%, 8.128357%, 12.794495%)" offset="0.148438"/><stop stop-opacity="1" stop-color="rgb(0.523376%, 8.268738%, 12.904358%)" offset="0.152344"/><stop stop-opacity="1" stop-color="rgb(0.526428%, 8.410645%, 13.012695%)" offset="0.15625"/><stop stop-opacity="1" stop-color="rgb(0.52948%, 8.551025%, 13.121033%)" offset="0.160156"/><stop stop-opacity="1" stop-color="rgb(0.532532%, 8.691406%, 13.230896%)" offset="0.164062"/><stop stop-opacity="1" stop-color="rgb(0.535583%, 8.833313%, 13.339233%)" offset="0.167969"/><stop stop-opacity="1" stop-color="rgb(0.538635%, 8.973694%, 13.449097%)" offset="0.171875"/><stop stop-opacity="1" stop-color="rgb(0.541687%, 9.115601%, 13.557434%)" offset="0.175781"/><stop stop-opacity="1" stop-color="rgb(0.544739%, 9.255981%, 13.667297%)" offset="0.179688"/><stop stop-opacity="1" stop-color="rgb(0.547791%, 9.397888%, 13.775635%)" offset="0.183594"/><stop stop-opacity="1" stop-color="rgb(0.550842%, 9.538269%, 13.883972%)" offset="0.1875"/><stop stop-opacity="1" stop-color="rgb(0.553894%, 9.67865%, 13.993835%)" offset="0.191406"/><stop stop-opacity="1" stop-color="rgb(0.556946%, 9.820557%, 14.102173%)" offset="0.195312"/><stop stop-opacity="1" stop-color="rgb(0.559998%, 9.960938%, 14.212036%)" offset="0.199219"/><stop stop-opacity="1" stop-color="rgb(0.563049%, 10.102844%, 14.320374%)" offset="0.203125"/><stop stop-opacity="1" stop-color="rgb(0.566101%, 10.243225%, 14.428711%)" offset="0.207031"/><stop stop-opacity="1" stop-color="rgb(0.569153%, 10.383606%, 14.538574%)" offset="0.210938"/><stop stop-opacity="1" stop-color="rgb(0.572205%, 10.525513%, 14.646912%)" offset="0.214844"/><stop stop-opacity="1" stop-color="rgb(0.575256%, 10.665894%, 14.756775%)" offset="0.21875"/><stop stop-opacity="1" stop-color="rgb(0.578308%, 10.8078%, 14.865112%)" offset="0.222656"/><stop stop-opacity="1" stop-color="rgb(0.58136%, 10.948181%, 14.974976%)" offset="0.226562"/><stop stop-opacity="1" stop-color="rgb(0.584412%, 11.090088%, 15.083313%)" offset="0.230469"/><stop stop-opacity="1" stop-color="rgb(0.588989%, 11.230469%, 15.19165%)" offset="0.234375"/><stop stop-opacity="1" stop-color="rgb(0.592041%, 11.37085%, 15.301514%)" offset="0.238281"/><stop stop-opacity="1" stop-color="rgb(0.595093%, 11.512756%, 15.409851%)" offset="0.242188"/><stop stop-opacity="1" stop-color="rgb(0.598145%, 11.653137%, 15.519714%)" offset="0.246094"/><stop stop-opacity="1" stop-color="rgb(0.601196%, 11.795044%, 15.628052%)" offset="0.25"/><stop stop-opacity="1" stop-color="rgb(0.605774%, 12.005615%, 15.791321%)" offset="0.253906"/><stop stop-opacity="1" stop-color="rgb(0.611877%, 12.287903%, 16.009521%)" offset="0.261719"/><stop stop-opacity="1" stop-color="rgb(0.617981%, 12.57019%, 16.227722%)" offset="0.269531"/><stop stop-opacity="1" stop-color="rgb(0.624084%, 12.852478%, 16.445923%)" offset="0.277344"/><stop stop-opacity="1" stop-color="rgb(0.630188%, 13.13324%, 16.664124%)" offset="0.285156"/><stop stop-opacity="1" stop-color="rgb(0.636292%, 13.415527%, 16.880798%)" offset="0.292969"/><stop stop-opacity="1" stop-color="rgb(0.642395%, 13.697815%, 17.098999%)" offset="0.300781"/><stop stop-opacity="1" stop-color="rgb(0.648499%, 13.980103%, 17.3172%)" offset="0.308594"/><stop stop-opacity="1" stop-color="rgb(0.656128%, 14.26239%, 17.5354%)" offset="0.316406"/><stop stop-opacity="1" stop-color="rgb(0.662231%, 14.544678%, 17.753601%)" offset="0.324219"/><stop stop-opacity="1" stop-color="rgb(0.668335%, 14.825439%, 17.971802%)" offset="0.332031"/><stop stop-opacity="1" stop-color="rgb(0.674438%, 15.107727%, 18.188477%)" offset="0.339844"/><stop stop-opacity="1" stop-color="rgb(0.680542%, 15.390015%, 18.406677%)" offset="0.347656"/><stop stop-opacity="1" stop-color="rgb(0.686646%, 15.672302%, 18.624878%)" offset="0.355469"/><stop stop-opacity="1" stop-color="rgb(0.692749%, 15.95459%, 18.843079%)" offset="0.363281"/><stop stop-opacity="1" stop-color="rgb(0.698853%, 16.235352%, 19.061279%)" offset="0.371094"/><stop stop-opacity="1" stop-color="rgb(0.704956%, 16.517639%, 19.27948%)" offset="0.378906"/><stop stop-opacity="1" stop-color="rgb(0.71106%, 16.799927%, 19.497681%)" offset="0.386719"/><stop stop-opacity="1" stop-color="rgb(0.717163%, 17.082214%, 19.714355%)" offset="0.394531"/><stop stop-opacity="1" stop-color="rgb(0.724792%, 17.364502%, 19.932556%)" offset="0.402344"/><stop stop-opacity="1" stop-color="rgb(0.730896%, 17.64679%, 20.150757%)" offset="0.410156"/><stop stop-opacity="1" stop-color="rgb(0.737%, 17.927551%, 20.368958%)" offset="0.417969"/><stop stop-opacity="1" stop-color="rgb(0.743103%, 18.209839%, 20.587158%)" offset="0.425781"/><stop stop-opacity="1" stop-color="rgb(0.749207%, 18.492126%, 20.805359%)" offset="0.433594"/><stop stop-opacity="1" stop-color="rgb(0.75531%, 18.774414%, 21.02356%)" offset="0.441406"/><stop stop-opacity="1" stop-color="rgb(0.761414%, 19.056702%, 21.240234%)" offset="0.449219"/><stop stop-opacity="1" stop-color="rgb(0.767517%, 19.338989%, 21.458435%)" offset="0.457031"/><stop stop-opacity="1" stop-color="rgb(0.773621%, 19.619751%, 21.676636%)" offset="0.464844"/><stop stop-opacity="1" stop-color="rgb(0.779724%, 19.902039%, 21.894836%)" offset="0.472656"/><stop stop-opacity="1" stop-color="rgb(0.787354%, 20.184326%, 22.113037%)" offset="0.480469"/><stop stop-opacity="1" stop-color="rgb(0.793457%, 20.466614%, 22.331238%)" offset="0.488281"/><stop stop-opacity="1" stop-color="rgb(0.799561%, 20.748901%, 22.547913%)" offset="0.496094"/><stop stop-opacity="1" stop-color="rgb(0.804138%, 20.960999%, 22.712708%)" offset="0.503906"/><stop stop-opacity="1" stop-color="rgb(0.80719%, 21.101379%, 22.821045%)" offset="0.507812"/><stop stop-opacity="1" stop-color="rgb(0.810242%, 21.24176%, 22.930908%)" offset="0.511719"/><stop stop-opacity="1" stop-color="rgb(0.813293%, 21.383667%, 23.039246%)" offset="0.515625"/><stop stop-opacity="1" stop-color="rgb(0.816345%, 21.524048%, 23.147583%)" offset="0.519531"/><stop stop-opacity="1" stop-color="rgb(0.819397%, 21.665955%, 23.257446%)" offset="0.523438"/><stop stop-opacity="1" stop-color="rgb(0.822449%, 21.806335%, 23.365784%)" offset="0.527344"/><stop stop-opacity="1" stop-color="rgb(0.8255%, 21.948242%, 23.475647%)" offset="0.53125"/><stop stop-opacity="1" stop-color="rgb(0.828552%, 22.088623%, 23.583984%)" offset="0.535156"/><stop stop-opacity="1" stop-color="rgb(0.831604%, 22.229004%, 23.693848%)" offset="0.539062"/><stop stop-opacity="1" stop-color="rgb(0.834656%, 22.370911%, 23.802185%)" offset="0.542969"/><stop stop-opacity="1" stop-color="rgb(0.837708%, 22.511292%, 23.910522%)" offset="0.546875"/><stop stop-opacity="1" stop-color="rgb(0.840759%, 22.653198%, 24.020386%)" offset="0.550781"/><stop stop-opacity="1" stop-color="rgb(0.843811%, 22.793579%, 24.128723%)" offset="0.554688"/><stop stop-opacity="1" stop-color="rgb(0.848389%, 22.93396%, 24.238586%)" offset="0.558594"/><stop stop-opacity="1" stop-color="rgb(0.85144%, 23.075867%, 24.346924%)" offset="0.5625"/><stop stop-opacity="1" stop-color="rgb(0.854492%, 23.216248%, 24.456787%)" offset="0.566406"/><stop stop-opacity="1" stop-color="rgb(0.857544%, 23.358154%, 24.565125%)" offset="0.570312"/><stop stop-opacity="1" stop-color="rgb(0.860596%, 23.498535%, 24.673462%)" offset="0.574219"/><stop stop-opacity="1" stop-color="rgb(0.863647%, 23.640442%, 24.783325%)" offset="0.578125"/><stop stop-opacity="1" stop-color="rgb(0.866699%, 23.780823%, 24.891663%)" offset="0.582031"/><stop stop-opacity="1" stop-color="rgb(0.869751%, 23.921204%, 25.001526%)" offset="0.585938"/><stop stop-opacity="1" stop-color="rgb(0.872803%, 24.06311%, 25.109863%)" offset="0.589844"/><stop stop-opacity="1" stop-color="rgb(0.875854%, 24.203491%, 25.218201%)" offset="0.59375"/><stop stop-opacity="1" stop-color="rgb(0.878906%, 24.345398%, 25.328064%)" offset="0.597656"/><stop stop-opacity="1" stop-color="rgb(0.881958%, 24.485779%, 25.436401%)" offset="0.601562"/><stop stop-opacity="1" stop-color="rgb(0.88501%, 24.62616%, 25.546265%)" offset="0.605469"/><stop stop-opacity="1" stop-color="rgb(0.888062%, 24.768066%, 25.654602%)" offset="0.609375"/><stop stop-opacity="1" stop-color="rgb(0.891113%, 24.908447%, 25.764465%)" offset="0.613281"/><stop stop-opacity="1" stop-color="rgb(0.894165%, 25.050354%, 25.872803%)" offset="0.617188"/><stop stop-opacity="1" stop-color="rgb(0.897217%, 25.190735%, 25.98114%)" offset="0.621094"/><stop stop-opacity="1" stop-color="rgb(0.900269%, 25.332642%, 26.091003%)" offset="0.625"/><stop stop-opacity="1" stop-color="rgb(0.904846%, 25.543213%, 26.254272%)" offset="0.628906"/><stop stop-opacity="1" stop-color="rgb(0.91095%, 25.8255%, 26.472473%)" offset="0.636719"/><stop stop-opacity="1" stop-color="rgb(0.918579%, 26.107788%, 26.690674%)" offset="0.644531"/><stop stop-opacity="1" stop-color="rgb(0.924683%, 26.38855%, 26.907349%)" offset="0.652344"/><stop stop-opacity="1" stop-color="rgb(0.930786%, 26.670837%, 27.125549%)" offset="0.660156"/><stop stop-opacity="1" stop-color="rgb(0.93689%, 26.953125%, 27.34375%)" offset="0.667969"/><stop stop-opacity="1" stop-color="rgb(0.942993%, 27.235413%, 27.561951%)" offset="0.675781"/><stop stop-opacity="1" stop-color="rgb(0.949097%, 27.5177%, 27.780151%)" offset="0.683594"/><stop stop-opacity="1" stop-color="rgb(0.9552%, 27.799988%, 27.998352%)" offset="0.691406"/><stop stop-opacity="1" stop-color="rgb(0.961304%, 28.08075%, 28.215027%)" offset="0.699219"/><stop stop-opacity="1" stop-color="rgb(0.967407%, 28.363037%, 28.433228%)" offset="0.707031"/><stop stop-opacity="1" stop-color="rgb(0.973511%, 28.645325%, 28.651428%)" offset="0.714844"/><stop stop-opacity="1" stop-color="rgb(0.98114%, 28.927612%, 28.869629%)" offset="0.722656"/><stop stop-opacity="1" stop-color="rgb(0.987244%, 29.2099%, 29.08783%)" offset="0.730469"/><stop stop-opacity="1" stop-color="rgb(0.993347%, 29.492188%, 29.30603%)" offset="0.738281"/><stop stop-opacity="1" stop-color="rgb(0.999451%, 29.772949%, 29.524231%)" offset="0.746094"/><stop stop-opacity="1" stop-color="rgb(1.004028%, 29.985046%, 29.6875%)" offset="0.753906"/><stop stop-opacity="1" stop-color="rgb(1.00708%, 30.126953%, 29.795837%)" offset="0.757812"/><stop stop-opacity="1" stop-color="rgb(1.010132%, 30.267334%, 29.905701%)" offset="0.761719"/><stop stop-opacity="1" stop-color="rgb(1.013184%, 30.409241%, 30.014038%)" offset="0.765625"/><stop stop-opacity="1" stop-color="rgb(1.016235%, 30.549622%, 30.123901%)" offset="0.769531"/><stop stop-opacity="1" stop-color="rgb(1.019287%, 30.690002%, 30.232239%)" offset="0.773438"/><stop stop-opacity="1" stop-color="rgb(1.022339%, 30.831909%, 30.340576%)" offset="0.777344"/><stop stop-opacity="1" stop-color="rgb(1.025391%, 30.97229%, 30.450439%)" offset="0.78125"/><stop stop-opacity="1" stop-color="rgb(1.028442%, 31.114197%, 30.558777%)" offset="0.785156"/><stop stop-opacity="1" stop-color="rgb(1.031494%, 31.254578%, 30.66864%)" offset="0.789062"/><stop stop-opacity="1" stop-color="rgb(1.034546%, 31.394958%, 30.776978%)" offset="0.792969"/><stop stop-opacity="1" stop-color="rgb(1.037598%, 31.536865%, 30.886841%)" offset="0.796875"/><stop stop-opacity="1" stop-color="rgb(1.040649%, 31.677246%, 30.995178%)" offset="0.800781"/><stop stop-opacity="1" stop-color="rgb(1.045227%, 31.819153%, 31.103516%)" offset="0.804688"/><stop stop-opacity="1" stop-color="rgb(1.048279%, 31.959534%, 31.213379%)" offset="0.808594"/><stop stop-opacity="1" stop-color="rgb(1.051331%, 32.10144%, 31.321716%)" offset="0.8125"/><stop stop-opacity="1" stop-color="rgb(1.055908%, 32.312012%, 31.484985%)" offset="0.816406"/><stop stop-opacity="1" stop-color="rgb(1.062012%, 32.594299%, 31.703186%)" offset="0.824219"/><stop stop-opacity="1" stop-color="rgb(1.068115%, 32.876587%, 31.921387%)" offset="0.832031"/><stop stop-opacity="1" stop-color="rgb(1.074219%, 33.157349%, 32.139587%)" offset="0.839844"/><stop stop-opacity="1" stop-color="rgb(1.080322%, 33.439636%, 32.357788%)" offset="0.847656"/><stop stop-opacity="1" stop-color="rgb(1.086426%, 33.721924%, 32.574463%)" offset="0.855469"/><stop stop-opacity="1" stop-color="rgb(1.092529%, 34.004211%, 32.792664%)" offset="0.863281"/><stop stop-opacity="1" stop-color="rgb(1.098633%, 34.286499%, 33.010864%)" offset="0.871094"/><stop stop-opacity="1" stop-color="rgb(1.10321%, 34.498596%, 33.174133%)" offset="0.878906"/><stop stop-opacity="1" stop-color="rgb(1.106262%, 34.638977%, 33.283997%)" offset="0.882812"/><stop stop-opacity="1" stop-color="rgb(1.11084%, 34.779358%, 33.392334%)" offset="0.886719"/><stop stop-opacity="1" stop-color="rgb(1.113892%, 34.921265%, 33.502197%)" offset="0.890625"/><stop stop-opacity="1" stop-color="rgb(1.116943%, 35.061646%, 33.610535%)" offset="0.894531"/><stop stop-opacity="1" stop-color="rgb(1.119995%, 35.203552%, 33.720398%)" offset="0.898438"/><stop stop-opacity="1" stop-color="rgb(1.123047%, 35.343933%, 33.828735%)" offset="0.902344"/><stop stop-opacity="1" stop-color="rgb(1.126099%, 35.484314%, 33.937073%)" offset="0.90625"/><stop stop-opacity="1" stop-color="rgb(1.130676%, 35.696411%, 34.100342%)" offset="0.910156"/><stop stop-opacity="1" stop-color="rgb(1.13678%, 35.978699%, 34.318542%)" offset="0.917969"/><stop stop-opacity="1" stop-color="rgb(1.142883%, 36.260986%, 34.536743%)" offset="0.925781"/><stop stop-opacity="1" stop-color="rgb(1.148987%, 36.541748%, 34.754944%)" offset="0.933594"/><stop stop-opacity="1" stop-color="rgb(1.153564%, 36.753845%, 34.918213%)" offset="0.941406"/><stop stop-opacity="1" stop-color="rgb(1.156616%, 36.895752%, 35.028076%)" offset="0.945312"/><stop stop-opacity="1" stop-color="rgb(1.159668%, 37.036133%, 35.136414%)" offset="0.949219"/><stop stop-opacity="1" stop-color="rgb(1.16272%, 37.176514%, 35.244751%)" offset="0.953125"/><stop stop-opacity="1" stop-color="rgb(1.167297%, 37.388611%, 35.40802%)" offset="0.957031"/><stop stop-opacity="1" stop-color="rgb(1.174927%, 37.670898%, 35.626221%)" offset="0.964844"/><stop stop-opacity="1" stop-color="rgb(1.179504%, 37.882996%, 35.791016%)" offset="0.972656"/><stop stop-opacity="1" stop-color="rgb(1.182556%, 38.023376%, 35.899353%)" offset="0.976562"/><stop stop-opacity="1" stop-color="rgb(1.187134%, 38.233948%, 36.062622%)" offset="0.980469"/><stop stop-opacity="1" stop-color="rgb(1.191711%, 38.446045%, 36.225891%)" offset="0.988281"/><stop stop-opacity="1" stop-color="rgb(1.196289%, 38.658142%, 36.38916%)" offset="0.992188"/><stop stop-opacity="1" stop-color="rgb(1.199341%, 38.798523%, 36.499023%)" offset="1"/></radialGradient><clipPath id="4c569ee526"><path d="M 149 115 L 259.472656 115 L 259.472656 197 L 149 197 Z M 149 115 " clip-rule="nonzero"/></clipPath><clipPath id="18dfb61772"><path d="M 163 114.6875 L 204 114.6875 L 204 118 L 163 118 Z M 163 114.6875 " clip-rule="nonzero"/></clipPath><clipPath id="fc25fb4baf"><path d="M 115.472656 181 L 149 181 L 149 184 L 115.472656 184 Z M 115.472656 181 " clip-rule="nonzero"/></clipPath></defs><g clip-path="url(#69181a0542)"><g clip-path="url(#a0e9b1c5d6)"><path fill="url(#7e46b13b03)" d="M 37.5 37.5 L 37.5 337.5 L 337.5 337.5 L 337.5 37.5 Z M 37.5 37.5 " fill-rule="nonzero"/></g></g><g clip-path="url(#4c569ee526)"><path fill="#ffffff" d="M 258.207031 132.523438 C 257.691406 134.125 257.324219 135.996094 255.757812 136.910156 C 255.132812 137.304688 254.691406 137.84375 254.433594 138.535156 C 253.308594 141.4375 248.457031 150.109375 244.636719 147.847656 C 242.015625 146.21875 238.730469 146.027344 236.261719 144.085938 C 235.3125 143.382812 234.4375 142.570312 233.546875 141.792969 C 232.59375 141.054688 231.761719 139.5 230.359375 140.074219 C 226.03125 141.855469 221.601562 143.40625 217.355469 145.410156 C 217.105469 145.566406 214.457031 146.898438 215.410156 147.050781 C 221.800781 148.035156 228.449219 150.003906 232.496094 155.414062 C 234 157.3125 234.984375 160.433594 233.03125 162.359375 C 231.429688 164.03125 229.777344 165.882812 227.34375 166.183594 C 223.535156 166.789062 219.839844 167.867188 216.136719 168.910156 C 212.683594 170.160156 203.015625 171.808594 201.714844 175.171875 C 200.472656 178.078125 197.589844 180.621094 198.246094 184.09375 C 198.652344 186.546875 195.222656 188.015625 194.851562 184.992188 C 194.886719 184.796875 194.335938 182.867188 193.972656 182.242188 C 192.34375 179.523438 193.5 176.78125 193.679688 173.914062 C 193.539062 171.273438 191.765625 166.921875 195.652344 166.328125 C 201.503906 165.695312 197.003906 169.011719 205.429688 164.242188 C 207.429688 163.257812 208.785156 161.546875 210.410156 160.101562 C 210.71875 159.808594 210.613281 159.726562 210.238281 159.738281 C 207.621094 159.765625 204.992188 159.984375 202.378906 159.738281 C 200.71875 159.628906 198.84375 161.820312 197.363281 162.628906 C 195.105469 164.203125 192.953125 165.902344 190.902344 167.730469 C 188.609375 169.953125 185.445312 170.800781 183.015625 172.800781 C 182.019531 173.699219 180.863281 174.28125 179.546875 174.546875 C 173.625 177.546875 167.867188 181.101562 162.074219 184.410156 C 161.277344 184.992188 157.140625 187.425781 157.441406 188.304688 C 157.617188 189.65625 156.007812 190.976562 155.644531 192.285156 C 155.082031 194.460938 157.535156 194.132812 158.761719 194.800781 C 159.546875 195.308594 159.347656 196.988281 158.140625 196.925781 C 156.605469 196.925781 155.066406 196.925781 153.527344 196.929688 C 150.894531 196.703125 149.171875 194.253906 150.511719 191.90625 C 151.375 188.648438 146.191406 182.523438 151.773438 181.308594 C 153.089844 180.8125 154.371094 182.042969 155.589844 181.308594 C 162.476562 177.867188 164.183594 168.523438 172.6875 167.542969 C 173.316406 167.421875 174.027344 167.289062 174.441406 166.742188 C 175.742188 165.527344 177.65625 165.085938 178.664062 163.585938 C 181.308594 160.238281 183.667969 156.183594 187.390625 154.070312 C 192.761719 150.890625 191.285156 146.488281 195.5 143.609375 C 198.199219 141.777344 200.296875 139.160156 203.375 137.894531 C 204.121094 137.523438 204.75 137.011719 205.269531 136.363281 C 208.355469 132.523438 211.90625 129.175781 215.921875 126.316406 C 216.148438 126.148438 216.210938 126 215.945312 125.800781 C 214.109375 124.6875 211.332031 121.507812 209.125 122.003906 C 204.660156 123.582031 199.757812 123.011719 195.339844 124.867188 C 194.601562 125.109375 193.984375 125.53125 193.480469 126.125 C 191.199219 129.453125 190.027344 127.492188 188.511719 129.703125 C 188 130.710938 187.027344 130.5625 186.992188 129.382812 C 186.832031 128.507812 187.109375 127.875 187.679688 127.203125 C 185.78125 127.515625 183.960938 128.621094 182.046875 128.976562 C 181.042969 129.058594 180.582031 127.574219 181.664062 127.308594 C 182.855469 126.867188 184.050781 126.445312 185.25 126.042969 C 186 125.277344 181.589844 126.839844 181.339844 126.828125 C 181.121094 126.910156 180.902344 126.917969 180.679688 126.847656 C 180.453125 126.777344 180.273438 126.648438 180.140625 126.457031 C 180.007812 126.265625 179.945312 126.050781 179.960938 125.816406 C 179.972656 125.582031 180.054688 125.378906 180.207031 125.203125 C 180.324219 125.054688 180.402344 124.894531 180.4375 124.710938 C 180.542969 123.222656 183.441406 123.195312 184.480469 122.542969 C 183.773438 122.222656 181.246094 122.164062 182.394531 120.875 C 184.019531 119.753906 186.644531 121.136719 188.804688 120.390625 C 190.851562 119.828125 193.027344 120.792969 194.964844 119.757812 C 199.097656 117.664062 203.613281 116.675781 208.066406 115.519531 C 210.828125 114.695312 213.464844 116.253906 216.09375 116.894531 C 220.238281 117.847656 223.628906 120.652344 227.765625 121.542969 C 228.625 121.691406 229.417969 122.007812 230.140625 122.503906 C 230.863281 122.996094 231.449219 123.613281 231.902344 124.363281 C 232.3125 125.347656 234.578125 126.730469 234.710938 124.910156 C 234.398438 115.894531 246.664062 118.75 249.167969 124.632812 C 249.867188 125.582031 250.761719 127.707031 249.207031 128.285156 C 248.082031 128.699219 248.125 130.628906 247.058594 131.367188 C 246.082031 132.175781 247.421875 134.523438 245.765625 134.519531 C 244.792969 134.128906 244.609375 135.074219 244.015625 135.59375 C 242.4375 137.273438 241.832031 137.984375 239.988281 135.972656 C 239.421875 135.417969 238.71875 135.488281 238.023438 135.519531 C 237.652344 135.761719 239.605469 137.246094 239.886719 137.28125 C 241.601562 137.984375 243.1875 138.925781 244.359375 140.421875 C 244.429688 140.546875 244.535156 140.632812 244.675781 140.667969 C 244.816406 140.707031 244.949219 140.683594 245.070312 140.609375 C 247.507812 139.519531 249.464844 137.859375 250.9375 135.632812 C 251.472656 134.695312 250.589844 133.511719 250.589844 132.492188 C 250.511719 131.9375 250.585938 131.355469 250.550781 130.789062 C 250.667969 130.085938 249.730469 127.96875 250.976562 128.1875 C 253.515625 129.007812 251.820312 130.941406 253.863281 126.066406 C 254.191406 125.367188 254.542969 124.394531 255.484375 124.457031 C 256.367188 124.359375 257.148438 123.882812 257.46875 125.046875 C 258.714844 126.128906 258.125 126.5 258.023438 127.808594 C 258.476562 127.511719 258.878906 127.441406 259.121094 128.011719 C 259.484375 129.371094 258.476562 131.128906 258.207031 132.523438 Z M 258.207031 132.523438 " fill-opacity="1" fill-rule="nonzero"/></g><path fill="#ffffff" d="M 203.402344 135.933594 L 172.257812 137.097656 L 199.707031 138.125 C 200.632812 137.433594 201.628906 136.855469 202.695312 136.398438 C 202.949219 136.269531 203.183594 136.113281 203.402344 135.933594 Z M 203.402344 135.933594 " fill-opacity="1" fill-rule="nonzero"/><path fill="#ffffff" d="M 180.582031 122.164062 C 180.574219 122.140625 180.566406 122.117188 180.558594 122.09375 C 180.460938 121.789062 180.4375 121.480469 180.480469 121.164062 L 156.085938 122.054688 L 179.542969 122.910156 C 179.847656 122.601562 180.195312 122.355469 180.582031 122.164062 Z M 180.582031 122.164062 " fill-opacity="1" fill-rule="nonzero"/><g clip-path="url(#18dfb61772)"><path fill="#ffffff" d="M 203.898438 114.894531 L 163.835938 116.394531 L 195.714844 117.589844 C 198.371094 116.46875 201.097656 115.570312 203.898438 114.894531 Z M 203.898438 114.894531 " fill-opacity="1" fill-rule="nonzero"/></g><path fill="#ffffff" d="M 164.878906 145.695312 L 190.90625 146.882812 C 191.285156 146.019531 191.746094 145.207031 192.296875 144.445312 Z M 164.878906 145.695312 " fill-opacity="1" fill-rule="nonzero"/><path fill="#ffffff" d="M 173.628906 165.273438 C 174.203125 164.820312 174.816406 164.417969 175.460938 164.070312 C 175.757812 163.902344 176.039062 163.738281 176.292969 163.574219 L 146.839844 164.464844 Z M 173.628906 165.273438 " fill-opacity="1" fill-rule="nonzero"/><path fill="#ffffff" d="M 210.535156 128.488281 L 192.355469 129.453125 C 192.203125 129.535156 192.042969 129.609375 191.882812 129.671875 L 208.339844 130.546875 C 209.058594 129.832031 209.792969 129.148438 210.535156 128.488281 Z M 210.535156 128.488281 " fill-opacity="1" fill-rule="nonzero"/><path fill="#ffffff" d="M 148.957031 191.339844 C 148.988281 190.960938 148.960938 190.585938 148.875 190.214844 L 130.574219 190.972656 L 148.777344 191.726562 C 148.832031 191.597656 148.890625 191.46875 148.957031 191.339844 Z M 148.957031 191.339844 " fill-opacity="1" fill-rule="nonzero"/><path fill="#ffffff" d="M 192.566406 183.09375 L 173.082031 183.902344 L 193.128906 184.734375 C 192.980469 184.175781 192.792969 183.628906 192.566406 183.09375 Z M 192.566406 183.09375 " fill-opacity="1" fill-rule="nonzero"/><path fill="#ffffff" d="M 183.832031 154.664062 L 137.1875 156.105469 L 181.238281 157.46875 C 182.03125 156.46875 182.894531 155.535156 183.832031 154.664062 Z M 183.832031 154.664062 " fill-opacity="1" fill-rule="nonzero"/><path fill="#ffffff" d="M 161.171875 173.832031 C 161.542969 173.359375 161.917969 172.886719 162.296875 172.421875 L 123.199219 173.777344 L 160.1875 175.0625 C 160.515625 174.660156 160.84375 174.246094 161.171875 173.832031 Z M 161.171875 173.832031 " fill-opacity="1" fill-rule="nonzero"/><g clip-path="url(#fc25fb4baf)"><path fill="#ffffff" d="M 148.085938 181.859375 C 148.242188 181.589844 148.429688 181.34375 148.648438 181.121094 L 115.503906 182.375 L 147.535156 183.589844 C 147.59375 182.972656 147.777344 182.394531 148.085938 181.859375 Z M 148.085938 181.859375 " fill-opacity="1" fill-rule="nonzero"/></g><g fill="#ffffff" fill-opacity="1"><g transform="translate(45.644728, 229.153688)"><g><path d="M 4.890625 -24.328125 L 20.203125 -24.328125 L 19.59375 -20.4375 L 8.40625 -20.4375 L 7.4375 -14.1875 L 17.703125 -14.1875 L 17.09375 -10.296875 L 6.890625 -10.296875 L 5.265625 0 L 1.046875 0 Z M 4.890625 -24.328125 "/></g></g></g><g fill="#ffffff" fill-opacity="1"><g transform="translate(65.908384, 229.153688)"><g><path d="M 2 -6.953125 L 3.8125 -18.578125 L 8.046875 -18.578125 L 6.1875 -6.953125 C 5.800781 -4.546875 6.722656 -3.34375 8.953125 -3.34375 C 11.203125 -3.34375 12.519531 -4.546875 12.90625 -6.953125 L 14.765625 -18.578125 L 18.953125 -18.578125 L 17.09375 -6.953125 C 16.726562 -4.640625 15.789062 -2.84375 14.28125 -1.5625 C 12.78125 -0.289062 10.8125 0.34375 8.375 0.34375 C 6.007812 0.34375 4.265625 -0.300781 3.140625 -1.59375 C 2.015625 -2.894531 1.632812 -4.679688 2 -6.953125 Z M 2 -6.953125 "/></g></g></g><g fill="#ffffff" fill-opacity="1"><g transform="translate(86.17204, 229.153688)"><g><path d="M 2.796875 -18.578125 L 7.90625 -18.578125 L 8.8125 -24.328125 L 13.046875 -24.328125 L 12.125 -18.578125 L 19.1875 -18.578125 L 18.578125 -14.765625 L 11.515625 -14.765625 L 10.09375 -5.75 C 9.988281 -5.15625 10.085938 -4.679688 10.390625 -4.328125 C 10.691406 -3.984375 11.160156 -3.8125 11.796875 -3.8125 L 16.515625 -3.8125 L 15.90625 0 L 10.875 0 C 9.050781 0 7.6875 -0.515625 6.78125 -1.546875 C 5.882812 -2.585938 5.582031 -3.988281 5.875 -5.75 L 7.296875 -14.765625 L 2.203125 -14.765625 Z M 2.796875 -18.578125 "/></g></g></g><g fill="#ffffff" fill-opacity="1"><g transform="translate(106.435696, 229.153688)"><g><path d="M 2 -6.953125 L 3.8125 -18.578125 L 8.046875 -18.578125 L 6.1875 -6.953125 C 5.800781 -4.546875 6.722656 -3.34375 8.953125 -3.34375 C 11.203125 -3.34375 12.519531 -4.546875 12.90625 -6.953125 L 14.765625 -18.578125 L 18.953125 -18.578125 L 17.09375 -6.953125 C 16.726562 -4.640625 15.789062 -2.84375 14.28125 -1.5625 C 12.78125 -0.289062 10.8125 0.34375 8.375 0.34375 C 6.007812 0.34375 4.265625 -0.300781 3.140625 -1.59375 C 2.015625 -2.894531 1.632812 -4.679688 2 -6.953125 Z M 2 -6.953125 "/></g></g></g><g fill="#ffffff" fill-opacity="1"><g transform="translate(126.699352, 229.153688)"><g><path d="M 1.515625 0 L 4.453125 -18.578125 L 8.40625 -18.578125 L 7.90625 -15.375 L 8.203125 -15.375 C 8.609375 -16.5 9.304688 -17.367188 10.296875 -17.984375 C 11.296875 -18.609375 12.503906 -18.921875 13.921875 -18.921875 C 15.898438 -18.921875 17.347656 -18.296875 18.265625 -17.046875 C 19.191406 -15.796875 19.488281 -14.085938 19.15625 -11.921875 L 18.953125 -10.5 L 14.5625 -10.5 L 14.6875 -11.546875 C 14.894531 -12.742188 14.726562 -13.679688 14.1875 -14.359375 C 13.644531 -15.035156 12.800781 -15.375 11.65625 -15.375 C 10.570312 -15.375 9.65625 -15.03125 8.90625 -14.34375 C 8.164062 -13.65625 7.707031 -12.722656 7.53125 -11.546875 L 5.703125 0 Z M 1.515625 0 "/></g></g></g><g fill="#ffffff" fill-opacity="1"><g transform="translate(146.963008, 229.153688)"><g><path d="M 8.375 0.34375 C 7.15625 0.34375 6.082031 0.171875 5.15625 -0.171875 C 4.238281 -0.523438 3.472656 -1.015625 2.859375 -1.640625 C 2.253906 -2.273438 1.832031 -3.039062 1.59375 -3.9375 C 1.363281 -4.84375 1.335938 -5.847656 1.515625 -6.953125 L 2.265625 -11.65625 C 2.441406 -12.757812 2.789062 -13.757812 3.3125 -14.65625 C 3.832031 -15.5625 4.488281 -16.328125 5.28125 -16.953125 C 6.082031 -17.585938 7.003906 -18.070312 8.046875 -18.40625 C 9.097656 -18.75 10.234375 -18.921875 11.453125 -18.921875 C 12.648438 -18.921875 13.710938 -18.742188 14.640625 -18.390625 C 15.578125 -18.046875 16.34375 -17.550781 16.9375 -16.90625 C 17.539062 -16.257812 17.957031 -15.492188 18.1875 -14.609375 C 18.425781 -13.722656 18.457031 -12.726562 18.28125 -11.625 L 17.734375 -8.25 L 5.875 -8.25 L 5.671875 -7.03125 C 5.472656 -5.769531 5.660156 -4.789062 6.234375 -4.09375 C 6.804688 -3.394531 7.703125 -3.046875 8.921875 -3.046875 C 9.835938 -3.046875 10.644531 -3.191406 11.34375 -3.484375 C 12.039062 -3.773438 12.5625 -4.191406 12.90625 -4.734375 L 17.0625 -4.734375 C 16.75 -3.960938 16.300781 -3.265625 15.71875 -2.640625 C 15.144531 -2.023438 14.472656 -1.5 13.703125 -1.0625 C 12.941406 -0.625 12.109375 -0.28125 11.203125 -0.03125 C 10.304688 0.21875 9.363281 0.34375 8.375 0.34375 Z M 14.09375 -11.046875 L 14.1875 -11.625 C 14.382812 -12.863281 14.191406 -13.828125 13.609375 -14.515625 C 13.023438 -15.203125 12.125 -15.546875 10.90625 -15.546875 C 9.695312 -15.546875 8.691406 -15.203125 7.890625 -14.515625 C 7.085938 -13.828125 6.597656 -12.875 6.421875 -11.65625 L 6.3125 -11.046875 Z M 14.09375 -11.046875 "/></g></g></g><g fill="#ffffff" fill-opacity="1"><g transform="translate(167.226664, 229.153688)"><g/></g></g><g fill="#ffffff" fill-opacity="1"><g transform="translate(187.490321, 229.153688)"><g><path d="M 10.75 -24.328125 L 16.453125 -24.328125 L 18.953125 0 L 14.65625 0 L 14.1875 -6.109375 L 7.203125 -6.109375 L 4.765625 0 L 0.375 0 Z M 8.515625 -9.453125 L 13.921875 -9.453125 L 13.25 -18.078125 C 13.195312 -18.484375 13.171875 -18.875 13.171875 -19.25 C 13.171875 -19.632812 13.171875 -19.984375 13.171875 -20.296875 C 13.171875 -20.660156 13.171875 -21 13.171875 -21.3125 L 13 -21.3125 C 12.914062 -21 12.828125 -20.660156 12.734375 -20.296875 C 12.617188 -19.984375 12.503906 -19.632812 12.390625 -19.25 C 12.285156 -18.875 12.140625 -18.492188 11.953125 -18.109375 Z M 8.515625 -9.453125 "/></g></g></g><g fill="#ffffff" fill-opacity="1"><g transform="translate(207.753977, 229.153688)"><g><path d="M 2.796875 -18.578125 L 7.90625 -18.578125 L 8.8125 -24.328125 L 13.046875 -24.328125 L 12.125 -18.578125 L 19.1875 -18.578125 L 18.578125 -14.765625 L 11.515625 -14.765625 L 10.09375 -5.75 C 9.988281 -5.15625 10.085938 -4.679688 10.390625 -4.328125 C 10.691406 -3.984375 11.160156 -3.8125 11.796875 -3.8125 L 16.515625 -3.8125 L 15.90625 0 L 10.875 0 C 9.050781 0 7.6875 -0.515625 6.78125 -1.546875 C 5.882812 -2.585938 5.582031 -3.988281 5.875 -5.75 L 7.296875 -14.765625 L 2.203125 -14.765625 Z M 2.796875 -18.578125 "/></g></g></g><g fill="#ffffff" fill-opacity="1"><g transform="translate(228.017633, 229.153688)"><g><path d="M 0.78125 0 L 4.703125 -24.65625 L 8.890625 -24.65625 L 7.90625 -18.578125 C 7.789062 -17.878906 7.644531 -17.179688 7.46875 -16.484375 C 7.375 -16.097656 7.269531 -15.726562 7.15625 -15.375 L 7.5 -15.375 C 7.882812 -16.5 8.550781 -17.367188 9.5 -17.984375 C 10.457031 -18.609375 11.613281 -18.921875 12.96875 -18.921875 C 13.875 -18.921875 14.675781 -18.753906 15.375 -18.421875 C 16.070312 -18.097656 16.640625 -17.628906 17.078125 -17.015625 C 17.515625 -16.410156 17.816406 -15.691406 17.984375 -14.859375 C 18.148438 -14.023438 18.15625 -13.101562 18 -12.09375 L 16.078125 0 L 11.859375 0 L 13.6875 -11.65625 C 13.863281 -12.800781 13.703125 -13.6875 13.203125 -14.3125 C 12.710938 -14.945312 11.9375 -15.265625 10.875 -15.265625 C 9.789062 -15.265625 8.890625 -14.929688 8.171875 -14.265625 C 7.453125 -13.609375 7.003906 -12.703125 6.828125 -11.546875 L 6.796875 -11.546875 L 4.96875 0 Z M 0.78125 0 "/></g></g></g><g fill="#ffffff" fill-opacity="1"><g transform="translate(248.281289, 229.153688)"><g><path d="M 13.40625 -24.65625 L 10.4375 -6.015625 C 10.320312 -5.316406 10.429688 -4.773438 10.765625 -4.390625 C 11.109375 -4.003906 11.609375 -3.8125 12.265625 -3.8125 L 17.796875 -3.8125 L 17.1875 0 L 11.34375 0 C 9.457031 0 8.054688 -0.523438 7.140625 -1.578125 C 6.234375 -2.640625 5.925781 -4.117188 6.21875 -6.015625 L 8.578125 -20.84375 L 2.671875 -20.84375 L 3.28125 -24.65625 Z M 13.40625 -24.65625 "/></g></g></g><g fill="#ffffff" fill-opacity="1"><g transform="translate(268.544945, 229.153688)"><g><path d="M 8.375 0.34375 C 7.15625 0.34375 6.082031 0.171875 5.15625 -0.171875 C 4.238281 -0.523438 3.472656 -1.015625 2.859375 -1.640625 C 2.253906 -2.273438 1.832031 -3.039062 1.59375 -3.9375 C 1.363281 -4.84375 1.335938 -5.847656 1.515625 -6.953125 L 2.265625 -11.65625 C 2.441406 -12.757812 2.789062 -13.757812 3.3125 -14.65625 C 3.832031 -15.5625 4.488281 -16.328125 5.28125 -16.953125 C 6.082031 -17.585938 7.003906 -18.070312 8.046875 -18.40625 C 9.097656 -18.75 10.234375 -18.921875 11.453125 -18.921875 C 12.648438 -18.921875 13.710938 -18.742188 14.640625 -18.390625 C 15.578125 -18.046875 16.34375 -17.550781 16.9375 -16.90625 C 17.539062 -16.257812 17.957031 -15.492188 18.1875 -14.609375 C 18.425781 -13.722656 18.457031 -12.726562 18.28125 -11.625 L 17.734375 -8.25 L 5.875 -8.25 L 5.671875 -7.03125 C 5.472656 -5.769531 5.660156 -4.789062 6.234375 -4.09375 C 6.804688 -3.394531 7.703125 -3.046875 8.921875 -3.046875 C 9.835938 -3.046875 10.644531 -3.191406 11.34375 -3.484375 C 12.039062 -3.773438 12.5625 -4.191406 12.90625 -4.734375 L 17.0625 -4.734375 C 16.75 -3.960938 16.300781 -3.265625 15.71875 -2.640625 C 15.144531 -2.023438 14.472656 -1.5 13.703125 -1.0625 C 12.941406 -0.625 12.109375 -0.28125 11.203125 -0.03125 C 10.304688 0.21875 9.363281 0.34375 8.375 0.34375 Z M 14.09375 -11.046875 L 14.1875 -11.625 C 14.382812 -12.863281 14.191406 -13.828125 13.609375 -14.515625 C 13.023438 -15.203125 12.125 -15.546875 10.90625 -15.546875 C 9.695312 -15.546875 8.691406 -15.203125 7.890625 -14.515625 C 7.085938 -13.828125 6.597656 -12.875 6.421875 -11.65625 L 6.3125 -11.046875 Z M 14.09375 -11.046875 "/></g></g></g><g fill="#ffffff" fill-opacity="1"><g transform="translate(288.808601, 229.153688)"><g><path d="M 2.796875 -18.578125 L 7.90625 -18.578125 L 8.8125 -24.328125 L 13.046875 -24.328125 L 12.125 -18.578125 L 19.1875 -18.578125 L 18.578125 -14.765625 L 11.515625 -14.765625 L 10.09375 -5.75 C 9.988281 -5.15625 10.085938 -4.679688 10.390625 -4.328125 C 10.691406 -3.984375 11.160156 -3.8125 11.796875 -3.8125 L 16.515625 -3.8125 L 15.90625 0 L 10.875 0 C 9.050781 0 7.6875 -0.515625 6.78125 -1.546875 C 5.882812 -2.585938 5.582031 -3.988281 5.875 -5.75 L 7.296875 -14.765625 L 2.203125 -14.765625 Z M 2.796875 -18.578125 "/></g></g></g><g fill="#ffffff" fill-opacity="1"><g transform="translate(309.072257, 229.153688)"><g><path d="M 8.375 0.34375 C 7.15625 0.34375 6.082031 0.171875 5.15625 -0.171875 C 4.238281 -0.523438 3.472656 -1.015625 2.859375 -1.640625 C 2.253906 -2.273438 1.832031 -3.039062 1.59375 -3.9375 C 1.363281 -4.84375 1.335938 -5.847656 1.515625 -6.953125 L 2.265625 -11.65625 C 2.441406 -12.757812 2.789062 -13.757812 3.3125 -14.65625 C 3.832031 -15.5625 4.488281 -16.328125 5.28125 -16.953125 C 6.082031 -17.585938 7.003906 -18.070312 8.046875 -18.40625 C 9.097656 -18.75 10.234375 -18.921875 11.453125 -18.921875 C 12.648438 -18.921875 13.710938 -18.742188 14.640625 -18.390625 C 15.578125 -18.046875 16.34375 -17.550781 16.9375 -16.90625 C 17.539062 -16.257812 17.957031 -15.492188 18.1875 -14.609375 C 18.425781 -13.722656 18.457031 -12.726562 18.28125 -11.625 L 17.734375 -8.25 L 5.875 -8.25 L 5.671875 -7.03125 C 5.472656 -5.769531 5.660156 -4.789062 6.234375 -4.09375 C 6.804688 -3.394531 7.703125 -3.046875 8.921875 -3.046875 C 9.835938 -3.046875 10.644531 -3.191406 11.34375 -3.484375 C 12.039062 -3.773438 12.5625 -4.191406 12.90625 -4.734375 L 17.0625 -4.734375 C 16.75 -3.960938 16.300781 -3.265625 15.71875 -2.640625 C 15.144531 -2.023438 14.472656 -1.5 13.703125 -1.0625 C 12.941406 -0.625 12.109375 -0.28125 11.203125 -0.03125 C 10.304688 0.21875 9.363281 0.34375 8.375 0.34375 Z M 14.09375 -11.046875 L 14.1875 -11.625 C 14.382812 -12.863281 14.191406 -13.828125 13.609375 -14.515625 C 13.023438 -15.203125 12.125 -15.546875 10.90625 -15.546875 C 9.695312 -15.546875 8.691406 -15.203125 7.890625 -14.515625 C 7.085938 -13.828125 6.597656 -12.875 6.421875 -11.65625 L 6.3125 -11.046875 Z M 14.09375 -11.046875 "/></g></g></g></svg>