<svg xmlns="http://www.w3.org/2000/svg" xmlns:xlink="http://www.w3.org/1999/xlink" width="500" zoomAndPan="magnify" viewBox="0 0 375 374.999991" height="500" preserveAspectRatio="xMidYMid meet" version="1.0"><defs><g/><clipPath id="f617f36d0a"><path d="M 0 0 L 375 0 L 375 187.5 L 0 187.5 Z M 0 0 " clip-rule="nonzero"/></clipPath><clipPath id="62eb2e4793"><path d="M 0 187.5 L 375 187.5 L 375 375 L 0 375 Z M 0 187.5 " clip-rule="nonzero"/></clipPath><clipPath id="8afc1d76fb"><path d="M 37.5 37.5 L 337.5 37.5 L 337.5 337.5 L 37.5 337.5 Z M 37.5 37.5 " clip-rule="nonzero"/></clipPath><clipPath id="2c0be4b76c"><path d="M 187.5 37.5 C 104.65625 37.5 37.5 104.65625 37.5 187.5 C 37.5 270.34375 104.65625 337.5 187.5 337.5 C 270.34375 337.5 337.5 270.34375 337.5 187.5 C 337.5 104.65625 270.34375 37.5 187.5 37.5 Z M 187.5 37.5 " clip-rule="nonzero"/></clipPath><clipPath id="0c49be0abe"><path d="M 46.75 46.75 L 328.25 46.75 L 328.25 328.25 L 46.75 328.25 Z M 46.75 46.75 " clip-rule="nonzero"/></clipPath><clipPath id="6539fb7468"><path d="M 187.5 46.75 C 109.765625 46.75 46.75 109.765625 46.75 187.5 C 46.75 265.234375 109.765625 328.25 187.5 328.25 C 265.234375 328.25 328.25 265.234375 328.25 187.5 C 328.25 109.765625 265.234375 46.75 187.5 46.75 Z M 187.5 46.75 " clip-rule="nonzero"/></clipPath><clipPath id="76d1b77524"><path d="M 98.4375 98.4375 L 276.5625 98.4375 L 276.5625 276.5625 L 98.4375 276.5625 Z M 98.4375 98.4375 " clip-rule="nonzero"/></clipPath><clipPath id="912e4d23c1"><path d="M 187.5 98.4375 C 138.3125 98.4375 98.4375 138.3125 98.4375 187.5 C 98.4375 236.6875 138.3125 276.5625 187.5 276.5625 C 236.6875 276.5625 276.5625 236.6875 276.5625 187.5 C 276.5625 138.3125 236.6875 98.4375 187.5 98.4375 Z M 187.5 98.4375 " clip-rule="nonzero"/></clipPath><clipPath id="fd4ae9c161"><path d="M 103.214844 103.214844 L 271.964844 103.214844 L 271.964844 271.964844 L 103.214844 271.964844 Z M 103.214844 103.214844 " clip-rule="nonzero"/></clipPath><clipPath id="8c70b9be40"><path d="M 288 172 L 319.3125 172 L 319.3125 203 L 288 203 Z M 288 172 " clip-rule="nonzero"/></clipPath><clipPath id="4ee8448e9d"><path d="M 57 172 L 87.960938 172 L 87.960938 203 L 57 203 Z M 57 172 " clip-rule="nonzero"/></clipPath><clipPath id="8241c2d843"><path d="M 201 137 L 241 137 L 241 164 L 201 164 Z M 201 137 " clip-rule="nonzero"/></clipPath><clipPath id="4350d452ff"><path d="M 198.664062 144.550781 L 237.335938 130.195312 L 245.425781 151.992188 L 206.753906 166.347656 Z M 198.664062 144.550781 " clip-rule="nonzero"/></clipPath><clipPath id="9649539d2c"><path d="M 198.664062 144.550781 L 237.335938 130.195312 L 245.425781 151.992188 L 206.753906 166.347656 Z M 198.664062 144.550781 " clip-rule="nonzero"/></clipPath><clipPath id="8469864fd9"><path d="M 217 147 L 221 147 L 221 153 L 217 153 Z M 217 147 " clip-rule="nonzero"/></clipPath><clipPath id="d270de90ab"><path d="M 198.664062 144.550781 L 237.335938 130.195312 L 245.425781 151.992188 L 206.753906 166.347656 Z M 198.664062 144.550781 " clip-rule="nonzero"/></clipPath><clipPath id="f26d7016f9"><path d="M 198.664062 144.550781 L 237.335938 130.195312 L 245.425781 151.992188 L 206.753906 166.347656 Z M 198.664062 144.550781 " clip-rule="nonzero"/></clipPath><clipPath id="b0a77d18c5"><path d="M 225 144 L 228 144 L 228 151 L 225 151 Z M 225 144 " clip-rule="nonzero"/></clipPath><clipPath id="994a40ca9d"><path d="M 198.664062 144.550781 L 237.335938 130.195312 L 245.425781 151.992188 L 206.753906 166.347656 Z M 198.664062 144.550781 " clip-rule="nonzero"/></clipPath><clipPath id="b74fbeadcf"><path d="M 198.664062 144.550781 L 237.335938 130.195312 L 245.425781 151.992188 L 206.753906 166.347656 Z M 198.664062 144.550781 " clip-rule="nonzero"/></clipPath><clipPath id="27957077db"><path d="M 232 146 L 235 146 L 235 150 L 232 150 Z M 232 146 " clip-rule="nonzero"/></clipPath><clipPath id="e3e202dca1"><path d="M 198.664062 144.550781 L 237.335938 130.195312 L 245.425781 151.992188 L 206.753906 166.347656 Z M 198.664062 144.550781 " clip-rule="nonzero"/></clipPath><clipPath id="4f3da9ff63"><path d="M 198.664062 144.550781 L 237.335938 130.195312 L 245.425781 151.992188 L 206.753906 166.347656 Z M 198.664062 144.550781 " clip-rule="nonzero"/></clipPath><clipPath id="6bba4993ea"><path d="M 211 154 L 215 154 L 215 157 L 211 157 Z M 211 154 " clip-rule="nonzero"/></clipPath><clipPath id="85969d71b7"><path d="M 198.664062 144.550781 L 237.335938 130.195312 L 245.425781 151.992188 L 206.753906 166.347656 Z M 198.664062 144.550781 " clip-rule="nonzero"/></clipPath><clipPath id="7554082642"><path d="M 198.664062 144.550781 L 237.335938 130.195312 L 245.425781 151.992188 L 206.753906 166.347656 Z M 198.664062 144.550781 " clip-rule="nonzero"/></clipPath></defs><rect x="-37.5" width="450" fill="#ffffff" y="-37.499999" height="449.999989" fill-opacity="1"/><rect x="-37.5" width="450" fill="#ffffff" y="-37.499999" height="449.999989" fill-opacity="1"/><g clip-path="url(#f617f36d0a)"><path fill="#000000" d="M 0 0 L 375 0 L 375 187.5 L 0 187.5 Z M 0 0 " fill-opacity="1" fill-rule="nonzero"/></g><g clip-path="url(#62eb2e4793)"><path fill="#960013" d="M 0 187.5 L 375 187.5 L 375 375 L 0 375 Z M 0 187.5 " fill-opacity="1" fill-rule="nonzero"/></g><g clip-path="url(#8afc1d76fb)"><g clip-path="url(#2c0be4b76c)"><path fill="#af8f44" d="M 37.5 37.5 L 337.5 37.5 L 337.5 337.5 L 37.5 337.5 Z M 37.5 37.5 " fill-opacity="1" fill-rule="nonzero"/><path stroke-linecap="butt" transform="matrix(0.75, 0, 0, 0.75, 37.500002, 37.499998)" fill="none" stroke-linejoin="miter" d="M 200.00001 0.00000328333 C 89.54167 0.00000328333 -0.00000271667 89.541676 -0.00000271667 200.000016 C -0.00000271667 310.458357 89.54167 400.00003 200.00001 400.00003 C 310.458351 400.00003 400.000024 310.458357 400.000024 200.000016 C 400.000024 89.541676 310.458351 0.00000328333 200.00001 0.00000328333 Z M 200.00001 0.00000328333 " stroke="#000000" stroke-width="12" stroke-opacity="1" stroke-miterlimit="4"/></g></g><g clip-path="url(#0c49be0abe)"><g clip-path="url(#6539fb7468)"><path fill="#960013" d="M 46.75 46.75 L 328.25 46.75 L 328.25 328.25 L 46.75 328.25 Z M 46.75 46.75 " fill-opacity="1" fill-rule="nonzero"/></g></g><g clip-path="url(#76d1b77524)"><g clip-path="url(#912e4d23c1)"><path fill="#ffffff" d="M 98.4375 98.4375 L 276.5625 98.4375 L 276.5625 276.5625 L 98.4375 276.5625 Z M 98.4375 98.4375 " fill-opacity="1" fill-rule="nonzero"/></g></g><g clip-path="url(#fd4ae9c161)"><path fill="#af8f44" d="M 187.496094 103.214844 C 165.007812 103.214844 144.570312 112.03125 129.449219 126.382812 C 125.898438 118.457031 127.289062 110.636719 127.308594 110.617188 C 109.871094 147.777344 162.183594 161.589844 198.296875 176.433594 C 206.605469 179.847656 215.003906 185.25 220.59375 194.394531 C 224.339844 200.527344 226.273438 206.957031 225.527344 213.628906 C 224.480469 222.878906 219.339844 231.902344 212.214844 237.617188 C 208.890625 240.28125 205.054688 241.917969 201.640625 244.304688 C 201.640625 244.304688 220.71875 230.910156 214.933594 217.738281 C 210.230469 207.042969 183.785156 211.5 168.230469 213.59375 C 152.65625 215.664062 147.671875 207.773438 147.671875 207.773438 C 147.671875 207.773438 151 210.890625 179.847656 206.9375 C 208.695312 203 216.589844 214.621094 216.589844 214.621094 C 207.460938 200.71875 187.007812 202.894531 164.796875 204.96875 C 142.585938 207.042969 134.796875 193.855469 134.796875 193.855469 C 144.328125 198.855469 155.128906 197.808594 181.902344 198.644531 C 208.679688 199.480469 213.871094 207.984375 213.871094 207.984375 C 209.097656 196.972656 178.367188 194.082031 150.964844 192.828125 C 123.5625 191.574219 125.21875 174.34375 125.21875 174.34375 C 129.574219 182.652344 137.046875 183.890625 173.386719 189.289062 C 206.570312 194.21875 210.648438 200.28125 211.117188 201.292969 C 207.320312 191.222656 173.875 187.183594 143.699219 179.324219 C 113.386719 171.433594 117.742188 146.730469 117.742188 146.730469 C 120.652344 159.1875 122.515625 166.976562 157.394531 175.074219 C 192.269531 183.175781 202.234375 189.394531 202.234375 189.394531 C 192.582031 180.371094 133.109375 169.988281 123.910156 148.179688 C 122.082031 143.859375 121.125 139.761719 120.738281 135.984375 C 109.765625 150.25 103.214844 168.105469 103.214844 187.496094 C 103.214844 234.042969 140.949219 271.777344 187.496094 271.777344 C 187.898438 271.777344 188.296875 271.777344 188.699219 271.761719 C 183.246094 270.957031 179.203125 268.816406 179.203125 268.816406 C 179.203125 268.816406 186.050781 270.785156 195.875 267.054688 C 207.441406 262.648438 219.898438 244.324219 219.898438 244.324219 C 219.898438 244.324219 207.023438 260.316406 192.914062 265.089844 C 184.117188 268.066406 170.285156 265.089844 170.285156 265.089844 C 170.285156 265.089844 176.609375 264.914062 183.679688 263.121094 C 195.894531 260 214.933594 243.710938 214.933594 243.710938 C 214.933594 243.710938 196.449219 256.167969 183.785156 260.105469 C 170.824219 264.148438 159.710938 260.941406 159.710938 260.941406 C 159.710938 260.941406 209.96875 251.464844 222.6875 228.644531 C 232.945312 210.246094 223.835938 194.082031 223.835938 194.082031 C 223.835938 194.082031 230.265625 199.167969 231.726562 210.179688 C 234.585938 231.796875 218.851562 253.050781 207.652344 265.507812 C 205.195312 268.222656 202.460938 269.914062 199.691406 270.90625 C 240.457031 265 271.777344 229.914062 271.777344 187.511719 C 271.761719 140.949219 234.027344 103.214844 187.496094 103.214844 Z M 240.890625 175.390625 L 239.445312 175.179688 L 240.839844 175.789062 C 239.007812 181.765625 240.140625 195.300781 240.542969 199.34375 C 249.007812 224.027344 230.125 244.324219 230.125 244.324219 C 230.125 244.324219 246.988281 220.195312 233.992188 195.492188 C 224.027344 176.539062 198.835938 171.554688 187.496094 168.507812 C 187.496094 168.507812 202.757812 169.972656 217.023438 176.292969 C 222.617188 168.578125 229.984375 166.574219 229.984375 166.574219 C 221.882812 165.910156 220.335938 159.1875 220.335938 159.1875 C 221.78125 164.394531 237.320312 160.859375 241.585938 162.984375 C 245.839844 165.109375 246.570312 169.554688 246.570312 169.554688 C 242.527344 166.765625 238.679688 168.246094 240.160156 169.640625 C 241.640625 171.035156 248.15625 168.925781 252.285156 170.285156 C 255.261719 171.261719 255.054688 174.082031 255.054688 174.082031 C 253.328125 169.78125 240.890625 175.390625 240.890625 175.390625 Z M 240.890625 175.390625 " fill-opacity="1" fill-rule="nonzero"/></g><g clip-path="url(#8c70b9be40)"><path fill="#ffffff" d="M 316.765625 194.414062 C 317.855469 192.457031 318.480469 190.269531 318.582031 188 C 318.253906 189.640625 317.617188 191.644531 317.304688 192.355469 C 317.316406 192.386719 317.320312 192.417969 317.316406 192.453125 C 317.246094 192.949219 317.113281 193.574219 316.765625 194.414062 Z M 313.386719 192.328125 C 311.34375 194.191406 308.789062 195.984375 307.78125 196.265625 C 307.644531 198.023438 307.40625 199.304688 307.058594 200.167969 C 307.828125 200.242188 309.546875 200.332031 311.339844 199.859375 C 311.371094 199.851562 311.402344 199.851562 311.429688 199.859375 C 312.550781 199.203125 313.582031 198.394531 314.492188 197.457031 C 314.488281 197.40625 314.496094 197.355469 314.527344 197.3125 C 316.160156 194.941406 316.609375 193.558594 316.773438 192.625 C 315.523438 192.785156 315.210938 192.714844 314.523438 192.554688 C 314.242188 192.492188 313.898438 192.410156 313.386719 192.328125 Z M 300.242188 200.730469 C 299.980469 200.910156 299.742188 201.039062 299.503906 201.125 C 302.917969 202.238281 306.589844 202.066406 309.851562 200.65625 C 308.367188 200.824219 307.132812 200.699219 306.71875 200.640625 C 306.6875 200.636719 306.65625 200.628906 306.632812 200.609375 C 304.902344 200.855469 302.445312 201.058594 300.242188 200.730469 Z M 318.539062 186.058594 C 318.242188 182.605469 316.746094 179.394531 314.292969 176.941406 C 315.113281 178.269531 316.035156 179.777344 316.238281 182.359375 C 317.625 183.585938 318.191406 185.121094 318.5 185.953125 C 318.511719 185.988281 318.527344 186.023438 318.539062 186.058594 Z M 301.453125 187.066406 C 301.601562 189.78125 301.722656 191.347656 302.128906 193.640625 L 307.605469 195.785156 C 308.453125 195.59375 311.0625 193.753906 313.027344 191.960938 C 312.980469 191.566406 312.953125 190.914062 312.925781 190.164062 C 312.867188 188.703125 312.792969 186.714844 312.496094 185.792969 C 311.277344 184.585938 308.964844 183.542969 306.457031 183.0625 Z M 292.300781 193.761719 C 291.992188 193.972656 291.726562 194.078125 291.171875 194.230469 C 291.988281 195.714844 293.050781 197.039062 294.332031 198.167969 C 295.570312 199.261719 296.972656 200.128906 298.492188 200.753906 C 298.976562 200.78125 299.355469 200.683594 299.8125 200.402344 C 298.902344 199.300781 298.082031 198.148438 297.367188 196.96875 C 295.96875 196.824219 292.8125 194.195312 292.300781 193.761719 Z M 308.472656 174.640625 C 308.460938 174.644531 308.449219 174.648438 308.4375 174.652344 C 308.347656 174.671875 308.261719 174.6875 308.175781 174.703125 C 307.386719 174.847656 306.703125 174.972656 304.769531 177.167969 C 304.738281 177.199219 304.707031 177.234375 304.675781 177.273438 C 305.878906 179.492188 306.371094 181.492188 306.617188 182.574219 C 309.113281 183.058594 311.425781 184.097656 312.726562 185.308594 C 313.117188 184.941406 313.457031 184.566406 313.789062 184.203125 C 314.347656 183.589844 314.917969 182.960938 315.726562 182.367188 C 315.523438 179.902344 314.628906 178.453125 313.835938 177.171875 C 313.835938 177.171875 313.714844 176.972656 313.664062 176.894531 C 313.652344 176.878906 313.644531 176.859375 313.640625 176.839844 C 311.867188 175.632812 309.804688 174.875 308.472656 174.640625 Z M 295.898438 183.863281 C 294.410156 184.5625 293.449219 185.246094 292.605469 186.207031 C 292.335938 186.507812 292.074219 186.84375 291.804688 187.234375 C 291.800781 187.242188 291.796875 187.246094 291.789062 187.253906 C 291.78125 187.261719 291.777344 187.269531 291.769531 187.277344 C 291.351562 188.4375 291.816406 190.304688 292.191406 191.8125 C 292.332031 192.386719 292.457031 192.890625 292.515625 193.285156 C 292.535156 193.292969 292.550781 193.304688 292.566406 193.316406 C 293.953125 194.527344 296.796875 196.613281 297.535156 196.460938 C 297.578125 196.449219 297.617188 196.453125 297.65625 196.46875 L 301.617188 193.683594 C 301.210938 191.394531 301.09375 189.824219 300.945312 187.125 C 299.476562 186.476562 297.589844 185.097656 296.203125 184.085938 C 296.097656 184.007812 295.996094 183.9375 295.898438 183.863281 Z M 296.515625 174.886719 C 296.445312 174.949219 296.386719 175.003906 296.328125 175.070312 C 296.257812 175.152344 296.164062 175.277344 296.042969 175.5625 L 296.058594 175.574219 C 296.617188 175.949219 297.25 176.375 298 177.269531 C 300.03125 176.671875 302.292969 176.777344 304.257812 176.972656 C 304.300781 176.925781 304.339844 176.878906 304.382812 176.832031 C 306.332031 174.621094 307.152344 174.375 307.953125 174.222656 C 307.441406 173.679688 306.882812 173.410156 306.292969 173.128906 C 306.15625 173.0625 306.019531 172.996094 305.882812 172.925781 C 305.8125 172.890625 305.773438 172.820312 305.773438 172.746094 C 303.542969 172.457031 301.253906 172.6875 299.136719 173.410156 C 298.355469 173.804688 297.640625 174.222656 297.117188 174.53125 C 296.894531 174.660156 296.703125 174.769531 296.554688 174.851562 Z M 295.582031 175.867188 C 295.152344 175.664062 293.804688 176.839844 293.222656 177.34375 C 293.085938 177.464844 292.960938 177.574219 292.867188 177.652344 C 291.191406 179.589844 290.074219 181.917969 289.601562 184.421875 C 289.621094 184.40625 289.644531 184.386719 289.664062 184.371094 C 289.714844 184.328125 289.785156 184.316406 289.847656 184.335938 C 289.914062 184.355469 289.964844 184.40625 289.980469 184.46875 C 290.320312 185.625 290.988281 186.253906 291.433594 186.671875 C 291.464844 186.699219 291.492188 186.726562 291.519531 186.75 C 291.753906 186.421875 291.988281 186.132812 292.222656 185.863281 C 293.109375 184.855469 294.109375 184.140625 295.652344 183.414062 C 295.644531 182.164062 296.953125 178.890625 297.578125 177.5625 C 296.882812 176.746094 296.292969 176.347656 295.773438 175.996094 L 295.652344 175.917969 C 295.644531 175.914062 295.640625 175.90625 295.632812 175.902344 C 295.628906 175.902344 295.582031 175.867188 295.582031 175.867188 Z M 292.59375 177.199219 C 293.324219 176.375 294.144531 175.628906 295.03125 174.984375 C 295.035156 174.980469 295.039062 174.976562 295.039062 174.976562 C 295.160156 174.890625 295.289062 174.796875 295.429688 174.703125 C 296.1875 174.1875 297.003906 173.742188 297.855469 173.371094 C 298.382812 173.132812 298.839844 172.960938 299.167969 172.875 C 303.773438 171.371094 308.859375 172.164062 312.78125 175 C 313.386719 175.421875 313.917969 175.859375 314.273438 176.226562 C 317.171875 178.933594 318.878906 182.609375 319.074219 186.578125 L 319.078125 186.589844 C 319.085938 186.625 319.085938 186.65625 319.078125 186.6875 C 319.246094 190.59375 317.921875 194.347656 315.351562 197.265625 C 311.152344 202.027344 304.351562 203.632812 298.417969 201.261719 C 298.273438 201.199219 298.105469 201.140625 297.902344 201.042969 C 296.484375 200.414062 295.171875 199.574219 294 198.542969 C 287.726562 193.007812 287.097656 183.4375 292.59375 177.199219 " fill-opacity="1" fill-rule="nonzero"/></g><g clip-path="url(#4ee8448e9d)"><path fill="#ffffff" d="M 85.410156 194.414062 C 86.503906 192.457031 87.128906 190.269531 87.226562 188 C 86.902344 189.640625 86.265625 191.644531 85.953125 192.355469 C 85.964844 192.386719 85.96875 192.417969 85.964844 192.453125 C 85.894531 192.949219 85.761719 193.574219 85.410156 194.414062 Z M 82.035156 192.328125 C 79.992188 194.191406 77.4375 195.984375 76.429688 196.265625 C 76.289062 198.023438 76.054688 199.304688 75.707031 200.167969 C 76.476562 200.242188 78.195312 200.332031 79.988281 199.859375 C 80.019531 199.851562 80.046875 199.851562 80.078125 199.859375 C 81.199219 199.203125 82.230469 198.394531 83.140625 197.457031 C 83.132812 197.40625 83.144531 197.355469 83.175781 197.3125 C 84.804688 194.941406 85.257812 193.558594 85.417969 192.625 C 84.171875 192.785156 83.859375 192.714844 83.171875 192.554688 C 82.890625 192.492188 82.542969 192.410156 82.035156 192.328125 Z M 68.890625 200.730469 C 68.628906 200.910156 68.386719 201.039062 68.152344 201.125 C 71.566406 202.238281 75.238281 202.066406 78.5 200.65625 C 77.011719 200.824219 75.777344 200.699219 75.363281 200.640625 C 75.332031 200.636719 75.304688 200.628906 75.28125 200.609375 C 73.550781 200.855469 71.09375 201.058594 68.890625 200.730469 Z M 87.1875 186.058594 C 86.886719 182.605469 85.394531 179.394531 82.941406 176.941406 C 83.761719 178.269531 84.679688 179.777344 84.886719 182.359375 C 86.269531 183.585938 86.835938 185.121094 87.144531 185.953125 C 87.160156 185.988281 87.171875 186.023438 87.1875 186.058594 Z M 70.101562 187.066406 C 70.25 189.78125 70.367188 191.347656 70.777344 193.640625 L 76.25 195.785156 C 77.101562 195.59375 79.710938 193.753906 81.675781 191.960938 C 81.628906 191.566406 81.601562 190.914062 81.574219 190.164062 C 81.515625 188.703125 81.4375 186.714844 81.140625 185.792969 C 79.925781 184.585938 77.613281 183.542969 75.105469 183.0625 Z M 60.949219 193.761719 C 60.636719 193.972656 60.371094 194.078125 59.820312 194.230469 C 60.636719 195.714844 61.699219 197.039062 62.980469 198.167969 C 64.21875 199.261719 65.617188 200.128906 67.140625 200.753906 C 67.625 200.78125 68 200.683594 68.457031 200.402344 C 67.550781 199.300781 66.730469 198.148438 66.015625 196.96875 C 64.617188 196.824219 61.457031 194.195312 60.949219 193.761719 Z M 77.117188 174.640625 C 77.105469 174.644531 77.09375 174.648438 77.082031 174.652344 C 76.992188 174.671875 76.90625 174.6875 76.820312 174.703125 C 76.03125 174.847656 75.351562 174.972656 73.417969 177.167969 C 73.386719 177.199219 73.355469 177.234375 73.324219 177.273438 C 74.527344 179.492188 75.019531 181.492188 75.261719 182.574219 C 77.757812 183.058594 80.070312 184.097656 81.375 185.308594 C 81.765625 184.941406 82.105469 184.566406 82.4375 184.203125 C 82.992188 183.589844 83.566406 182.960938 84.371094 182.367188 C 84.171875 179.902344 83.273438 178.453125 82.484375 177.171875 C 82.484375 177.171875 82.359375 176.972656 82.3125 176.894531 C 82.300781 176.878906 82.292969 176.859375 82.289062 176.839844 C 80.511719 175.632812 78.449219 174.875 77.117188 174.640625 Z M 64.546875 183.863281 C 63.054688 184.5625 62.097656 185.246094 61.253906 186.207031 C 60.984375 186.507812 60.722656 186.84375 60.453125 187.234375 C 60.449219 187.242188 60.441406 187.246094 60.4375 187.253906 C 60.429688 187.261719 60.421875 187.269531 60.414062 187.277344 C 59.996094 188.4375 60.460938 190.304688 60.835938 191.8125 C 60.980469 192.386719 61.105469 192.890625 61.164062 193.285156 C 61.183594 193.292969 61.199219 193.304688 61.214844 193.316406 C 62.601562 194.527344 65.445312 196.613281 66.183594 196.460938 C 66.222656 196.449219 66.265625 196.453125 66.300781 196.46875 L 70.265625 193.683594 C 69.859375 191.394531 69.738281 189.824219 69.589844 187.125 C 68.125 186.476562 66.238281 185.097656 64.851562 184.085938 C 64.746094 184.007812 64.644531 183.9375 64.546875 183.863281 Z M 65.164062 174.886719 C 65.09375 174.949219 65.03125 175.003906 64.976562 175.070312 C 64.902344 175.152344 64.8125 175.277344 64.691406 175.5625 L 64.703125 175.574219 C 65.265625 175.949219 65.894531 176.375 66.648438 177.269531 C 68.679688 176.671875 70.9375 176.777344 72.902344 176.972656 C 72.945312 176.925781 72.988281 176.878906 73.027344 176.832031 C 74.980469 174.621094 75.796875 174.375 76.597656 174.222656 C 76.085938 173.679688 75.527344 173.410156 74.941406 173.128906 C 74.804688 173.0625 74.667969 172.996094 74.53125 172.925781 C 74.460938 172.890625 74.421875 172.820312 74.421875 172.746094 C 72.191406 172.457031 69.902344 172.6875 67.785156 173.410156 C 67 173.804688 66.285156 174.222656 65.765625 174.53125 C 65.542969 174.660156 65.351562 174.769531 65.203125 174.851562 Z M 64.226562 175.867188 C 63.800781 175.664062 62.449219 176.839844 61.871094 177.34375 C 61.730469 177.464844 61.609375 177.574219 61.511719 177.652344 C 59.839844 179.589844 58.71875 181.917969 58.25 184.421875 C 58.269531 184.40625 58.289062 184.386719 58.308594 184.371094 C 58.363281 184.328125 58.433594 184.316406 58.496094 184.335938 C 58.558594 184.355469 58.609375 184.40625 58.628906 184.46875 C 58.964844 185.625 59.636719 186.253906 60.082031 186.671875 C 60.109375 186.699219 60.140625 186.726562 60.167969 186.75 C 60.402344 186.421875 60.632812 186.132812 60.867188 185.863281 C 61.757812 184.855469 62.757812 184.140625 64.296875 183.414062 C 64.292969 182.164062 65.601562 178.890625 66.226562 177.5625 C 65.53125 176.746094 64.941406 176.347656 64.417969 175.996094 L 64.300781 175.917969 C 64.292969 175.914062 64.285156 175.90625 64.28125 175.902344 C 64.277344 175.902344 64.226562 175.867188 64.226562 175.867188 Z M 61.242188 177.199219 C 61.972656 176.375 62.792969 175.628906 63.679688 174.984375 C 63.683594 174.980469 63.6875 174.976562 63.6875 174.976562 C 63.804688 174.890625 63.9375 174.796875 64.078125 174.703125 C 64.835938 174.1875 65.652344 173.742188 66.503906 173.371094 C 67.03125 173.132812 67.484375 172.960938 67.816406 172.875 C 72.417969 171.371094 77.507812 172.164062 81.429688 175 C 82.035156 175.421875 82.566406 175.859375 82.921875 176.226562 C 85.820312 178.933594 87.523438 182.609375 87.722656 186.578125 L 87.726562 186.589844 C 87.734375 186.625 87.734375 186.65625 87.726562 186.6875 C 87.894531 190.59375 86.570312 194.347656 83.996094 197.265625 C 79.796875 202.027344 72.996094 203.632812 67.066406 201.261719 C 66.921875 201.199219 66.75 201.140625 66.546875 201.042969 C 65.132812 200.414062 63.820312 199.574219 62.648438 198.542969 C 56.375 193.007812 55.742188 183.4375 61.242188 177.199219 " fill-opacity="1" fill-rule="nonzero"/></g><g clip-path="url(#8241c2d843)"><g clip-path="url(#4350d452ff)"><g clip-path="url(#9649539d2c)"><path fill="#ffffff" d="M 240.140625 137.757812 L 239.449219 139.140625 L 239.859375 139.757812 C 236.867188 147.273438 234.503906 151.179688 232.996094 150.125 C 231.214844 147.722656 230.617188 144.914062 230.867188 141.816406 L 231.730469 140.9375 L 231.074219 138.546875 L 230.089844 140.824219 L 230.839844 141.828125 C 230.335938 144.550781 229.644531 147.054688 228.546875 149.101562 C 227.394531 151.257812 226.949219 151.664062 224.949219 149.6875 C 223.46875 148.226562 222.308594 145.960938 220.988281 144.09375 L 221.785156 141.929688 L 218 137.375 L 218.105469 143.296875 L 220.121094 144.414062 C 220.335938 146.691406 220.9375 149.167969 220.769531 151.242188 C 220.546875 154.042969 219.941406 154.023438 217.660156 153.144531 C 215.492188 152.304688 213.332031 150.863281 211.179688 149.128906 L 211.089844 147.878906 L 208.859375 146.792969 L 209.921875 149.035156 L 211.148438 149.136719 C 213.359375 151.320312 214.738281 153.839844 214.957031 156.820312 C 214.503906 158.605469 210.164062 157.1875 202.992188 153.441406 L 202.898438 152.707031 L 201.472656 152.113281 L 202.210938 153.46875 L 202.933594 153.488281 L 214.847656 163.398438 L 210.351562 158.101562 C 210.410156 158.125 210.46875 158.144531 210.527344 158.164062 C 211.996094 158.648438 214.527344 159.382812 215.707031 157.949219 C 215.90625 157.703125 216.046875 157.421875 216.121094 157.117188 L 216.171875 156.929688 L 216.15625 156.734375 C 216.070312 155.578125 215.828125 154.484375 215.449219 153.457031 C 216.03125 153.761719 216.625 154.03125 217.226562 154.265625 C 218.242188 154.65625 219.542969 155.1875 220.585938 154.613281 C 221.71875 153.996094 221.878906 152.484375 221.96875 151.335938 C 222.070312 150.0625 221.925781 148.738281 221.742188 147.457031 C 222.445312 148.546875 223.195312 149.644531 224.105469 150.542969 C 224.925781 151.355469 226.03125 152.394531 227.289062 152.125 C 228.457031 151.878906 229.09375 150.628906 229.609375 149.667969 C 229.914062 149.097656 230.1875 148.503906 230.429688 147.898438 C 230.8125 148.921875 231.339844 149.910156 232.03125 150.839844 L 232.148438 151 L 232.308594 151.109375 C 232.566406 151.289062 232.851562 151.414062 233.164062 151.46875 C 234.992188 151.785156 236.433594 149.578125 237.226562 148.25 C 237.261719 148.199219 237.292969 148.144531 237.324219 148.089844 L 237.476562 154.484375 L 239.933594 139.753906 L 240.464844 139.269531 Z M 240.140625 137.757812 " fill-opacity="1" fill-rule="evenodd"/></g></g></g><g clip-path="url(#8469864fd9)"><g clip-path="url(#d270de90ab)"><g clip-path="url(#f26d7016f9)"><path fill="#ffffff" d="M 218.746094 151.019531 C 219.09375 151.5625 219.460938 152.109375 219.871094 152.605469 C 219.941406 152.382812 220.011719 152.027344 220.066406 151.453125 C 219.214844 150.257812 218.457031 148.820312 217.542969 147.777344 C 217.527344 149.277344 217.953125 151.007812 218.050781 152.566406 C 218.300781 152.660156 218.625 152.777344 218.921875 152.867188 C 218.90625 152.25 218.832031 151.628906 218.746094 151.019531 Z M 218.746094 151.019531 " fill-opacity="1" fill-rule="evenodd"/></g></g></g><g clip-path="url(#b0a77d18c5)"><g clip-path="url(#994a40ca9d)"><g clip-path="url(#b74fbeadcf)"><path fill="#ffffff" d="M 226.328125 148.203125 C 226.664062 148.722656 227.015625 149.246094 227.40625 149.726562 C 227.574219 149.464844 227.742188 149.164062 227.867188 148.929688 C 226.921875 147.683594 226.117188 146.089844 225.125 144.960938 C 225.113281 146.34375 225.472656 147.921875 225.609375 149.378906 C 226.023438 149.777344 226.3125 150.003906 226.511719 150.128906 C 226.496094 149.488281 226.417969 148.839844 226.328125 148.203125 Z M 226.328125 148.203125 " fill-opacity="1" fill-rule="evenodd"/></g></g></g><g clip-path="url(#27957077db)"><g clip-path="url(#e3e202dca1)"><g clip-path="url(#4f3da9ff63)"><path fill="#ffffff" d="M 234.292969 149.113281 C 234.097656 148.160156 233.980469 147.128906 233.691406 146.273438 C 233.367188 147.03125 233.179688 147.953125 232.945312 148.820312 C 233.085938 149.054688 233.234375 149.28125 233.390625 149.503906 C 233.46875 149.257812 233.535156 149.007812 233.597656 148.757812 C 233.644531 149.015625 233.695312 149.277344 233.757812 149.539062 C 233.902344 149.460938 234.078125 149.332031 234.292969 149.113281 Z M 234.292969 149.113281 " fill-opacity="1" fill-rule="evenodd"/></g></g></g><g clip-path="url(#6bba4993ea)"><g clip-path="url(#85969d71b7)"><g clip-path="url(#7554082642)"><path fill="#ffffff" d="M 214.144531 155.800781 C 213.402344 155.296875 212.65625 154.722656 211.917969 154.355469 C 212.253906 155.191406 212.839844 156.050781 213.3125 156.902344 C 213.617188 156.925781 213.835938 156.910156 213.996094 156.871094 C 213.871094 156.636719 213.742188 156.40625 213.605469 156.179688 C 213.820312 156.324219 214.035156 156.472656 214.253906 156.609375 C 214.226562 156.335938 214.191406 156.066406 214.144531 155.800781 Z M 214.144531 155.800781 " fill-opacity="1" fill-rule="evenodd"/></g></g></g><g fill="#ffffff" fill-opacity="1"><g transform="translate(96.54095, 131.000834)"><g><path d="M 4.046875 -5.53125 C 3.378906 -4.539062 2.59375 -3.6875 1.6875 -2.96875 C 0.78125 -2.25 -0.0820312 -1.773438 -0.90625 -1.546875 L -2.171875 -3.625 C -1.410156 -3.863281 -0.644531 -4.269531 0.125 -4.84375 C 0.90625 -5.425781 1.554688 -6.101562 2.078125 -6.875 C 2.722656 -7.8125 3.050781 -8.613281 3.0625 -9.28125 C 3.082031 -9.957031 2.84375 -10.46875 2.34375 -10.8125 C 1.988281 -11.0625 1.601562 -11.132812 1.1875 -11.03125 C 0.769531 -10.9375 0.363281 -10.734375 -0.03125 -10.421875 C -0.4375 -10.109375 -0.96875 -9.664062 -1.625 -9.09375 C -2.507812 -8.289062 -3.269531 -7.664062 -3.90625 -7.21875 C -4.550781 -6.769531 -5.265625 -6.5 -6.046875 -6.40625 C -6.828125 -6.3125 -7.632812 -6.550781 -8.46875 -7.125 C -9.175781 -7.601562 -9.6875 -8.226562 -10 -9 C -10.3125 -9.78125 -10.375 -10.671875 -10.1875 -11.671875 C -10.007812 -12.671875 -9.539062 -13.726562 -8.78125 -14.84375 C -8.25 -15.625 -7.628906 -16.320312 -6.921875 -16.9375 C -6.210938 -17.550781 -5.488281 -18.007812 -4.75 -18.3125 L -3.4375 -16.3125 C -4.132812 -15.976562 -4.773438 -15.566406 -5.359375 -15.078125 C -5.953125 -14.585938 -6.441406 -14.0625 -6.828125 -13.5 C -7.460938 -12.570312 -7.773438 -11.769531 -7.765625 -11.09375 C -7.765625 -10.414062 -7.503906 -9.898438 -6.984375 -9.546875 C -6.628906 -9.296875 -6.242188 -9.222656 -5.828125 -9.328125 C -5.410156 -9.429688 -5 -9.632812 -4.59375 -9.9375 C -4.195312 -10.25 -3.675781 -10.691406 -3.03125 -11.265625 C -2.164062 -12.066406 -1.410156 -12.6875 -0.765625 -13.125 C -0.117188 -13.570312 0.585938 -13.84375 1.359375 -13.9375 C 2.140625 -14.039062 2.945312 -13.804688 3.78125 -13.234375 C 4.476562 -12.753906 4.976562 -12.128906 5.28125 -11.359375 C 5.59375 -10.597656 5.65625 -9.710938 5.46875 -8.703125 C 5.28125 -7.691406 4.804688 -6.632812 4.046875 -5.53125 Z M 4.046875 -5.53125 "/></g></g></g><g fill="#ffffff" fill-opacity="1"><g transform="translate(103.85124, 120.247067)"><g><path d="M -6.34375 -12.46875 L -9.703125 -8.640625 L -11.515625 -10.234375 L -2.90625 -20.046875 L -1.09375 -18.453125 L -4.453125 -14.609375 L 5.3125 -6.046875 L 3.421875 -3.90625 Z M -6.34375 -12.46875 "/></g></g></g><g fill="#ffffff" fill-opacity="1"><g transform="translate(111.764224, 110.845476)"><g><path d="M 7.171875 -5.859375 C 5.972656 -4.835938 4.675781 -4.175781 3.28125 -3.875 C 1.882812 -3.570312 0.519531 -3.644531 -0.8125 -4.09375 C -2.144531 -4.539062 -3.300781 -5.332031 -4.28125 -6.46875 C -5.25 -7.601562 -5.851562 -8.863281 -6.09375 -10.25 C -6.34375 -11.632812 -6.210938 -13 -5.703125 -14.34375 C -5.191406 -15.6875 -4.335938 -16.867188 -3.140625 -17.890625 C -1.953125 -18.910156 -0.660156 -19.570312 0.734375 -19.875 C 2.140625 -20.175781 3.507812 -20.101562 4.84375 -19.65625 C 6.175781 -19.21875 7.332031 -18.425781 8.3125 -17.28125 C 9.289062 -16.132812 9.898438 -14.867188 10.140625 -13.484375 C 10.378906 -12.109375 10.238281 -10.75 9.71875 -9.40625 C 9.207031 -8.0625 8.359375 -6.878906 7.171875 -5.859375 Z M 5.546875 -7.765625 C 6.316406 -8.429688 6.863281 -9.207031 7.1875 -10.09375 C 7.507812 -10.976562 7.578125 -11.882812 7.390625 -12.8125 C 7.210938 -13.75 6.789062 -14.609375 6.125 -15.390625 C 5.457031 -16.171875 4.675781 -16.722656 3.78125 -17.046875 C 2.882812 -17.367188 1.972656 -17.4375 1.046875 -17.25 C 0.117188 -17.070312 -0.726562 -16.648438 -1.5 -15.984375 C -2.28125 -15.316406 -2.828125 -14.535156 -3.140625 -13.640625 C -3.460938 -12.753906 -3.535156 -11.84375 -3.359375 -10.90625 C -3.179688 -9.976562 -2.757812 -9.125 -2.09375 -8.34375 C -1.425781 -7.5625 -0.644531 -7.007812 0.25 -6.6875 C 1.15625 -6.363281 2.066406 -6.296875 2.984375 -6.484375 C 3.910156 -6.671875 4.765625 -7.097656 5.546875 -7.765625 Z M 5.546875 -7.765625 "/></g></g></g><g fill="#ffffff" fill-opacity="1"><g transform="translate(124.56901, 99.268098)"><g><path d="M 13.8125 -25.5 L 16.953125 -9.578125 L 14.3125 -8.09375 L 5.375 -16.140625 L 7.609375 -4.3125 L 4.96875 -2.8125 L -7.0625 -13.703125 L -4.484375 -15.15625 L 4.609375 -6.859375 L 2.328125 -19 L 4.625 -20.3125 L 13.8125 -11.96875 L 11.4375 -24.15625 Z M 13.8125 -25.5 "/></g></g></g><g fill="#ffffff" fill-opacity="1"><g transform="translate(145.600483, 87.811063)"><g><path d="M 0.296875 -13.890625 L 1.859375 -9.484375 L 8.875 -11.96875 L 9.6875 -9.671875 L 2.671875 -7.1875 L 4.640625 -1.640625 L 1.9375 -0.6875 L -3.203125 -15.203125 L 7.40625 -18.953125 L 8.203125 -16.6875 Z M 0.296875 -13.890625 "/></g></g></g><g fill="#ffffff" fill-opacity="1"><g transform="translate(157.808385, 83.240555)"><g><path d="M 9.140625 -1.578125 C 7.597656 -1.273438 6.140625 -1.335938 4.765625 -1.765625 C 3.390625 -2.191406 2.234375 -2.925781 1.296875 -3.96875 C 0.359375 -5.007812 -0.253906 -6.269531 -0.546875 -7.75 C -0.828125 -9.207031 -0.734375 -10.597656 -0.265625 -11.921875 C 0.191406 -13.253906 0.972656 -14.378906 2.078125 -15.296875 C 3.191406 -16.210938 4.519531 -16.820312 6.0625 -17.125 C 7.59375 -17.425781 9.039062 -17.363281 10.40625 -16.9375 C 11.78125 -16.507812 12.9375 -15.773438 13.875 -14.734375 C 14.820312 -13.703125 15.441406 -12.445312 15.734375 -10.96875 C 16.023438 -9.476562 15.929688 -8.070312 15.453125 -6.75 C 14.984375 -5.4375 14.195312 -4.320312 13.09375 -3.40625 C 11.988281 -2.488281 10.671875 -1.878906 9.140625 -1.578125 Z M 8.65625 -4.03125 C 9.65625 -4.226562 10.507812 -4.632812 11.21875 -5.25 C 11.9375 -5.875 12.445312 -6.632812 12.75 -7.53125 C 13.050781 -8.4375 13.097656 -9.394531 12.890625 -10.40625 C 12.691406 -11.40625 12.28125 -12.265625 11.65625 -12.984375 C 11.039062 -13.710938 10.285156 -14.222656 9.390625 -14.515625 C 8.492188 -14.804688 7.546875 -14.851562 6.546875 -14.65625 C 5.535156 -14.457031 4.671875 -14.050781 3.953125 -13.4375 C 3.242188 -12.820312 2.734375 -12.0625 2.421875 -11.15625 C 2.117188 -10.257812 2.066406 -9.3125 2.265625 -8.3125 C 2.472656 -7.300781 2.890625 -6.429688 3.515625 -5.703125 C 4.140625 -4.984375 4.898438 -4.472656 5.796875 -4.171875 C 6.691406 -3.878906 7.644531 -3.832031 8.65625 -4.03125 Z M 8.65625 -4.03125 "/></g></g></g><g fill="#ffffff" fill-opacity="1"><g transform="translate(174.943531, 79.861881)"><g><path d="M 12.125 -0.5 L 8.8125 -4.890625 C 8.675781 -4.859375 8.476562 -4.835938 8.21875 -4.828125 L 4.734375 -4.6875 L 4.921875 -0.203125 L 2.0625 -0.078125 L 1.421875 -15.46875 L 7.765625 -15.734375 C 9.085938 -15.796875 10.253906 -15.625 11.265625 -15.21875 C 12.273438 -14.8125 13.054688 -14.207031 13.609375 -13.40625 C 14.171875 -12.613281 14.476562 -11.65625 14.53125 -10.53125 C 14.570312 -9.382812 14.328125 -8.378906 13.796875 -7.515625 C 13.273438 -6.648438 12.5 -5.992188 11.46875 -5.546875 L 15.203125 -0.625 Z M 11.65625 -10.40625 C 11.613281 -11.382812 11.257812 -12.125 10.59375 -12.625 C 9.925781 -13.132812 8.972656 -13.363281 7.734375 -13.3125 L 4.390625 -13.171875 L 4.640625 -7.046875 L 7.984375 -7.1875 C 9.222656 -7.238281 10.15625 -7.546875 10.78125 -8.109375 C 11.40625 -8.671875 11.695312 -9.4375 11.65625 -10.40625 Z M 11.65625 -10.40625 "/></g></g></g><g fill="#ffffff" fill-opacity="1"><g transform="translate(189.970776, 79.08101)"><g><path d="M 3.75 -15.078125 L 10.453125 -14.34375 C 12.085938 -14.15625 13.503906 -13.671875 14.703125 -12.890625 C 15.898438 -12.117188 16.78125 -11.113281 17.34375 -9.875 C 17.914062 -8.632812 18.117188 -7.257812 17.953125 -5.75 C 17.773438 -4.226562 17.273438 -2.925781 16.453125 -1.84375 C 15.628906 -0.757812 14.546875 0.0234375 13.203125 0.515625 C 11.867188 1.003906 10.382812 1.15625 8.75 0.96875 L 2.046875 0.234375 Z M 8.890625 -1.4375 C 10.003906 -1.3125 11.007812 -1.414062 11.90625 -1.75 C 12.8125 -2.09375 13.535156 -2.632812 14.078125 -3.375 C 14.628906 -4.113281 14.96875 -5.007812 15.09375 -6.0625 C 15.207031 -7.101562 15.078125 -8.046875 14.703125 -8.890625 C 14.335938 -9.742188 13.75 -10.429688 12.9375 -10.953125 C 12.132812 -11.484375 11.175781 -11.8125 10.0625 -11.9375 L 6.328125 -12.359375 L 5.15625 -1.859375 Z M 8.890625 -1.4375 "/></g></g></g><g fill="#ffffff" fill-opacity="1"><g transform="translate(207.234832, 81.294339)"><g/></g></g><g fill="#ffffff" fill-opacity="1"><g transform="translate(212.540932, 82.137332)"><g><path d="M 8.171875 2.96875 C 6.160156 2.289062 4.78125 1.195312 4.03125 -0.3125 C 3.28125 -1.820312 3.257812 -3.632812 3.96875 -5.75 L 6.734375 -14 L 9.4375 -13.078125 L 6.71875 -4.921875 C 5.75 -2.054688 6.503906 -0.210938 8.984375 0.609375 C 11.441406 1.429688 13.15625 0.410156 14.125 -2.453125 L 16.84375 -10.609375 L 19.515625 -9.703125 L 16.75 -1.453125 C 16.039062 0.660156 14.9375 2.09375 13.4375 2.84375 C 11.945312 3.601562 10.191406 3.644531 8.171875 2.96875 Z M 8.171875 2.96875 "/></g></g></g><g fill="#ffffff" fill-opacity="1"><g transform="translate(228.020931, 87.216732)"><g><path d="M 21.078125 -6.40625 L 13.96875 7.265625 L 11.875 6.1875 L 9.171875 -6.984375 L 4.359375 2.265625 L 1.828125 0.953125 L 8.9375 -12.71875 L 11.03125 -11.625 L 13.75 1.546875 L 18.5625 -7.71875 Z M 21.078125 -6.40625 "/></g></g></g><g fill="#ffffff" fill-opacity="1"><g transform="translate(243.012298, 95.310438)"><g><path d="M 10.296875 -11.640625 L 12.671875 -10.0625 L 4.09375 2.734375 L 1.71875 1.15625 Z M 10.296875 -11.640625 "/></g></g></g><g fill="#ffffff" fill-opacity="1"><g transform="translate(248.417394, 98.731669)"><g><path d="M 12.203125 -6.828125 L 8.25 -10.03125 L 9.78125 -11.90625 L 19.921875 -3.6875 L 18.390625 -1.8125 L 14.421875 -5.03125 L 6.25 5.0625 L 4.03125 3.265625 Z M 12.203125 -6.828125 "/></g></g></g><g fill="#ffffff" fill-opacity="1"><g transform="translate(258.106041, 106.448005)"><g><path d="M 11.15625 8.171875 L 9.4375 9.828125 L 1.421875 1.484375 L 12.53125 -9.1875 L 20.328125 -1.078125 L 18.59375 0.59375 L 12.78125 -5.453125 L 9.890625 -2.6875 L 15.046875 2.671875 L 13.34375 4.3125 L 8.1875 -1.046875 L 5.125 1.890625 Z M 11.15625 8.171875 "/></g></g></g><g fill="#ffffff" fill-opacity="1"><g transform="translate(267.774114, 116.221036)"><g><path d="M 13.75 -7.25 L 17.65625 -1.765625 C 18.601562 -0.429688 19.1875 0.9375 19.40625 2.34375 C 19.625 3.757812 19.460938 5.09375 18.921875 6.34375 C 18.378906 7.59375 17.492188 8.660156 16.265625 9.546875 C 15.015625 10.429688 13.707031 10.925781 12.34375 11.03125 C 10.976562 11.132812 9.664062 10.847656 8.40625 10.171875 C 7.15625 9.503906 6.054688 8.503906 5.109375 7.171875 L 1.203125 1.6875 Z M 7 5.65625 C 7.65625 6.570312 8.40625 7.253906 9.25 7.703125 C 10.101562 8.148438 10.988281 8.332031 11.90625 8.25 C 12.820312 8.164062 13.71875 7.816406 14.59375 7.203125 C 15.445312 6.585938 16.0625 5.859375 16.4375 5.015625 C 16.820312 4.171875 16.941406 3.273438 16.796875 2.328125 C 16.660156 1.378906 16.265625 0.445312 15.609375 -0.46875 L 13.4375 -3.515625 L 4.828125 2.609375 Z M 7 5.65625 "/></g></g></g><g fill="#ffffff" fill-opacity="1"><g transform="translate(96.991914, 266.498913)"><g><path d="M 12.75 -5.5625 L 9.390625 -2.28125 L 14.578125 3.046875 L 12.84375 4.734375 L 7.65625 -0.59375 L 3.4375 3.515625 L 1.4375 1.46875 L 12.46875 -9.28125 L 20.328125 -1.21875 L 18.609375 0.453125 Z M 12.75 -5.5625 "/></g></g></g><g fill="#ffffff" fill-opacity="1"><g transform="translate(107.452935, 277.346395)"><g><path d="M 7.21875 5.796875 C 5.96875 4.847656 5.050781 3.71875 4.46875 2.40625 C 3.882812 1.101562 3.671875 -0.242188 3.828125 -1.640625 C 3.992188 -3.035156 4.535156 -4.332031 5.453125 -5.53125 C 6.347656 -6.707031 7.453125 -7.554688 8.765625 -8.078125 C 10.078125 -8.609375 11.441406 -8.757812 12.859375 -8.53125 C 14.273438 -8.3125 15.609375 -7.726562 16.859375 -6.78125 C 18.097656 -5.832031 19.007812 -4.703125 19.59375 -3.390625 C 20.1875 -2.078125 20.40625 -0.726562 20.25 0.65625 C 20.09375 2.050781 19.554688 3.347656 18.640625 4.546875 C 17.710938 5.753906 16.597656 6.613281 15.296875 7.125 C 13.992188 7.644531 12.628906 7.789062 11.203125 7.5625 C 9.785156 7.332031 8.457031 6.742188 7.21875 5.796875 Z M 8.75 3.8125 C 9.5625 4.4375 10.429688 4.8125 11.359375 4.9375 C 12.296875 5.070312 13.203125 4.953125 14.078125 4.578125 C 14.953125 4.203125 15.707031 3.601562 16.34375 2.78125 C 16.957031 1.976562 17.328125 1.101562 17.453125 0.15625 C 17.585938 -0.78125 17.46875 -1.679688 17.09375 -2.546875 C 16.726562 -3.410156 16.140625 -4.15625 15.328125 -4.78125 C 14.503906 -5.40625 13.628906 -5.78125 12.703125 -5.90625 C 11.773438 -6.039062 10.867188 -5.921875 9.984375 -5.546875 C 9.097656 -5.179688 8.347656 -4.597656 7.734375 -3.796875 C 7.097656 -2.972656 6.71875 -2.085938 6.59375 -1.140625 C 6.476562 -0.191406 6.601562 0.710938 6.96875 1.578125 C 7.332031 2.441406 7.925781 3.1875 8.75 3.8125 Z M 8.75 3.8125 "/></g></g></g><g fill="#ffffff" fill-opacity="1"><g transform="translate(123.176948, 289.249104)"><g><path d="M 8.078125 4.53125 C 6.679688 3.789062 5.585938 2.828125 4.796875 1.640625 C 4.015625 0.453125 3.585938 -0.84375 3.515625 -2.25 C 3.453125 -3.65625 3.769531 -5.019531 4.46875 -6.34375 C 5.164062 -7.664062 6.113281 -8.691406 7.3125 -9.421875 C 8.519531 -10.160156 9.835938 -10.535156 11.265625 -10.546875 C 12.703125 -10.554688 14.117188 -10.191406 15.515625 -9.453125 C 16.890625 -8.722656 17.972656 -7.757812 18.765625 -6.5625 C 19.566406 -5.375 20.003906 -4.078125 20.078125 -2.671875 C 20.148438 -1.273438 19.832031 0.09375 19.125 1.4375 C 18.414062 2.769531 17.460938 3.796875 16.265625 4.515625 C 15.066406 5.242188 13.742188 5.609375 12.296875 5.609375 C 10.859375 5.617188 9.453125 5.257812 8.078125 4.53125 Z M 9.25 2.328125 C 10.144531 2.804688 11.066406 3.03125 12.015625 3 C 12.960938 2.976562 13.835938 2.710938 14.640625 2.203125 C 15.441406 1.691406 16.082031 0.984375 16.5625 0.078125 C 17.039062 -0.828125 17.269531 -1.753906 17.25 -2.703125 C 17.226562 -3.648438 16.957031 -4.519531 16.4375 -5.3125 C 15.925781 -6.113281 15.222656 -6.753906 14.328125 -7.234375 C 13.410156 -7.710938 12.484375 -7.9375 11.546875 -7.90625 C 10.617188 -7.882812 9.75 -7.617188 8.9375 -7.109375 C 8.125 -6.609375 7.476562 -5.90625 7 -5 C 6.519531 -4.09375 6.296875 -3.160156 6.328125 -2.203125 C 6.359375 -1.253906 6.625 -0.382812 7.125 0.40625 C 7.625 1.207031 8.332031 1.847656 9.25 2.328125 Z M 9.25 2.328125 "/></g></g></g><g fill="#ffffff" fill-opacity="1"><g transform="translate(140.546266, 298.178884)"><g><path d="M 9.28125 -10.453125 L 4.5 -12.1875 L 5.328125 -14.453125 L 17.609375 -10.015625 L 16.78125 -7.75 L 11.96875 -9.484375 L 7.5625 2.734375 L 4.875 1.765625 Z M 9.28125 -10.453125 "/></g></g></g><g fill="#ffffff" fill-opacity="1"><g transform="translate(153.894095, 303.05462)"><g><path d="M 14.390625 -5.078125 C 15.148438 -4.628906 15.703125 -4.03125 16.046875 -3.28125 C 16.398438 -2.539062 16.476562 -1.703125 16.28125 -0.765625 C 15.988281 0.546875 15.265625 1.445312 14.109375 1.9375 C 12.960938 2.4375 11.425781 2.476562 9.5 2.0625 L 2.015625 0.4375 L 5.28125 -14.625 L 12.34375 -13.09375 C 14.125 -12.707031 15.414062 -12.0625 16.21875 -11.15625 C 17.019531 -10.257812 17.285156 -9.203125 17.015625 -7.984375 C 16.859375 -7.234375 16.546875 -6.609375 16.078125 -6.109375 C 15.617188 -5.609375 15.054688 -5.265625 14.390625 -5.078125 Z M 7.59375 -11.8125 L 6.703125 -7.65625 L 10.65625 -6.8125 C 11.632812 -6.59375 12.421875 -6.601562 13.015625 -6.84375 C 13.617188 -7.09375 13.992188 -7.550781 14.140625 -8.21875 C 14.285156 -8.914062 14.132812 -9.492188 13.6875 -9.953125 C 13.238281 -10.410156 12.523438 -10.75 11.546875 -10.96875 Z M 9.796875 -0.1875 C 11.960938 0.28125 13.203125 -0.207031 13.515625 -1.65625 C 13.835938 -3.09375 12.914062 -4.046875 10.75 -4.515625 L 6.234375 -5.484375 L 5.28125 -1.15625 Z M 9.796875 -0.1875 "/></g></g></g><g fill="#ffffff" fill-opacity="1"><g transform="translate(171.317929, 306.734837)"><g><path d="M 12.265625 -2.78125 L 4.578125 -3.28125 L 2.84375 0.1875 L -0.109375 0 L 7.796875 -14.9375 L 10.625 -14.75 L 16.5625 1.078125 L 13.5625 0.890625 Z M 11.453125 -5.078125 L 9 -11.984375 L 5.6875 -5.453125 Z M 11.453125 -5.078125 "/></g></g></g><g fill="#ffffff" fill-opacity="1"><g transform="translate(188.710084, 307.699426)"><g><path d="M 1.03125 -15.515625 L 3.875 -15.703125 L 4.75 -2.75 L 12.796875 -3.28125 L 12.953125 -0.859375 L 2.0625 -0.140625 Z M 1.03125 -15.515625 "/></g></g></g><g fill="#ffffff" fill-opacity="1"><g transform="translate(202.692158, 306.715108)"><g><path d="M -0.796875 -15.515625 L 2.015625 -16.046875 L 4.40625 -3.28125 L 12.328125 -4.75 L 12.765625 -2.375 L 2.03125 -0.375 Z M -0.796875 -15.515625 "/></g></g></g><g fill="#ffffff" fill-opacity="1"><g transform="translate(216.205606, 304.018012)"><g/></g></g><g fill="#ffffff" fill-opacity="1"><g transform="translate(222.799403, 302.410427)"><g><path d="M 8.671875 -3.109375 C 7.210938 -2.546875 5.773438 -2.359375 4.359375 -2.546875 C 2.953125 -2.734375 1.695312 -3.257812 0.59375 -4.125 C -0.5 -4.988281 -1.316406 -6.125 -1.859375 -7.53125 C -2.410156 -8.9375 -2.566406 -10.332031 -2.328125 -11.71875 C -2.085938 -13.101562 -1.503906 -14.335938 -0.578125 -15.421875 C 0.335938 -16.515625 1.519531 -17.335938 2.96875 -17.890625 C 4.144531 -18.347656 5.300781 -18.554688 6.4375 -18.515625 C 7.570312 -18.484375 8.625 -18.207031 9.59375 -17.6875 L 8.5 -15.40625 C 7.019531 -16.125 5.519531 -16.1875 4 -15.59375 C 3.019531 -15.21875 2.222656 -14.660156 1.609375 -13.921875 C 0.992188 -13.191406 0.613281 -12.359375 0.46875 -11.421875 C 0.332031 -10.492188 0.453125 -9.546875 0.828125 -8.578125 C 1.203125 -7.609375 1.753906 -6.820312 2.484375 -6.21875 C 3.210938 -5.613281 4.050781 -5.242188 5 -5.109375 C 5.945312 -4.984375 6.910156 -5.109375 7.890625 -5.484375 C 9.410156 -6.078125 10.472656 -7.140625 11.078125 -8.671875 L 13.4375 -7.71875 C 13.070312 -6.664062 12.476562 -5.742188 11.65625 -4.953125 C 10.832031 -4.171875 9.835938 -3.554688 8.671875 -3.109375 Z M 8.671875 -3.109375 "/></g></g></g><g fill="#ffffff" fill-opacity="1"><g transform="translate(238.531252, 296.182189)"><g><path d="M -5.546875 -14.515625 L -3.03125 -15.875 L 3.171875 -4.46875 L 10.25 -8.328125 L 11.40625 -6.203125 L 1.8125 -0.984375 Z M -5.546875 -14.515625 "/></g></g></g><g fill="#ffffff" fill-opacity="1"><g transform="translate(251.011476, 289.481253)"><g><path d="M 7.125 -4.96875 C 5.414062 -3.707031 3.726562 -3.203125 2.0625 -3.453125 C 0.40625 -3.710938 -1.082031 -4.742188 -2.40625 -6.546875 L -7.5625 -13.546875 L -5.265625 -15.25 L -0.171875 -8.328125 C 1.617188 -5.898438 3.570312 -5.457031 5.6875 -7 C 7.769531 -8.539062 7.914062 -10.523438 6.125 -12.953125 L 1.03125 -19.875 L 3.296875 -21.546875 L 8.453125 -14.546875 C 9.773438 -12.742188 10.3125 -11.007812 10.0625 -9.34375 C 9.8125 -7.6875 8.832031 -6.226562 7.125 -4.96875 Z M 7.125 -4.96875 "/></g></g></g><g fill="#ffffff" fill-opacity="1"><g transform="translate(265.817318, 278.468824)"><g><path d="M 3.5 -14.859375 C 4.300781 -15.253906 5.109375 -15.394531 5.921875 -15.28125 C 6.742188 -15.164062 7.492188 -14.769531 8.171875 -14.09375 C 9.128906 -13.144531 9.5 -12.050781 9.28125 -10.8125 C 9.0625 -9.582031 8.257812 -8.269531 6.875 -6.875 L 1.453125 -1.453125 L -9.4375 -12.34375 L -4.328125 -17.453125 C -3.035156 -18.742188 -1.789062 -19.484375 -0.59375 -19.671875 C 0.601562 -19.859375 1.640625 -19.507812 2.515625 -18.625 C 3.054688 -18.09375 3.410156 -17.492188 3.578125 -16.828125 C 3.742188 -16.160156 3.71875 -15.503906 3.5 -14.859375 Z M -5.828125 -12.78125 L -2.8125 -9.78125 L 0.046875 -12.640625 C 0.753906 -13.347656 1.164062 -14.019531 1.28125 -14.65625 C 1.40625 -15.289062 1.222656 -15.847656 0.734375 -16.328125 C 0.234375 -16.828125 -0.328125 -17.015625 -0.953125 -16.890625 C -1.585938 -16.765625 -2.257812 -16.347656 -2.96875 -15.640625 Z M 5.15625 -8.34375 C 6.71875 -9.914062 6.976562 -11.222656 5.9375 -12.265625 C 4.882812 -13.316406 3.578125 -13.054688 2.015625 -11.484375 L -1.25 -8.21875 L 1.890625 -5.078125 Z M 5.15625 -8.34375 "/></g></g></g></svg>