<svg xmlns="http://www.w3.org/2000/svg" xmlns:xlink="http://www.w3.org/1999/xlink" width="500" zoomAndPan="magnify" viewBox="0 0 375 374.999991" height="500" preserveAspectRatio="xMidYMid meet" version="1.0"><defs><g/><clipPath id="16a697a441"><path d="M 0 0 L 375 0 L 375 187.5 L 0 187.5 Z M 0 0 " clip-rule="nonzero"/></clipPath><clipPath id="3b5fa198d1"><path d="M 0 187.5 L 375 187.5 L 375 375 L 0 375 Z M 0 187.5 " clip-rule="nonzero"/></clipPath><clipPath id="89052fd293"><path d="M 65.625 65.625 L 309.375 65.625 L 309.375 309.375 L 65.625 309.375 Z M 65.625 65.625 " clip-rule="nonzero"/></clipPath><clipPath id="00dd01f83f"><path d="M 187.5 65.625 C 120.191406 65.625 65.625 120.191406 65.625 187.5 C 65.625 254.808594 120.191406 309.375 187.5 309.375 C 254.808594 309.375 309.375 254.808594 309.375 187.5 C 309.375 120.191406 254.808594 65.625 187.5 65.625 Z M 187.5 65.625 " clip-rule="nonzero"/></clipPath><clipPath id="c1838655e8"><path d="M 73.140625 73.140625 L 301.859375 73.140625 L 301.859375 301.859375 L 73.140625 301.859375 Z M 73.140625 73.140625 " clip-rule="nonzero"/></clipPath><clipPath id="2c60cf7f98"><path d="M 187.5 73.140625 C 124.339844 73.140625 73.140625 124.339844 73.140625 187.5 C 73.140625 250.660156 124.339844 301.859375 187.5 301.859375 C 250.660156 301.859375 301.859375 250.660156 301.859375 187.5 C 301.859375 124.339844 250.660156 73.140625 187.5 73.140625 Z M 187.5 73.140625 " clip-rule="nonzero"/></clipPath><clipPath id="17be050742"><path d="M 115.136719 115.136719 L 259.863281 115.136719 L 259.863281 259.863281 L 115.136719 259.863281 Z M 115.136719 115.136719 " clip-rule="nonzero"/></clipPath><clipPath id="759bdf2d90"><path d="M 187.5 115.136719 C 147.535156 115.136719 115.136719 147.535156 115.136719 187.5 C 115.136719 227.464844 147.535156 259.863281 187.5 259.863281 C 227.464844 259.863281 259.863281 227.464844 259.863281 187.5 C 259.863281 147.535156 227.464844 115.136719 187.5 115.136719 Z M 187.5 115.136719 " clip-rule="nonzero"/></clipPath><clipPath id="7d2f2016f8"><path d="M 119.019531 119.019531 L 256 119.019531 L 256 256 L 119.019531 256 Z M 119.019531 119.019531 " clip-rule="nonzero"/></clipPath><clipPath id="51e7107700"><path d="M 269 175 L 294.644531 175 L 294.644531 200 L 269 200 Z M 269 175 " clip-rule="nonzero"/></clipPath><clipPath id="19b56d0600"><path d="M 81 175 L 106.671875 175 L 106.671875 200 L 81 200 Z M 81 175 " clip-rule="nonzero"/></clipPath><clipPath id="a91f9942d8"><path d="M 198 146 L 231 146 L 231 168 L 198 168 Z M 198 146 " clip-rule="nonzero"/></clipPath><clipPath id="f8a6793ce4"><path d="M 196.570312 152.605469 L 228.210938 140.859375 L 234.734375 158.4375 L 203.09375 170.183594 Z M 196.570312 152.605469 " clip-rule="nonzero"/></clipPath><clipPath id="4557ab3718"><path d="M 196.570312 152.605469 L 228.210938 140.859375 L 234.734375 158.4375 L 203.09375 170.183594 Z M 196.570312 152.605469 " clip-rule="nonzero"/></clipPath><clipPath id="5f87f45ea3"><path d="M 211 155 L 214 155 L 214 160 L 211 160 Z M 211 155 " clip-rule="nonzero"/></clipPath><clipPath id="bfff0f44d2"><path d="M 196.570312 152.605469 L 228.210938 140.859375 L 234.734375 158.4375 L 203.09375 170.183594 Z M 196.570312 152.605469 " clip-rule="nonzero"/></clipPath><clipPath id="af9f159ff7"><path d="M 196.570312 152.605469 L 228.210938 140.859375 L 234.734375 158.4375 L 203.09375 170.183594 Z M 196.570312 152.605469 " clip-rule="nonzero"/></clipPath><clipPath id="41bc1c9a09"><path d="M 218 152 L 221 152 L 221 158 L 218 158 Z M 218 152 " clip-rule="nonzero"/></clipPath><clipPath id="90b1b45858"><path d="M 196.570312 152.605469 L 228.210938 140.859375 L 234.734375 158.4375 L 203.09375 170.183594 Z M 196.570312 152.605469 " clip-rule="nonzero"/></clipPath><clipPath id="e245fec393"><path d="M 196.570312 152.605469 L 228.210938 140.859375 L 234.734375 158.4375 L 203.09375 170.183594 Z M 196.570312 152.605469 " clip-rule="nonzero"/></clipPath><clipPath id="4764419d5b"><path d="M 224 154 L 226 154 L 226 157 L 224 157 Z M 224 154 " clip-rule="nonzero"/></clipPath><clipPath id="fa55772db6"><path d="M 196.570312 152.605469 L 228.210938 140.859375 L 234.734375 158.4375 L 203.09375 170.183594 Z M 196.570312 152.605469 " clip-rule="nonzero"/></clipPath><clipPath id="2f79d30117"><path d="M 196.570312 152.605469 L 228.210938 140.859375 L 234.734375 158.4375 L 203.09375 170.183594 Z M 196.570312 152.605469 " clip-rule="nonzero"/></clipPath><clipPath id="2dfbb043a9"><path d="M 207 160 L 210 160 L 210 163 L 207 163 Z M 207 160 " clip-rule="nonzero"/></clipPath><clipPath id="4d4239a51a"><path d="M 196.570312 152.605469 L 228.210938 140.859375 L 234.734375 158.4375 L 203.09375 170.183594 Z M 196.570312 152.605469 " clip-rule="nonzero"/></clipPath><clipPath id="b89b92b1d2"><path d="M 196.570312 152.605469 L 228.210938 140.859375 L 234.734375 158.4375 L 203.09375 170.183594 Z M 196.570312 152.605469 " clip-rule="nonzero"/></clipPath></defs><rect x="-37.5" width="450" fill="#ffffff" y="-37.499999" height="449.999989" fill-opacity="1"/><rect x="-37.5" width="450" fill="#ffffff" y="-37.499999" height="449.999989" fill-opacity="1"/><g clip-path="url(#16a697a441)"><path stroke-linecap="butt" transform="matrix(0.75, 0, 0, 0.75, 0.0000045, -0.000000000000042633)" fill-opacity="1" fill="#000000" fill-rule="nonzero" stroke-linejoin="miter" d="M -0.000006 0.000000000000056843 L 500.000059 0.000000000000056843 L 500.000059 250.000032 L -0.000006 250.000032 Z M -0.000006 0.000000000000056843 " stroke="#ffffff" stroke-width="8" stroke-opacity="1" stroke-miterlimit="4"/></g><g clip-path="url(#3b5fa198d1)"><path stroke-linecap="butt" transform="matrix(0.75, 0, 0, 0.75, 0.0000045, 187.499988)" fill-opacity="1" fill="#960013" fill-rule="nonzero" stroke-linejoin="miter" d="M -0.000006 0.0000164167 L 500.000059 0.0000164167 L 500.000059 250.000049 L -0.000006 250.000049 Z M -0.000006 0.0000164167 " stroke="#ffffff" stroke-width="8" stroke-opacity="1" stroke-miterlimit="4"/></g><g clip-path="url(#89052fd293)"><g clip-path="url(#00dd01f83f)"><path fill="#af8f44" d="M 65.625 65.625 L 309.375 65.625 L 309.375 309.375 L 65.625 309.375 Z M 65.625 65.625 " fill-opacity="1" fill-rule="nonzero"/><path stroke-linecap="butt" transform="matrix(0.75, 0, 0, 0.75, 65.625, 65.624996)" fill="none" stroke-linejoin="miter" d="M 162.50001 0.00000574583 C 72.755213 0.00000574583 -0.000000254167 72.755219 -0.000000254167 162.500016 C -0.000000254167 252.244814 72.755213 325.000027 162.50001 325.000027 C 252.244808 325.000027 325.000021 252.244814 325.000021 162.500016 C 325.000021 72.755219 252.244808 0.00000574583 162.50001 0.00000574583 Z M 162.50001 0.00000574583 " stroke="#000000" stroke-width="12" stroke-opacity="1" stroke-miterlimit="4"/></g></g><g clip-path="url(#c1838655e8)"><g clip-path="url(#2c60cf7f98)"><path fill="#960013" d="M 73.140625 73.140625 L 301.859375 73.140625 L 301.859375 301.859375 L 73.140625 301.859375 Z M 73.140625 73.140625 " fill-opacity="1" fill-rule="nonzero"/></g></g><g clip-path="url(#17be050742)"><g clip-path="url(#759bdf2d90)"><path fill="#ffffff" d="M 115.136719 115.136719 L 259.863281 115.136719 L 259.863281 259.863281 L 115.136719 259.863281 Z M 115.136719 115.136719 " fill-opacity="1" fill-rule="nonzero"/></g></g><g clip-path="url(#7d2f2016f8)"><path fill="#af8f44" d="M 187.496094 119.019531 C 169.222656 119.019531 152.621094 126.179688 140.335938 137.84375 C 137.449219 131.402344 138.578125 125.046875 138.59375 125.035156 C 124.425781 155.226562 166.929688 166.449219 196.273438 178.507812 C 203.023438 181.28125 209.847656 185.671875 214.390625 193.101562 C 217.433594 198.085938 219.003906 203.308594 218.394531 208.726562 C 217.546875 216.246094 213.371094 223.578125 207.582031 228.21875 C 204.878906 230.382812 201.765625 231.714844 198.988281 233.652344 C 198.988281 233.652344 214.488281 222.769531 209.789062 212.070312 C 205.96875 203.378906 184.480469 207 171.84375 208.699219 C 159.1875 210.382812 155.140625 203.972656 155.140625 203.972656 C 155.140625 203.972656 157.84375 206.507812 181.28125 203.292969 C 204.722656 200.09375 211.132812 209.535156 211.132812 209.535156 C 203.71875 198.238281 187.101562 200.007812 169.054688 201.695312 C 151.007812 203.378906 144.679688 192.664062 144.679688 192.664062 C 152.421875 196.726562 161.199219 195.875 182.953125 196.554688 C 204.707031 197.234375 208.925781 204.140625 208.925781 204.140625 C 205.046875 195.195312 180.078125 192.847656 157.816406 191.828125 C 135.550781 190.808594 136.894531 176.808594 136.894531 176.808594 C 140.433594 183.5625 146.507812 184.566406 176.03125 188.953125 C 202.996094 192.960938 206.308594 197.886719 206.691406 198.707031 C 203.605469 190.527344 176.429688 187.242188 151.914062 180.859375 C 127.285156 174.445312 130.824219 154.375 130.824219 154.375 C 133.1875 164.496094 134.703125 170.824219 163.039062 177.40625 C 191.375 183.988281 199.472656 189.039062 199.472656 189.039062 C 191.628906 181.707031 143.308594 173.273438 135.832031 155.550781 C 134.347656 152.039062 133.570312 148.714844 133.257812 145.644531 C 124.339844 157.234375 119.019531 171.742188 119.019531 187.496094 C 119.019531 225.316406 149.675781 255.976562 187.496094 255.976562 C 187.824219 255.976562 188.148438 255.976562 188.472656 255.960938 C 184.042969 255.308594 180.757812 253.570312 180.757812 253.570312 C 180.757812 253.570312 186.320312 255.167969 194.304688 252.140625 C 203.703125 248.558594 213.824219 233.667969 213.824219 233.667969 C 213.824219 233.667969 203.363281 246.660156 191.898438 250.539062 C 184.75 252.960938 173.511719 250.539062 173.511719 250.539062 C 173.511719 250.539062 178.652344 250.398438 184.398438 248.941406 C 194.320312 246.40625 209.789062 233.171875 209.789062 233.171875 C 209.789062 233.171875 194.773438 243.292969 184.480469 246.492188 C 173.953125 249.777344 164.921875 247.171875 164.921875 247.171875 C 164.921875 247.171875 205.757812 239.472656 216.089844 220.929688 C 224.425781 205.984375 217.023438 192.847656 217.023438 192.847656 C 217.023438 192.847656 222.246094 196.980469 223.433594 205.925781 C 225.757812 223.492188 212.976562 240.757812 203.875 250.878906 C 201.878906 253.089844 199.65625 254.460938 197.40625 255.269531 C 230.527344 250.46875 255.976562 221.960938 255.976562 187.511719 C 255.960938 149.675781 225.304688 119.019531 187.496094 119.019531 Z M 230.878906 177.660156 L 229.703125 177.488281 L 230.835938 177.984375 C 229.351562 182.839844 230.269531 193.839844 230.597656 197.121094 C 237.476562 217.179688 222.132812 233.667969 222.132812 233.667969 C 222.132812 233.667969 235.832031 214.066406 225.273438 193.992188 C 217.179688 178.59375 196.710938 174.546875 187.496094 172.070312 C 187.496094 172.070312 199.894531 173.257812 211.488281 178.394531 C 216.03125 172.125 222.019531 170.496094 222.019531 170.496094 C 215.4375 169.960938 214.179688 164.496094 214.179688 164.496094 C 215.351562 168.726562 227.976562 165.855469 231.445312 167.582031 C 234.898438 169.308594 235.496094 172.917969 235.496094 172.917969 C 232.210938 170.652344 229.082031 171.855469 230.285156 172.988281 C 231.488281 174.121094 236.78125 172.410156 240.136719 173.511719 C 242.558594 174.304688 242.386719 176.597656 242.386719 176.597656 C 240.984375 173.101562 230.878906 177.660156 230.878906 177.660156 Z M 230.878906 177.660156 " fill-opacity="1" fill-rule="nonzero"/></g><g clip-path="url(#51e7107700)"><path fill="#ffffff" d="M 292.53125 193.117188 C 293.417969 191.527344 293.925781 189.75 294.007812 187.90625 C 293.742188 189.242188 293.222656 190.871094 292.96875 191.445312 C 292.980469 191.472656 292.984375 191.5 292.980469 191.527344 C 292.921875 191.929688 292.816406 192.4375 292.53125 193.117188 Z M 289.789062 191.421875 C 288.128906 192.9375 286.050781 194.394531 285.230469 194.625 C 285.121094 196.050781 284.925781 197.09375 284.644531 197.792969 C 285.269531 197.855469 286.664062 197.929688 288.125 197.546875 C 288.148438 197.539062 288.171875 197.539062 288.195312 197.542969 C 289.109375 197.011719 289.945312 196.355469 290.6875 195.589844 C 290.679688 195.550781 290.6875 195.507812 290.710938 195.472656 C 292.039062 193.546875 292.40625 192.425781 292.539062 191.664062 C 291.523438 191.796875 291.269531 191.738281 290.710938 191.609375 C 290.484375 191.554688 290.199219 191.492188 289.789062 191.421875 Z M 279.105469 198.253906 C 278.894531 198.398438 278.699219 198.5 278.507812 198.570312 C 281.28125 199.476562 284.261719 199.335938 286.914062 198.191406 C 285.707031 198.328125 284.703125 198.226562 284.367188 198.179688 C 284.339844 198.175781 284.320312 198.167969 284.300781 198.15625 C 282.894531 198.351562 280.894531 198.519531 279.105469 198.253906 Z M 293.972656 186.332031 C 293.730469 183.523438 292.515625 180.914062 290.523438 178.921875 C 291.191406 180 291.9375 181.226562 292.101562 183.324219 C 293.230469 184.320312 293.691406 185.566406 293.941406 186.242188 C 293.953125 186.273438 293.960938 186.300781 293.972656 186.332031 Z M 280.089844 187.148438 C 280.210938 189.351562 280.308594 190.628906 280.640625 192.492188 L 285.085938 194.230469 C 285.777344 194.078125 287.898438 192.582031 289.492188 191.128906 C 289.457031 190.808594 289.433594 190.273438 289.410156 189.667969 C 289.367188 188.480469 289.304688 186.863281 289.0625 186.117188 C 288.070312 185.132812 286.195312 184.285156 284.15625 183.898438 Z M 272.652344 192.589844 C 272.402344 192.761719 272.183594 192.84375 271.734375 192.96875 C 272.398438 194.175781 273.261719 195.25 274.300781 196.167969 C 275.308594 197.058594 276.449219 197.765625 277.683594 198.269531 C 278.078125 198.292969 278.382812 198.214844 278.753906 197.984375 C 278.015625 197.089844 277.351562 196.152344 276.769531 195.195312 C 275.632812 195.078125 273.066406 192.941406 272.652344 192.589844 Z M 285.792969 177.054688 C 285.78125 177.054688 285.773438 177.058594 285.761719 177.0625 C 285.691406 177.078125 285.621094 177.089844 285.550781 177.101562 C 284.910156 177.21875 284.355469 177.320312 282.785156 179.105469 C 282.761719 179.132812 282.734375 179.160156 282.710938 179.191406 C 283.6875 180.992188 284.085938 182.621094 284.285156 183.5 C 286.3125 183.890625 288.191406 184.734375 289.25 185.722656 C 289.566406 185.421875 289.84375 185.117188 290.113281 184.824219 C 290.566406 184.324219 291.03125 183.8125 291.6875 183.332031 C 291.523438 181.328125 290.792969 180.148438 290.152344 179.109375 C 290.152344 179.109375 290.050781 178.949219 290.011719 178.882812 C 290.003906 178.871094 289.996094 178.855469 289.992188 178.839844 C 288.550781 177.855469 286.875 177.242188 285.792969 177.054688 Z M 275.578125 184.546875 C 274.367188 185.113281 273.585938 185.667969 272.898438 186.449219 C 272.679688 186.695312 272.46875 186.96875 272.25 187.285156 C 272.246094 187.289062 272.242188 187.296875 272.238281 187.300781 C 272.230469 187.308594 272.226562 187.3125 272.21875 187.320312 C 271.878906 188.261719 272.257812 189.78125 272.5625 191.007812 C 272.679688 191.46875 272.78125 191.878906 272.828125 192.203125 C 272.84375 192.207031 272.855469 192.21875 272.871094 192.226562 C 273.996094 193.210938 276.304688 194.90625 276.90625 194.78125 C 276.9375 194.773438 276.972656 194.777344 277.003906 194.789062 L 280.222656 192.523438 C 279.894531 190.667969 279.796875 189.390625 279.675781 187.195312 C 278.484375 186.667969 276.949219 185.550781 275.824219 184.726562 C 275.738281 184.664062 275.65625 184.605469 275.578125 184.546875 Z M 276.078125 177.253906 C 276.019531 177.304688 275.972656 177.347656 275.925781 177.398438 C 275.867188 177.46875 275.792969 177.570312 275.691406 177.800781 L 275.707031 177.808594 C 276.160156 178.117188 276.671875 178.460938 277.285156 179.1875 C 278.933594 178.703125 280.769531 178.789062 282.367188 178.949219 C 282.402344 178.910156 282.4375 178.871094 282.46875 178.832031 C 284.054688 177.035156 284.71875 176.835938 285.371094 176.714844 C 284.953125 176.273438 284.5 176.050781 284.023438 175.824219 C 283.910156 175.769531 283.800781 175.714844 283.6875 175.65625 C 283.632812 175.628906 283.601562 175.570312 283.601562 175.511719 C 281.789062 175.277344 279.929688 175.464844 278.207031 176.050781 C 277.570312 176.375 276.992188 176.714844 276.566406 176.960938 C 276.386719 177.066406 276.230469 177.160156 276.109375 177.222656 Z M 275.316406 178.046875 C 274.96875 177.882812 273.871094 178.839844 273.402344 179.25 C 273.289062 179.347656 273.191406 179.433594 273.109375 179.5 C 271.75 181.074219 270.84375 182.964844 270.460938 185 C 270.476562 184.988281 270.492188 184.972656 270.507812 184.957031 C 270.550781 184.925781 270.609375 184.914062 270.660156 184.929688 C 270.710938 184.945312 270.753906 184.988281 270.769531 185.039062 C 271.042969 185.980469 271.585938 186.488281 271.949219 186.828125 C 271.972656 186.847656 271.996094 186.871094 272.019531 186.894531 C 272.210938 186.625 272.398438 186.390625 272.589844 186.171875 C 273.308594 185.351562 274.121094 184.773438 275.375 184.183594 C 275.371094 183.167969 276.433594 180.503906 276.941406 179.425781 C 276.375 178.765625 275.898438 178.441406 275.472656 178.152344 L 275.378906 178.089844 C 275.371094 178.085938 275.363281 178.082031 275.359375 178.078125 C 275.359375 178.074219 275.316406 178.046875 275.316406 178.046875 Z M 272.890625 179.132812 C 273.484375 178.460938 274.148438 177.855469 274.871094 177.332031 C 274.875 177.328125 274.878906 177.328125 274.878906 177.324219 C 274.976562 177.253906 275.082031 177.179688 275.195312 177.101562 C 275.8125 176.683594 276.476562 176.320312 277.167969 176.019531 C 277.597656 175.828125 277.964844 175.6875 278.234375 175.617188 C 281.972656 174.394531 286.109375 175.039062 289.296875 177.34375 C 289.789062 177.6875 290.21875 178.039062 290.507812 178.339844 C 292.863281 180.542969 294.25 183.527344 294.410156 186.75 L 294.410156 186.761719 C 294.417969 186.789062 294.417969 186.816406 294.414062 186.839844 C 294.546875 190.015625 293.472656 193.066406 291.382812 195.4375 C 287.96875 199.308594 282.441406 200.609375 277.621094 198.683594 C 277.507812 198.632812 277.367188 198.585938 277.203125 198.507812 C 276.050781 197.996094 274.984375 197.3125 274.035156 196.472656 C 268.9375 191.976562 268.421875 184.199219 272.890625 179.132812 " fill-opacity="1" fill-rule="nonzero"/></g><g clip-path="url(#19b56d0600)"><path fill="#ffffff" d="M 104.554688 193.117188 C 105.445312 191.527344 105.949219 189.75 106.03125 187.90625 C 105.765625 189.242188 105.25 190.871094 104.996094 191.445312 C 105.007812 191.472656 105.007812 191.5 105.003906 191.527344 C 104.949219 191.929688 104.839844 192.4375 104.554688 193.117188 Z M 101.8125 191.421875 C 100.152344 192.9375 98.078125 194.394531 97.257812 194.625 C 97.144531 196.050781 96.953125 197.09375 96.671875 197.792969 C 97.292969 197.855469 98.691406 197.929688 100.148438 197.546875 C 100.175781 197.539062 100.199219 197.539062 100.222656 197.542969 C 101.132812 197.011719 101.96875 196.355469 102.710938 195.589844 C 102.707031 195.550781 102.714844 195.507812 102.738281 195.472656 C 104.0625 193.546875 104.429688 192.425781 104.5625 191.664062 C 103.550781 191.796875 103.292969 191.738281 102.738281 191.609375 C 102.507812 191.554688 102.226562 191.492188 101.8125 191.421875 Z M 91.132812 198.253906 C 90.917969 198.398438 90.722656 198.5 90.53125 198.570312 C 93.304688 199.476562 96.289062 199.335938 98.941406 198.191406 C 97.734375 198.328125 96.730469 198.226562 96.394531 198.179688 C 96.367188 198.175781 96.34375 198.167969 96.324219 198.15625 C 94.917969 198.351562 92.921875 198.519531 91.132812 198.253906 Z M 106 186.332031 C 105.757812 183.523438 104.542969 180.914062 102.550781 178.921875 C 103.214844 180 103.964844 181.226562 104.128906 183.324219 C 105.253906 184.320312 105.714844 185.566406 105.964844 186.242188 C 105.976562 186.273438 105.988281 186.300781 106 186.332031 Z M 92.117188 187.148438 C 92.234375 189.351562 92.332031 190.628906 92.664062 192.492188 L 97.113281 194.230469 C 97.804688 194.078125 99.921875 192.582031 101.519531 191.128906 C 101.480469 190.808594 101.460938 190.273438 101.4375 189.667969 C 101.390625 188.480469 101.328125 186.863281 101.085938 186.117188 C 100.097656 185.132812 98.21875 184.285156 96.179688 183.898438 Z M 84.679688 192.589844 C 84.425781 192.761719 84.210938 192.84375 83.761719 192.96875 C 84.425781 194.175781 85.289062 195.25 86.328125 196.167969 C 87.335938 197.058594 88.472656 197.765625 89.710938 198.269531 C 90.101562 198.292969 90.410156 198.214844 90.78125 197.984375 C 90.042969 197.089844 89.375 196.152344 88.796875 195.195312 C 87.660156 195.078125 85.09375 192.941406 84.679688 192.589844 Z M 97.816406 177.054688 C 97.808594 177.054688 97.796875 177.058594 97.789062 177.0625 C 97.714844 177.078125 97.644531 177.089844 97.578125 177.101562 C 96.9375 177.21875 96.382812 177.320312 94.8125 179.105469 C 94.785156 179.132812 94.761719 179.160156 94.734375 179.191406 C 95.710938 180.992188 96.109375 182.621094 96.308594 183.5 C 98.339844 183.890625 100.21875 184.734375 101.277344 185.722656 C 101.59375 185.421875 101.871094 185.117188 102.140625 184.824219 C 102.589844 184.324219 103.058594 183.8125 103.710938 183.332031 C 103.546875 181.328125 102.820312 180.148438 102.175781 179.109375 C 102.175781 179.109375 102.078125 178.949219 102.039062 178.882812 C 102.03125 178.871094 102.023438 178.855469 102.019531 178.839844 C 100.578125 177.855469 98.898438 177.242188 97.816406 177.054688 Z M 87.601562 184.546875 C 86.390625 185.113281 85.613281 185.667969 84.925781 186.449219 C 84.707031 186.695312 84.496094 186.96875 84.273438 187.285156 C 84.273438 187.289062 84.265625 187.296875 84.265625 187.300781 C 84.257812 187.308594 84.25 187.3125 84.246094 187.320312 C 83.90625 188.261719 84.285156 189.78125 84.589844 191.007812 C 84.703125 191.46875 84.804688 191.878906 84.855469 192.203125 C 84.867188 192.207031 84.882812 192.21875 84.894531 192.226562 C 86.019531 193.210938 88.332031 194.90625 88.933594 194.78125 C 88.964844 194.773438 89 194.777344 89.027344 194.789062 L 92.25 192.523438 C 91.917969 190.667969 91.820312 189.390625 91.703125 187.195312 C 90.511719 186.667969 88.976562 185.550781 87.847656 184.726562 C 87.765625 184.664062 87.683594 184.605469 87.601562 184.546875 Z M 88.105469 177.253906 C 88.046875 177.304688 87.996094 177.347656 87.953125 177.398438 C 87.890625 177.46875 87.816406 177.570312 87.71875 177.800781 L 87.730469 177.808594 C 88.183594 178.117188 88.699219 178.460938 89.308594 179.1875 C 90.960938 178.703125 92.796875 178.789062 94.394531 178.949219 C 94.425781 178.910156 94.460938 178.871094 94.496094 178.832031 C 96.082031 177.035156 96.746094 176.835938 97.394531 176.714844 C 96.980469 176.273438 96.527344 176.050781 96.050781 175.824219 C 95.9375 175.769531 95.824219 175.714844 95.714844 175.65625 C 95.660156 175.628906 95.625 175.570312 95.625 175.511719 C 93.816406 175.277344 91.953125 175.464844 90.234375 176.050781 C 89.597656 176.375 89.015625 176.714844 88.59375 176.960938 C 88.410156 177.066406 88.253906 177.160156 88.136719 177.222656 Z M 87.34375 178.046875 C 86.996094 177.882812 85.898438 178.839844 85.429688 179.25 C 85.316406 179.347656 85.214844 179.433594 85.136719 179.5 C 83.777344 181.074219 82.867188 182.964844 82.484375 185 C 82.5 184.988281 82.519531 184.972656 82.535156 184.957031 C 82.578125 184.925781 82.632812 184.914062 82.6875 184.929688 C 82.738281 184.945312 82.777344 184.988281 82.792969 185.039062 C 83.066406 185.980469 83.613281 186.488281 83.972656 186.828125 C 84 186.847656 84.019531 186.871094 84.042969 186.894531 C 84.234375 186.625 84.421875 186.390625 84.613281 186.171875 C 85.335938 185.351562 86.148438 184.773438 87.402344 184.183594 C 87.394531 183.167969 88.460938 180.503906 88.964844 179.425781 C 88.402344 178.765625 87.921875 178.441406 87.5 178.152344 L 87.402344 178.089844 C 87.394531 178.085938 87.390625 178.082031 87.386719 178.078125 C 87.382812 178.074219 87.34375 178.046875 87.34375 178.046875 Z M 84.917969 179.132812 C 85.507812 178.460938 86.175781 177.855469 86.898438 177.332031 C 86.902344 177.328125 86.902344 177.328125 86.90625 177.324219 C 87 177.253906 87.109375 177.179688 87.222656 177.101562 C 87.839844 176.683594 88.5 176.320312 89.191406 176.019531 C 89.621094 175.828125 89.992188 175.6875 90.257812 175.617188 C 94 174.394531 98.132812 175.039062 101.320312 177.34375 C 101.8125 177.6875 102.242188 178.039062 102.53125 178.339844 C 104.886719 180.542969 106.273438 183.527344 106.433594 186.75 L 106.4375 186.761719 C 106.445312 186.789062 106.445312 186.816406 106.4375 186.839844 C 106.574219 190.015625 105.496094 193.066406 103.40625 195.4375 C 99.996094 199.308594 94.46875 200.609375 89.648438 198.683594 C 89.53125 198.632812 89.394531 198.585938 89.230469 198.507812 C 88.078125 197.996094 87.011719 197.3125 86.058594 196.472656 C 80.960938 191.976562 80.449219 184.199219 84.917969 179.132812 " fill-opacity="1" fill-rule="nonzero"/></g><g clip-path="url(#a91f9942d8)"><g clip-path="url(#f8a6793ce4)"><g clip-path="url(#4557ab3718)"><path fill="#ffffff" d="M 230.273438 147.089844 L 229.710938 148.210938 L 230.039062 148.714844 C 227.613281 154.820312 225.691406 157.996094 224.464844 157.136719 C 223.019531 155.183594 222.535156 152.902344 222.738281 150.386719 L 223.4375 149.671875 L 222.902344 147.730469 L 222.105469 149.578125 L 222.710938 150.398438 C 222.304688 152.609375 221.742188 154.640625 220.851562 156.304688 C 219.914062 158.058594 219.550781 158.386719 217.929688 156.78125 C 216.726562 155.59375 215.78125 153.753906 214.707031 152.238281 L 215.355469 150.476562 L 212.28125 146.777344 L 212.367188 151.585938 L 214.003906 152.496094 C 214.179688 154.347656 214.667969 156.359375 214.53125 158.042969 C 214.347656 160.320312 213.859375 160.304688 212.003906 159.589844 C 210.246094 158.910156 208.488281 157.734375 206.738281 156.328125 L 206.667969 155.3125 L 204.855469 154.429688 L 205.714844 156.25 L 206.714844 156.332031 C 208.511719 158.109375 209.632812 160.15625 209.808594 162.578125 C 209.441406 164.027344 205.914062 162.875 200.085938 159.832031 L 200.011719 159.234375 L 198.851562 158.75 L 199.453125 159.855469 L 200.039062 159.867188 L 209.71875 167.921875 L 206.066406 163.621094 C 206.113281 163.636719 206.164062 163.652344 206.210938 163.667969 C 207.402344 164.0625 209.460938 164.65625 210.417969 163.492188 C 210.582031 163.296875 210.691406 163.066406 210.757812 162.820312 L 210.792969 162.664062 L 210.78125 162.507812 C 210.714844 161.566406 210.515625 160.679688 210.207031 159.84375 C 210.679688 160.089844 211.164062 160.3125 211.652344 160.5 C 212.480469 160.820312 213.535156 161.25 214.382812 160.785156 C 215.300781 160.28125 215.429688 159.054688 215.503906 158.121094 C 215.589844 157.085938 215.46875 156.011719 215.324219 154.96875 C 215.890625 155.855469 216.503906 156.746094 217.242188 157.476562 C 217.90625 158.136719 218.804688 158.980469 219.828125 158.761719 C 220.777344 158.5625 221.296875 157.546875 221.710938 156.765625 C 221.960938 156.304688 222.183594 155.820312 222.378906 155.328125 C 222.691406 156.160156 223.121094 156.960938 223.679688 157.71875 L 223.777344 157.847656 L 223.90625 157.9375 C 224.113281 158.082031 224.347656 158.183594 224.601562 158.226562 C 226.089844 158.484375 227.257812 156.691406 227.902344 155.613281 C 227.929688 155.570312 227.957031 155.527344 227.980469 155.484375 L 228.105469 160.675781 L 230.101562 148.710938 L 230.535156 148.316406 Z M 230.273438 147.089844 " fill-opacity="1" fill-rule="evenodd"/></g></g></g><g clip-path="url(#5f87f45ea3)"><g clip-path="url(#bfff0f44d2)"><g clip-path="url(#af9f159ff7)"><path fill="#ffffff" d="M 212.886719 157.863281 C 213.171875 158.304688 213.46875 158.75 213.800781 159.152344 C 213.859375 158.972656 213.914062 158.683594 213.960938 158.21875 C 213.269531 157.246094 212.652344 156.078125 211.910156 155.230469 C 211.898438 156.449219 212.242188 157.851562 212.324219 159.121094 C 212.523438 159.195312 212.789062 159.292969 213.03125 159.367188 C 213.015625 158.867188 212.957031 158.359375 212.886719 157.863281 Z M 212.886719 157.863281 " fill-opacity="1" fill-rule="evenodd"/></g></g></g><g clip-path="url(#41bc1c9a09)"><g clip-path="url(#90b1b45858)"><g clip-path="url(#e245fec393)"><path fill="#ffffff" d="M 219.046875 155.578125 C 219.320312 156 219.605469 156.421875 219.921875 156.8125 C 220.058594 156.601562 220.195312 156.355469 220.296875 156.167969 C 219.53125 155.152344 218.875 153.859375 218.070312 152.941406 C 218.0625 154.066406 218.355469 155.347656 218.464844 156.53125 C 218.800781 156.855469 219.035156 157.039062 219.195312 157.140625 C 219.183594 156.621094 219.121094 156.09375 219.046875 155.578125 Z M 219.046875 155.578125 " fill-opacity="1" fill-rule="evenodd"/></g></g></g><g clip-path="url(#4764419d5b)"><g clip-path="url(#fa55772db6)"><g clip-path="url(#2f79d30117)"><path fill="#ffffff" d="M 225.519531 156.3125 C 225.359375 155.542969 225.265625 154.703125 225.03125 154.007812 C 224.769531 154.625 224.613281 155.371094 224.425781 156.078125 C 224.539062 156.265625 224.660156 156.453125 224.785156 156.632812 C 224.847656 156.433594 224.902344 156.226562 224.957031 156.027344 C 224.992188 156.238281 225.035156 156.449219 225.082031 156.660156 C 225.203125 156.597656 225.347656 156.492188 225.519531 156.3125 Z M 225.519531 156.3125 " fill-opacity="1" fill-rule="evenodd"/></g></g></g><g clip-path="url(#2dfbb043a9)"><g clip-path="url(#4d4239a51a)"><g clip-path="url(#b89b92b1d2)"><path fill="#ffffff" d="M 209.148438 161.75 C 208.542969 161.339844 207.941406 160.871094 207.339844 160.574219 C 207.613281 161.253906 208.089844 161.953125 208.472656 162.644531 C 208.71875 162.664062 208.898438 162.648438 209.027344 162.621094 C 208.925781 162.429688 208.820312 162.238281 208.710938 162.054688 C 208.882812 162.175781 209.058594 162.292969 209.238281 162.40625 C 209.214844 162.183594 209.1875 161.964844 209.148438 161.75 Z M 209.148438 161.75 " fill-opacity="1" fill-rule="evenodd"/></g></g></g><g fill="#ffffff" fill-opacity="1"><g transform="translate(113.595771, 141.59443)"><g><path d="M 3.28125 -4.5 C 2.726562 -3.695312 2.085938 -3 1.359375 -2.40625 C 0.628906 -1.8125 -0.0664062 -1.429688 -0.734375 -1.265625 L -1.765625 -2.953125 C -1.140625 -3.140625 -0.515625 -3.46875 0.109375 -3.9375 C 0.742188 -4.40625 1.273438 -4.953125 1.703125 -5.578125 C 2.222656 -6.335938 2.488281 -6.988281 2.5 -7.53125 C 2.507812 -8.082031 2.316406 -8.5 1.921875 -8.78125 C 1.617188 -8.988281 1.296875 -9.050781 0.953125 -8.96875 C 0.617188 -8.882812 0.289062 -8.71875 -0.03125 -8.46875 C -0.363281 -8.21875 -0.785156 -7.859375 -1.296875 -7.390625 C -2.035156 -6.734375 -2.664062 -6.222656 -3.1875 -5.859375 C -3.707031 -5.503906 -4.285156 -5.285156 -4.921875 -5.203125 C -5.554688 -5.128906 -6.210938 -5.320312 -6.890625 -5.78125 C -7.460938 -6.175781 -7.875 -6.6875 -8.125 -7.3125 C -8.375 -7.9375 -8.421875 -8.65625 -8.265625 -9.46875 C -8.117188 -10.289062 -7.738281 -11.15625 -7.125 -12.0625 C -6.6875 -12.6875 -6.179688 -13.25 -5.609375 -13.75 C -5.046875 -14.257812 -4.460938 -14.628906 -3.859375 -14.859375 L -2.796875 -13.234375 C -3.359375 -12.984375 -3.878906 -12.65625 -4.359375 -12.25 C -4.835938 -11.851562 -5.234375 -11.425781 -5.546875 -10.96875 C -6.066406 -10.207031 -6.320312 -9.550781 -6.3125 -9 C -6.300781 -8.457031 -6.085938 -8.039062 -5.671875 -7.75 C -5.378906 -7.550781 -5.066406 -7.492188 -4.734375 -7.578125 C -4.398438 -7.660156 -4.066406 -7.828125 -3.734375 -8.078125 C -3.410156 -8.328125 -2.988281 -8.6875 -2.46875 -9.15625 C -1.757812 -9.800781 -1.144531 -10.300781 -0.625 -10.65625 C -0.101562 -11.019531 0.472656 -11.242188 1.109375 -11.328125 C 1.753906 -11.410156 2.410156 -11.222656 3.078125 -10.765625 C 3.648438 -10.367188 4.054688 -9.859375 4.296875 -9.234375 C 4.546875 -8.609375 4.59375 -7.890625 4.4375 -7.078125 C 4.28125 -6.265625 3.894531 -5.40625 3.28125 -4.5 Z M 3.28125 -4.5 "/></g></g></g><g fill="#ffffff" fill-opacity="1"><g transform="translate(119.53538, 132.856992)"><g><path d="M -5.140625 -10.125 L -7.875 -7.015625 L -9.359375 -8.3125 L -2.359375 -16.28125 L -0.875 -14.984375 L -3.609375 -11.875 L 4.3125 -4.921875 L 2.78125 -3.171875 Z M -5.140625 -10.125 "/></g></g></g><g fill="#ffffff" fill-opacity="1"><g transform="translate(125.964691, 125.218191)"><g><path d="M 5.828125 -4.78125 C 4.847656 -3.945312 3.789062 -3.398438 2.65625 -3.140625 C 1.519531 -2.890625 0.410156 -2.953125 -0.671875 -3.328125 C -1.753906 -3.703125 -2.6875 -4.347656 -3.46875 -5.265625 C -4.269531 -6.179688 -4.769531 -7.203125 -4.96875 -8.328125 C -5.164062 -9.453125 -5.054688 -10.554688 -4.640625 -11.640625 C -4.222656 -12.734375 -3.523438 -13.695312 -2.546875 -14.53125 C -1.585938 -15.351562 -0.539062 -15.890625 0.59375 -16.140625 C 1.738281 -16.398438 2.851562 -16.347656 3.9375 -15.984375 C 5.019531 -15.617188 5.960938 -14.972656 6.765625 -14.046875 C 7.554688 -13.117188 8.046875 -12.09375 8.234375 -10.96875 C 8.429688 -9.84375 8.316406 -8.734375 7.890625 -7.640625 C 7.472656 -6.554688 6.785156 -5.601562 5.828125 -4.78125 Z M 4.515625 -6.3125 C 5.140625 -6.851562 5.582031 -7.484375 5.84375 -8.203125 C 6.113281 -8.921875 6.171875 -9.660156 6.015625 -10.421875 C 5.867188 -11.179688 5.523438 -11.878906 4.984375 -12.515625 C 4.429688 -13.140625 3.789062 -13.582031 3.0625 -13.84375 C 2.34375 -14.113281 1.601562 -14.175781 0.84375 -14.03125 C 0.09375 -13.882812 -0.59375 -13.539062 -1.21875 -13 C -1.851562 -12.457031 -2.300781 -11.820312 -2.5625 -11.09375 C -2.832031 -10.375 -2.890625 -9.628906 -2.734375 -8.859375 C -2.585938 -8.097656 -2.238281 -7.40625 -1.6875 -6.78125 C -1.144531 -6.144531 -0.515625 -5.695312 0.203125 -5.4375 C 0.929688 -5.175781 1.671875 -5.117188 2.421875 -5.265625 C 3.179688 -5.421875 3.878906 -5.769531 4.515625 -6.3125 Z M 4.515625 -6.3125 "/></g></g></g><g fill="#ffffff" fill-opacity="1"><g transform="translate(136.36857, 115.811572)"><g><path d="M 11.21875 -20.71875 L 13.765625 -7.78125 L 11.625 -6.578125 L 4.375 -13.109375 L 6.1875 -3.5 L 4.03125 -2.28125 L -5.734375 -11.125 L -3.640625 -12.3125 L 3.734375 -5.5625 L 1.875 -15.4375 L 3.765625 -16.5 L 11.203125 -9.734375 L 9.296875 -19.625 Z M 11.21875 -20.71875 "/></g></g></g><g fill="#ffffff" fill-opacity="1"><g transform="translate(153.45665, 106.502732)"><g><path d="M 0.234375 -11.28125 L 1.515625 -7.6875 L 7.21875 -9.71875 L 7.875 -7.875 L 2.171875 -5.84375 L 3.765625 -1.328125 L 1.59375 -0.5625 L -2.578125 -12.359375 L 6.015625 -15.40625 L 6.65625 -13.5625 Z M 0.234375 -11.28125 "/></g></g></g><g fill="#ffffff" fill-opacity="1"><g transform="translate(163.375561, 102.789194)"><g><path d="M 7.421875 -1.296875 C 6.160156 -1.046875 4.972656 -1.085938 3.859375 -1.421875 C 2.753906 -1.765625 1.816406 -2.363281 1.046875 -3.21875 C 0.285156 -4.082031 -0.210938 -5.101562 -0.453125 -6.28125 C -0.679688 -7.476562 -0.601562 -8.613281 -0.21875 -9.6875 C 0.15625 -10.769531 0.789062 -11.679688 1.6875 -12.421875 C 2.582031 -13.171875 3.660156 -13.671875 4.921875 -13.921875 C 6.171875 -14.160156 7.351562 -14.109375 8.46875 -13.765625 C 9.582031 -13.429688 10.519531 -12.835938 11.28125 -11.984375 C 12.039062 -11.128906 12.539062 -10.097656 12.78125 -8.890625 C 13.019531 -7.703125 12.945312 -6.570312 12.5625 -5.5 C 12.1875 -4.425781 11.546875 -3.515625 10.640625 -2.765625 C 9.742188 -2.023438 8.671875 -1.535156 7.421875 -1.296875 Z M 7.03125 -3.296875 C 7.84375 -3.453125 8.539062 -3.773438 9.125 -4.265625 C 9.707031 -4.765625 10.117188 -5.378906 10.359375 -6.109375 C 10.597656 -6.847656 10.632812 -7.625 10.46875 -8.4375 C 10.3125 -9.257812 9.984375 -9.960938 9.484375 -10.546875 C 8.984375 -11.140625 8.367188 -11.554688 7.640625 -11.796875 C 6.910156 -12.035156 6.140625 -12.078125 5.328125 -11.921875 C 4.503906 -11.753906 3.800781 -11.421875 3.21875 -10.921875 C 2.632812 -10.421875 2.21875 -9.800781 1.96875 -9.0625 C 1.726562 -8.332031 1.6875 -7.554688 1.84375 -6.734375 C 2.007812 -5.921875 2.34375 -5.21875 2.84375 -4.625 C 3.351562 -4.039062 3.972656 -3.628906 4.703125 -3.390625 C 5.429688 -3.160156 6.207031 -3.128906 7.03125 -3.296875 Z M 7.03125 -3.296875 "/></g></g></g><g fill="#ffffff" fill-opacity="1"><g transform="translate(177.297862, 100.044013)"><g><path d="M 9.84375 -0.40625 L 7.15625 -3.96875 C 7.050781 -3.945312 6.890625 -3.929688 6.671875 -3.921875 L 3.84375 -3.8125 L 4 -0.171875 L 1.6875 -0.0625 L 1.171875 -12.5625 L 6.3125 -12.78125 C 7.394531 -12.820312 8.34375 -12.679688 9.15625 -12.359375 C 9.976562 -12.035156 10.613281 -11.546875 11.0625 -10.890625 C 11.519531 -10.242188 11.769531 -9.46875 11.8125 -8.5625 C 11.84375 -7.625 11.644531 -6.804688 11.21875 -6.109375 C 10.789062 -5.410156 10.148438 -4.875 9.296875 -4.5 L 12.359375 -0.515625 Z M 9.46875 -8.46875 C 9.4375 -9.257812 9.148438 -9.859375 8.609375 -10.265625 C 8.066406 -10.671875 7.289062 -10.851562 6.28125 -10.8125 L 3.5625 -10.703125 L 3.765625 -5.734375 L 6.484375 -5.84375 C 7.492188 -5.882812 8.25 -6.128906 8.75 -6.578125 C 9.257812 -7.035156 9.5 -7.664062 9.46875 -8.46875 Z M 9.46875 -8.46875 "/></g></g></g><g fill="#ffffff" fill-opacity="1"><g transform="translate(189.507523, 99.40956)"><g><path d="M 3.0625 -12.25 L 8.5 -11.640625 C 9.820312 -11.492188 10.96875 -11.101562 11.9375 -10.46875 C 12.914062 -9.84375 13.632812 -9.023438 14.09375 -8.015625 C 14.5625 -7.015625 14.722656 -5.898438 14.578125 -4.671875 C 14.441406 -3.429688 14.035156 -2.375 13.359375 -1.5 C 12.691406 -0.625 11.8125 0.0078125 10.71875 0.40625 C 9.632812 0.8125 8.429688 0.941406 7.109375 0.796875 L 1.671875 0.1875 Z M 7.21875 -1.171875 C 8.132812 -1.066406 8.957031 -1.148438 9.6875 -1.421875 C 10.414062 -1.691406 11 -2.128906 11.4375 -2.734375 C 11.882812 -3.335938 12.15625 -4.066406 12.25 -4.921875 C 12.351562 -5.773438 12.253906 -6.539062 11.953125 -7.21875 C 11.648438 -7.90625 11.171875 -8.460938 10.515625 -8.890625 C 9.867188 -9.328125 9.085938 -9.597656 8.171875 -9.703125 L 5.140625 -10.046875 L 4.1875 -1.515625 Z M 7.21875 -1.171875 "/></g></g></g><g fill="#ffffff" fill-opacity="1"><g transform="translate(203.534553, 101.20789)"><g/></g></g><g fill="#ffffff" fill-opacity="1"><g transform="translate(207.845749, 101.892825)"><g><path d="M 6.65625 2.40625 C 5.007812 1.851562 3.882812 0.96875 3.28125 -0.25 C 2.675781 -1.476562 2.660156 -2.953125 3.234375 -4.671875 L 5.484375 -11.359375 L 7.671875 -10.625 L 5.453125 -4.03125 C 4.671875 -1.695312 5.289062 -0.191406 7.3125 0.484375 C 9.3125 1.148438 10.703125 0.316406 11.484375 -2.015625 L 13.703125 -8.609375 L 15.859375 -7.875 L 13.609375 -1.1875 C 13.035156 0.53125 12.140625 1.691406 10.921875 2.296875 C 9.710938 2.910156 8.289062 2.945312 6.65625 2.40625 Z M 6.65625 2.40625 "/></g></g></g><g fill="#ffffff" fill-opacity="1"><g transform="translate(220.423269, 106.019836)"><g><path d="M 17.125 -5.1875 L 11.34375 5.90625 L 9.65625 5.03125 L 7.4375 -5.671875 L 3.53125 1.84375 L 1.5 0.78125 L 7.28125 -10.3125 L 8.96875 -9.4375 L 11.1875 1.25 L 15.09375 -6.25 Z M 17.125 -5.1875 "/></g></g></g><g fill="#ffffff" fill-opacity="1"><g transform="translate(232.603743, 112.59598)"><g><path d="M 8.375 -9.453125 L 10.296875 -8.15625 L 3.328125 2.234375 L 1.40625 0.9375 Z M 8.375 -9.453125 "/></g></g></g><g fill="#ffffff" fill-opacity="1"><g transform="translate(236.995389, 115.375725)"><g><path d="M 9.921875 -5.546875 L 6.703125 -8.15625 L 7.9375 -9.671875 L 16.1875 -3 L 14.953125 -1.484375 L 11.734375 -4.078125 L 5.09375 4.125 L 3.28125 2.65625 Z M 9.921875 -5.546875 "/></g></g></g><g fill="#ffffff" fill-opacity="1"><g transform="translate(244.867415, 121.645242)"><g><path d="M 9.078125 6.625 L 7.671875 7.984375 L 1.171875 1.21875 L 10.203125 -7.453125 L 16.515625 -0.875 L 15.09375 0.484375 L 10.375 -4.421875 L 8.03125 -2.171875 L 12.234375 2.1875 L 10.859375 3.515625 L 6.65625 -0.84375 L 4.171875 1.53125 Z M 9.078125 6.625 "/></g></g></g><g fill="#ffffff" fill-opacity="1"><g transform="translate(252.722719, 129.585831)"><g><path d="M 11.171875 -5.890625 L 14.34375 -1.4375 C 15.113281 -0.351562 15.585938 0.757812 15.765625 1.90625 C 15.941406 3.050781 15.8125 4.132812 15.375 5.15625 C 14.9375 6.175781 14.210938 7.046875 13.203125 7.765625 C 12.191406 8.484375 11.132812 8.878906 10.03125 8.953125 C 8.925781 9.035156 7.863281 8.804688 6.84375 8.265625 C 5.820312 7.722656 4.925781 6.910156 4.15625 5.828125 L 0.984375 1.375 Z M 5.703125 4.59375 C 6.234375 5.34375 6.835938 5.898438 7.515625 6.265625 C 8.203125 6.628906 8.921875 6.773438 9.671875 6.703125 C 10.421875 6.640625 11.144531 6.359375 11.84375 5.859375 C 12.539062 5.359375 13.039062 4.765625 13.34375 4.078125 C 13.65625 3.398438 13.753906 2.671875 13.640625 1.890625 C 13.535156 1.117188 13.21875 0.359375 12.6875 -0.390625 L 10.921875 -2.859375 L 3.9375 2.125 Z M 5.703125 4.59375 "/></g></g></g><g fill="#ffffff" fill-opacity="1"><g transform="translate(113.962187, 251.686612)"><g><path d="M 10.359375 -4.515625 L 7.625 -1.859375 L 11.84375 2.46875 L 10.453125 3.84375 L 6.234375 -0.484375 L 2.796875 2.859375 L 1.171875 1.203125 L 10.125 -7.53125 L 16.5 -1 L 15.109375 0.359375 Z M 10.359375 -4.515625 "/></g></g></g><g fill="#ffffff" fill-opacity="1"><g transform="translate(122.46176, 260.500211)"><g><path d="M 5.875 4.71875 C 4.851562 3.9375 4.101562 3.015625 3.625 1.953125 C 3.15625 0.890625 2.988281 -0.207031 3.125 -1.34375 C 3.257812 -2.488281 3.691406 -3.539062 4.421875 -4.5 C 5.160156 -5.46875 6.0625 -6.164062 7.125 -6.59375 C 8.1875 -7.019531 9.289062 -7.140625 10.4375 -6.953125 C 11.582031 -6.765625 12.664062 -6.28125 13.6875 -5.5 C 14.695312 -4.726562 15.441406 -3.8125 15.921875 -2.75 C 16.398438 -1.6875 16.570312 -0.585938 16.4375 0.546875 C 16.3125 1.679688 15.875 2.734375 15.125 3.703125 C 14.382812 4.671875 13.484375 5.367188 12.421875 5.796875 C 11.367188 6.222656 10.265625 6.34375 9.109375 6.15625 C 7.960938 5.96875 6.882812 5.488281 5.875 4.71875 Z M 7.109375 3.09375 C 7.765625 3.59375 8.472656 3.894531 9.234375 4 C 9.992188 4.113281 10.726562 4.019531 11.4375 3.71875 C 12.144531 3.425781 12.753906 2.945312 13.265625 2.28125 C 13.773438 1.625 14.082031 0.90625 14.1875 0.125 C 14.300781 -0.644531 14.203125 -1.378906 13.890625 -2.078125 C 13.585938 -2.785156 13.109375 -3.390625 12.453125 -3.890625 C 11.785156 -4.398438 11.070312 -4.707031 10.3125 -4.8125 C 9.5625 -4.925781 8.828125 -4.828125 8.109375 -4.515625 C 7.398438 -4.203125 6.789062 -3.71875 6.28125 -3.0625 C 5.769531 -2.394531 5.460938 -1.679688 5.359375 -0.921875 C 5.253906 -0.160156 5.351562 0.566406 5.65625 1.265625 C 5.957031 1.972656 6.441406 2.582031 7.109375 3.09375 Z M 7.109375 3.09375 "/></g></g></g><g fill="#ffffff" fill-opacity="1"><g transform="translate(135.237522, 270.171166)"><g><path d="M 6.578125 3.6875 C 5.441406 3.082031 4.550781 2.296875 3.90625 1.328125 C 3.257812 0.359375 2.90625 -0.695312 2.84375 -1.84375 C 2.789062 -2.988281 3.050781 -4.09375 3.625 -5.15625 C 4.1875 -6.238281 4.957031 -7.078125 5.9375 -7.671875 C 6.914062 -8.265625 7.988281 -8.5625 9.15625 -8.5625 C 10.320312 -8.570312 11.472656 -8.273438 12.609375 -7.671875 C 13.722656 -7.078125 14.601562 -6.296875 15.25 -5.328125 C 15.894531 -4.359375 16.242188 -3.304688 16.296875 -2.171875 C 16.359375 -1.035156 16.101562 0.078125 15.53125 1.171875 C 14.957031 2.242188 14.179688 3.078125 13.203125 3.671875 C 12.234375 4.265625 11.164062 4.5625 10 4.5625 C 8.832031 4.570312 7.691406 4.28125 6.578125 3.6875 Z M 7.53125 1.890625 C 8.257812 2.285156 9.003906 2.472656 9.765625 2.453125 C 10.535156 2.429688 11.242188 2.210938 11.890625 1.796875 C 12.546875 1.378906 13.070312 0.804688 13.46875 0.078125 C 13.851562 -0.660156 14.035156 -1.414062 14.015625 -2.1875 C 13.992188 -2.96875 13.773438 -3.675781 13.359375 -4.3125 C 12.953125 -4.957031 12.382812 -5.476562 11.65625 -5.875 C 10.914062 -6.269531 10.160156 -6.457031 9.390625 -6.4375 C 8.617188 -6.425781 7.90625 -6.207031 7.25 -5.78125 C 6.601562 -5.363281 6.085938 -4.785156 5.703125 -4.046875 C 5.304688 -3.316406 5.117188 -2.566406 5.140625 -1.796875 C 5.160156 -1.023438 5.378906 -0.316406 5.796875 0.328125 C 6.210938 0.972656 6.789062 1.492188 7.53125 1.890625 Z M 7.53125 1.890625 "/></g></g></g><g fill="#ffffff" fill-opacity="1"><g transform="translate(149.350085, 277.42659)"><g><path d="M 7.546875 -8.484375 L 3.65625 -9.890625 L 4.328125 -11.734375 L 14.296875 -8.140625 L 13.625 -6.296875 L 9.734375 -7.703125 L 6.15625 2.21875 L 3.96875 1.4375 Z M 7.546875 -8.484375 "/></g></g></g><g fill="#ffffff" fill-opacity="1"><g transform="translate(160.195204, 281.388148)"><g><path d="M 11.6875 -4.125 C 12.3125 -3.757812 12.765625 -3.273438 13.046875 -2.671875 C 13.328125 -2.066406 13.382812 -1.378906 13.21875 -0.609375 C 12.988281 0.453125 12.40625 1.179688 11.46875 1.578125 C 10.53125 1.972656 9.285156 2.003906 7.734375 1.671875 L 1.65625 0.359375 L 4.296875 -11.875 L 10.015625 -10.640625 C 11.460938 -10.328125 12.515625 -9.800781 13.171875 -9.0625 C 13.828125 -8.320312 14.046875 -7.460938 13.828125 -6.484375 C 13.703125 -5.867188 13.445312 -5.359375 13.0625 -4.953125 C 12.6875 -4.554688 12.226562 -4.28125 11.6875 -4.125 Z M 6.171875 -9.609375 L 5.4375 -6.234375 L 8.65625 -5.53125 C 9.457031 -5.363281 10.097656 -5.375 10.578125 -5.5625 C 11.066406 -5.75 11.367188 -6.117188 11.484375 -6.671875 C 11.609375 -7.234375 11.488281 -7.703125 11.125 -8.078125 C 10.769531 -8.460938 10.191406 -8.738281 9.390625 -8.90625 Z M 7.96875 -0.140625 C 9.726562 0.234375 10.734375 -0.164062 10.984375 -1.34375 C 11.242188 -2.519531 10.492188 -3.296875 8.734375 -3.671875 L 5.0625 -4.46875 L 4.296875 -0.9375 Z M 7.96875 -0.140625 "/></g></g></g><g fill="#ffffff" fill-opacity="1"><g transform="translate(174.352071, 284.378293)"><g><path d="M 9.96875 -2.25 L 3.734375 -2.65625 L 2.3125 0.15625 L -0.09375 0 L 6.34375 -12.125 L 8.625 -11.96875 L 13.453125 0.875 L 11.015625 0.71875 Z M 9.328125 -4.109375 L 7.3125 -9.734375 L 4.625 -4.421875 Z M 9.328125 -4.109375 "/></g></g></g><g fill="#ffffff" fill-opacity="1"><g transform="translate(188.483194, 285.162044)"><g><path d="M 0.859375 -12.59375 L 3.15625 -12.75 L 3.859375 -2.234375 L 10.390625 -2.671875 L 10.515625 -0.703125 L 1.6875 -0.109375 Z M 0.859375 -12.59375 "/></g></g></g><g fill="#ffffff" fill-opacity="1"><g transform="translate(199.843641, 284.362257)"><g><path d="M -0.640625 -12.609375 L 1.640625 -13.03125 L 3.578125 -2.671875 L 10.015625 -3.875 L 10.375 -1.9375 L 1.65625 -0.3125 Z M -0.640625 -12.609375 "/></g></g></g><g fill="#ffffff" fill-opacity="1"><g transform="translate(210.823307, 282.170866)"><g/></g></g><g fill="#ffffff" fill-opacity="1"><g transform="translate(216.180762, 280.864723)"><g><path d="M 7.03125 -2.53125 C 5.851562 -2.070312 4.6875 -1.914062 3.53125 -2.0625 C 2.382812 -2.21875 1.363281 -2.644531 0.46875 -3.34375 C -0.414062 -4.050781 -1.078125 -4.972656 -1.515625 -6.109375 C -1.953125 -7.253906 -2.078125 -8.390625 -1.890625 -9.515625 C -1.703125 -10.640625 -1.226562 -11.644531 -0.46875 -12.53125 C 0.28125 -13.414062 1.242188 -14.082031 2.421875 -14.53125 C 3.378906 -14.90625 4.3125 -15.078125 5.21875 -15.046875 C 6.132812 -15.015625 6.992188 -14.785156 7.796875 -14.359375 L 6.890625 -12.515625 C 5.703125 -13.097656 4.488281 -13.148438 3.25 -12.671875 C 2.457031 -12.359375 1.8125 -11.90625 1.3125 -11.3125 C 0.8125 -10.71875 0.503906 -10.039062 0.390625 -9.28125 C 0.273438 -8.53125 0.367188 -7.753906 0.671875 -6.953125 C 0.972656 -6.171875 1.421875 -5.535156 2.015625 -5.046875 C 2.609375 -4.554688 3.289062 -4.257812 4.0625 -4.15625 C 4.832031 -4.050781 5.613281 -4.15625 6.40625 -4.46875 C 7.644531 -4.945312 8.507812 -5.8125 9 -7.0625 L 10.921875 -6.25 C 10.609375 -5.40625 10.117188 -4.664062 9.453125 -4.03125 C 8.796875 -3.40625 7.988281 -2.90625 7.03125 -2.53125 Z M 7.03125 -2.53125 "/></g></g></g><g fill="#ffffff" fill-opacity="1"><g transform="translate(228.962893, 275.804285)"><g><path d="M -4.5 -11.8125 L -2.46875 -12.90625 L 2.578125 -3.640625 L 8.328125 -6.765625 L 9.265625 -5.03125 L 1.484375 -0.8125 Z M -4.5 -11.8125 "/></g></g></g><g fill="#ffffff" fill-opacity="1"><g transform="translate(239.103079, 270.359762)"><g><path d="M 5.796875 -4.046875 C 4.398438 -3.015625 3.023438 -2.601562 1.671875 -2.8125 C 0.316406 -3.03125 -0.894531 -3.867188 -1.96875 -5.328125 L -6.140625 -11.015625 L -4.265625 -12.375 L -0.140625 -6.765625 C 1.316406 -4.785156 2.898438 -4.425781 4.609375 -5.6875 C 6.316406 -6.945312 6.441406 -8.566406 4.984375 -10.546875 L 0.859375 -16.15625 L 2.6875 -17.5 L 6.859375 -11.8125 C 7.929688 -10.351562 8.367188 -8.945312 8.171875 -7.59375 C 7.984375 -6.25 7.191406 -5.066406 5.796875 -4.046875 Z M 5.796875 -4.046875 "/></g></g></g><g fill="#ffffff" fill-opacity="1"><g transform="translate(251.132833, 261.41218)"><g><path d="M 2.859375 -12.046875 C 3.503906 -12.378906 4.15625 -12.5 4.8125 -12.40625 C 5.476562 -12.320312 6.09375 -12 6.65625 -11.4375 C 7.414062 -10.675781 7.707031 -9.789062 7.53125 -8.78125 C 7.363281 -7.78125 6.71875 -6.71875 5.59375 -5.59375 L 1.1875 -1.1875 L -7.671875 -10.03125 L -3.53125 -14.1875 C -2.476562 -15.226562 -1.460938 -15.828125 -0.484375 -15.984375 C 0.484375 -16.140625 1.328125 -15.859375 2.046875 -15.140625 C 2.484375 -14.703125 2.765625 -14.210938 2.890625 -13.671875 C 3.023438 -13.128906 3.015625 -12.585938 2.859375 -12.046875 Z M -4.734375 -10.390625 L -2.28125 -7.9375 L 0.046875 -10.265625 C 0.617188 -10.835938 0.953125 -11.378906 1.046875 -11.890625 C 1.148438 -12.410156 1.003906 -12.867188 0.609375 -13.265625 C 0.203125 -13.671875 -0.253906 -13.820312 -0.765625 -13.71875 C -1.285156 -13.625 -1.832031 -13.289062 -2.40625 -12.71875 Z M 4.1875 -6.78125 C 5.457031 -8.050781 5.671875 -9.109375 4.828125 -9.953125 C 3.972656 -10.804688 2.910156 -10.597656 1.640625 -9.328125 L -1.015625 -6.671875 L 1.53125 -4.125 Z M 4.1875 -6.78125 "/></g></g></g></svg>